<ttFont>
    <TTGlyph name=".notdef" xMin="94" yMin="0" xMax="538" yMax="660">
      <contour>
        <pt x="94" y="0" on="1"/>
        <pt x="94" y="660" on="1"/>
        <pt x="538" y="660" on="1"/>
        <pt x="538" y="0" on="1"/>
      </contour>
      <contour>
        <pt x="158" y="39" on="1"/>
        <pt x="470" y="39" on="1"/>
        <pt x="377" y="203" on="1"/>
        <pt x="318" y="308" on="1"/>
        <pt x="314" y="308" on="1"/>
        <pt x="253" y="203" on="1"/>
      </contour>
      <contour>
        <pt x="314" y="372" on="1"/>
        <pt x="318" y="372" on="1"/>
        <pt x="371" y="464" on="1"/>
        <pt x="457" y="619" on="1"/>
        <pt x="173" y="619" on="1"/>
        <pt x="260" y="464" on="1"/>
      </contour>
      <contour>
        <pt x="139" y="84" on="1"/>
        <pt x="286" y="340" on="1"/>
        <pt x="139" y="600" on="1"/>
      </contour>
      <contour>
        <pt x="491" y="84" on="1"/>
        <pt x="491" y="600" on="1"/>
        <pt x="346" y="340" on="1"/>
      </contour>
    </TTGlyph>
    <TTGlyph name="A" xMin="8" yMin="0" xMax="518" yMax="659">
      <contour>
        <pt x="8" y="0" on="1"/>
        <pt x="240" y="659" on="1"/>
        <pt x="286" y="659" on="1"/>
        <pt x="518" y="0" on="1"/>
        <pt x="470" y="0" on="1"/>
        <pt x="338" y="388" on="1"/>
        <pt x="292" y="521" on="0"/>
        <pt x="265" y="616" on="1"/>
        <pt x="261" y="616" on="1"/>
        <pt x="234" y="521" on="0"/>
        <pt x="188" y="388" on="1"/>
        <pt x="54" y="0" on="1"/>
      </contour>
      <contour>
        <pt x="114" y="226" on="1"/>
        <pt x="114" y="265" on="1"/>
        <pt x="410" y="265" on="1"/>
        <pt x="410" y="226" on="1"/>
      </contour>
    </TTGlyph>
    <TTGlyph name="AE" xMin="21" yMin="0" xMax="762" yMax="659">
      <contour>
        <pt x="21" y="0" on="1"/>
        <pt x="386" y="659" on="1"/>
        <pt x="752" y="659" on="1"/>
        <pt x="752" y="619" on="1"/>
        <pt x="457" y="619" on="1"/>
        <pt x="457" y="370" on="1"/>
        <pt x="702" y="370" on="1"/>
        <pt x="702" y="330" on="1"/>
        <pt x="457" y="330" on="1"/>
        <pt x="457" y="40" on="1"/>
        <pt x="762" y="40" on="1"/>
        <pt x="762" y="0" on="1"/>
        <pt x="411" y="0" on="1"/>
        <pt x="411" y="619" on="1"/>
        <pt x="407" y="619" on="1"/>
        <pt x="378" y="566" on="0"/>
        <pt x="283" y="388" on="1"/>
        <pt x="70" y="0" on="1"/>
      </contour>
      <contour>
        <pt x="170" y="217" on="1"/>
        <pt x="170" y="255" on="1"/>
        <pt x="445" y="255" on="1"/>
        <pt x="445" y="217" on="1"/>
      </contour>
    </TTGlyph>
    <TTGlyph name="Aacute" xMin="8" yMin="0" xMax="518" yMax="852">
      <contour>
        <pt x="8" y="0" on="1"/>
        <pt x="240" y="659" on="1"/>
        <pt x="286" y="659" on="1"/>
        <pt x="518" y="0" on="1"/>
        <pt x="470" y="0" on="1"/>
        <pt x="338" y="388" on="1"/>
        <pt x="292" y="521" on="0"/>
        <pt x="265" y="616" on="1"/>
        <pt x="261" y="616" on="1"/>
        <pt x="234" y="521" on="0"/>
        <pt x="188" y="388" on="1"/>
        <pt x="54" y="0" on="1"/>
      </contour>
      <contour>
        <pt x="114" y="226" on="1"/>
        <pt x="114" y="265" on="1"/>
        <pt x="410" y="265" on="1"/>
        <pt x="410" y="226" on="1"/>
      </contour>
      <contour>
        <pt x="242" y="706" on="1"/>
        <pt x="222" y="729" on="1"/>
        <pt x="347" y="852" on="1"/>
        <pt x="375" y="819" on="1"/>
      </contour>
    </TTGlyph>
    <TTGlyph name="Acircumflex" xMin="8" yMin="0" xMax="518" yMax="839">
      <contour>
        <pt x="8" y="0" on="1"/>
        <pt x="240" y="659" on="1"/>
        <pt x="286" y="659" on="1"/>
        <pt x="518" y="0" on="1"/>
        <pt x="470" y="0" on="1"/>
        <pt x="338" y="388" on="1"/>
        <pt x="292" y="521" on="0"/>
        <pt x="265" y="616" on="1"/>
        <pt x="261" y="616" on="1"/>
        <pt x="234" y="521" on="0"/>
        <pt x="188" y="388" on="1"/>
        <pt x="54" y="0" on="1"/>
      </contour>
      <contour>
        <pt x="114" y="226" on="1"/>
        <pt x="114" y="265" on="1"/>
        <pt x="410" y="265" on="1"/>
        <pt x="410" y="226" on="1"/>
      </contour>
      <contour>
        <pt x="128" y="726" on="1"/>
        <pt x="241" y="839" on="1"/>
        <pt x="285" y="839" on="1"/>
        <pt x="398" y="726" on="1"/>
        <pt x="378" y="707" on="1"/>
        <pt x="265" y="805" on="1"/>
        <pt x="261" y="805" on="1"/>
        <pt x="148" y="707" on="1"/>
      </contour>
    </TTGlyph>
    <TTGlyph name="Adieresis" xMin="8" yMin="0" xMax="518" yMax="798">
      <contour>
        <pt x="8" y="0" on="1"/>
        <pt x="240" y="659" on="1"/>
        <pt x="286" y="659" on="1"/>
        <pt x="518" y="0" on="1"/>
        <pt x="470" y="0" on="1"/>
        <pt x="338" y="388" on="1"/>
        <pt x="292" y="521" on="0"/>
        <pt x="265" y="616" on="1"/>
        <pt x="261" y="616" on="1"/>
        <pt x="234" y="521" on="0"/>
        <pt x="188" y="388" on="1"/>
        <pt x="54" y="0" on="1"/>
      </contour>
      <contour>
        <pt x="114" y="226" on="1"/>
        <pt x="114" y="265" on="1"/>
        <pt x="410" y="265" on="1"/>
        <pt x="410" y="226" on="1"/>
      </contour>
      <contour>
        <pt x="181" y="725" on="0"/>
        <pt x="149" y="725" on="0"/>
        <pt x="129" y="745" on="0"/>
        <pt x="129" y="761" on="1"/>
        <pt x="129" y="778" on="0"/>
        <pt x="149" y="798" on="0"/>
        <pt x="181" y="798" on="0"/>
        <pt x="202" y="778" on="0"/>
        <pt x="202" y="761" on="1"/>
        <pt x="202" y="745" on="0"/>
      </contour>
      <contour>
        <pt x="377" y="725" on="0"/>
        <pt x="345" y="725" on="0"/>
        <pt x="324" y="745" on="0"/>
        <pt x="324" y="761" on="1"/>
        <pt x="324" y="778" on="0"/>
        <pt x="345" y="798" on="0"/>
        <pt x="377" y="798" on="0"/>
        <pt x="397" y="778" on="0"/>
        <pt x="397" y="761" on="1"/>
        <pt x="397" y="745" on="0"/>
      </contour>
    </TTGlyph>
    <TTGlyph name="Agrave" xMin="8" yMin="0" xMax="518" yMax="852">
      <contour>
        <pt x="8" y="0" on="1"/>
        <pt x="240" y="659" on="1"/>
        <pt x="286" y="659" on="1"/>
        <pt x="518" y="0" on="1"/>
        <pt x="470" y="0" on="1"/>
        <pt x="338" y="388" on="1"/>
        <pt x="292" y="521" on="0"/>
        <pt x="265" y="616" on="1"/>
        <pt x="261" y="616" on="1"/>
        <pt x="234" y="521" on="0"/>
        <pt x="188" y="388" on="1"/>
        <pt x="54" y="0" on="1"/>
      </contour>
      <contour>
        <pt x="114" y="226" on="1"/>
        <pt x="114" y="265" on="1"/>
        <pt x="410" y="265" on="1"/>
        <pt x="410" y="226" on="1"/>
      </contour>
      <contour>
        <pt x="284" y="706" on="1"/>
        <pt x="151" y="819" on="1"/>
        <pt x="179" y="852" on="1"/>
        <pt x="304" y="729" on="1"/>
      </contour>
    </TTGlyph>
    <TTGlyph name="Aring" xMin="8" yMin="0" xMax="518" yMax="871">
      <contour>
        <pt x="8" y="0" on="1"/>
        <pt x="240" y="659" on="1"/>
        <pt x="286" y="659" on="1"/>
        <pt x="518" y="0" on="1"/>
        <pt x="470" y="0" on="1"/>
        <pt x="338" y="388" on="1"/>
        <pt x="292" y="521" on="0"/>
        <pt x="265" y="616" on="1"/>
        <pt x="261" y="616" on="1"/>
        <pt x="234" y="521" on="0"/>
        <pt x="188" y="388" on="1"/>
        <pt x="54" y="0" on="1"/>
      </contour>
      <contour>
        <pt x="114" y="226" on="1"/>
        <pt x="114" y="265" on="1"/>
        <pt x="410" y="265" on="1"/>
        <pt x="410" y="226" on="1"/>
      </contour>
      <contour>
        <pt x="263" y="700" on="1"/>
        <pt x="225" y="700" on="0"/>
        <pt x="175" y="747" on="0"/>
        <pt x="175" y="785" on="1"/>
        <pt x="175" y="824" on="0"/>
        <pt x="225" y="871" on="0"/>
        <pt x="263" y="871" on="1"/>
        <pt x="300" y="871" on="0"/>
        <pt x="351" y="824" on="0"/>
        <pt x="351" y="785" on="1"/>
        <pt x="351" y="748" on="0"/>
        <pt x="300" y="700" on="0"/>
      </contour>
      <contour>
        <pt x="263" y="726" on="1"/>
        <pt x="287" y="726" on="0"/>
        <pt x="319" y="757" on="0"/>
        <pt x="319" y="785" on="1"/>
        <pt x="319" y="812" on="0"/>
        <pt x="286" y="845" on="0"/>
        <pt x="263" y="845" on="1"/>
        <pt x="238" y="845" on="0"/>
        <pt x="205" y="813" on="0"/>
        <pt x="205" y="757" on="0"/>
        <pt x="238" y="726" on="0"/>
      </contour>
    </TTGlyph>
    <TTGlyph name="Atilde" xMin="8" yMin="0" xMax="518" yMax="834">
      <contour>
        <pt x="8" y="0" on="1"/>
        <pt x="240" y="659" on="1"/>
        <pt x="286" y="659" on="1"/>
        <pt x="518" y="0" on="1"/>
        <pt x="470" y="0" on="1"/>
        <pt x="338" y="388" on="1"/>
        <pt x="292" y="521" on="0"/>
        <pt x="265" y="616" on="1"/>
        <pt x="261" y="616" on="1"/>
        <pt x="234" y="521" on="0"/>
        <pt x="188" y="388" on="1"/>
        <pt x="54" y="0" on="1"/>
      </contour>
      <contour>
        <pt x="114" y="226" on="1"/>
        <pt x="114" y="265" on="1"/>
        <pt x="410" y="265" on="1"/>
        <pt x="410" y="226" on="1"/>
      </contour>
      <contour>
        <pt x="340" y="718" on="1"/>
        <pt x="314" y="718" on="0"/>
        <pt x="268" y="743" on="0"/>
        <pt x="241" y="772" on="0"/>
        <pt x="204" y="797" on="0"/>
        <pt x="186" y="797" on="1"/>
        <pt x="164" y="797" on="0"/>
        <pt x="134" y="756" on="0"/>
        <pt x="131" y="721" on="1"/>
        <pt x="98" y="724" on="1"/>
        <pt x="100" y="772" on="0"/>
        <pt x="147" y="834" on="0"/>
        <pt x="186" y="834" on="1"/>
        <pt x="212" y="834" on="0"/>
        <pt x="258" y="809" on="0"/>
        <pt x="285" y="780" on="0"/>
        <pt x="322" y="755" on="0"/>
        <pt x="340" y="755" on="1"/>
        <pt x="361" y="755" on="0"/>
        <pt x="390" y="796" on="0"/>
        <pt x="395" y="832" on="1"/>
        <pt x="428" y="829" on="1"/>
        <pt x="426" y="781" on="0"/>
        <pt x="379" y="718" on="0"/>
      </contour>
    </TTGlyph>
    <TTGlyph name="B" xMin="97" yMin="0" xMax="533" yMax="659">
      <contour>
        <pt x="97" y="0" on="1"/>
        <pt x="97" y="659" on="1"/>
        <pt x="275" y="659" on="1"/>
        <pt x="378" y="659" on="0"/>
        <pt x="493" y="579" on="0"/>
        <pt x="493" y="499" on="1"/>
        <pt x="493" y="446" on="0"/>
        <pt x="440" y="370" on="0"/>
        <pt x="391" y="355" on="1"/>
        <pt x="391" y="351" on="1"/>
        <pt x="457" y="340" on="0"/>
        <pt x="533" y="258" on="0"/>
        <pt x="533" y="192" on="1"/>
        <pt x="533" y="99" on="0"/>
        <pt x="402" y="0" on="0"/>
        <pt x="288" y="0" on="1"/>
      </contour>
      <contour>
        <pt x="143" y="369" on="1"/>
        <pt x="257" y="369" on="1"/>
        <pt x="447" y="369" on="0"/>
        <pt x="447" y="494" on="1"/>
        <pt x="447" y="562" on="0"/>
        <pt x="356" y="621" on="0"/>
        <pt x="262" y="621" on="1"/>
        <pt x="143" y="621" on="1"/>
      </contour>
      <contour>
        <pt x="143" y="38" on="1"/>
        <pt x="276" y="38" on="1"/>
        <pt x="377" y="38" on="0"/>
        <pt x="488" y="114" on="0"/>
        <pt x="488" y="191" on="1"/>
        <pt x="488" y="331" on="0"/>
        <pt x="276" y="331" on="1"/>
        <pt x="143" y="331" on="1"/>
      </contour>
    </TTGlyph>
    <TTGlyph name="C" xMin="55" yMin="-12" xMax="527" yMax="671">
      <contour>
        <pt x="331" y="-12" on="1"/>
        <pt x="208" y="-12" on="0"/>
        <pt x="55" y="175" on="0"/>
        <pt x="55" y="487" on="0"/>
        <pt x="210" y="671" on="0"/>
        <pt x="336" y="671" on="1"/>
        <pt x="441" y="671" on="0"/>
        <pt x="508" y="592" on="1"/>
        <pt x="481" y="561" on="1"/>
        <pt x="421" y="629" on="0"/>
        <pt x="337" y="629" on="1"/>
        <pt x="228" y="629" on="0"/>
        <pt x="103" y="469" on="0"/>
        <pt x="103" y="193" on="0"/>
        <pt x="227" y="30" on="0"/>
        <pt x="333" y="30" on="1"/>
        <pt x="427" y="30" on="0"/>
        <pt x="500" y="111" on="1"/>
        <pt x="527" y="82" on="1"/>
        <pt x="444" y="-12" on="0"/>
      </contour>
    </TTGlyph>
    <TTGlyph name="Ccedilla" xMin="55" yMin="-219" xMax="527" yMax="671">
      <contour>
        <pt x="331" y="-12" on="1"/>
        <pt x="208" y="-12" on="0"/>
        <pt x="55" y="175" on="0"/>
        <pt x="55" y="487" on="0"/>
        <pt x="210" y="671" on="0"/>
        <pt x="336" y="671" on="1"/>
        <pt x="441" y="671" on="0"/>
        <pt x="508" y="592" on="1"/>
        <pt x="481" y="561" on="1"/>
        <pt x="421" y="629" on="0"/>
        <pt x="337" y="629" on="1"/>
        <pt x="228" y="629" on="0"/>
        <pt x="103" y="469" on="0"/>
        <pt x="103" y="193" on="0"/>
        <pt x="227" y="30" on="0"/>
        <pt x="333" y="30" on="1"/>
        <pt x="427" y="30" on="0"/>
        <pt x="500" y="111" on="1"/>
        <pt x="527" y="82" on="1"/>
        <pt x="444" y="-12" on="0"/>
      </contour>
      <contour>
        <pt x="262" y="-219" on="1"/>
        <pt x="255" y="-189" on="1"/>
        <pt x="318" y="-185" on="0"/>
        <pt x="368" y="-159" on="0"/>
        <pt x="368" y="-136" on="1"/>
        <pt x="368" y="-114" on="0"/>
        <pt x="332" y="-91" on="0"/>
        <pt x="290" y="-85" on="1"/>
        <pt x="331" y="2" on="1"/>
        <pt x="366" y="2" on="1"/>
        <pt x="336" y="-65" on="1"/>
        <pt x="407" y="-83" on="0"/>
        <pt x="407" y="-134" on="1"/>
        <pt x="407" y="-210" on="0"/>
      </contour>
    </TTGlyph>
    <TTGlyph name="D" xMin="97" yMin="0" xMax="549" yMax="659">
      <contour>
        <pt x="97" y="0" on="1"/>
        <pt x="97" y="659" on="1"/>
        <pt x="250" y="659" on="1"/>
        <pt x="398" y="659" on="0"/>
        <pt x="549" y="486" on="0"/>
        <pt x="549" y="332" on="1"/>
        <pt x="549" y="177" on="0"/>
        <pt x="398" y="0" on="0"/>
        <pt x="251" y="0" on="1"/>
      </contour>
      <contour>
        <pt x="143" y="39" on="1"/>
        <pt x="245" y="39" on="1"/>
        <pt x="374" y="39" on="0"/>
        <pt x="501" y="197" on="0"/>
        <pt x="501" y="332" on="1"/>
        <pt x="501" y="466" on="0"/>
        <pt x="374" y="620" on="0"/>
        <pt x="245" y="620" on="1"/>
        <pt x="143" y="620" on="1"/>
      </contour>
    </TTGlyph>
    <TTGlyph name="E" xMin="97" yMin="0" xMax="468" yMax="659">
      <contour>
        <pt x="97" y="0" on="1"/>
        <pt x="97" y="659" on="1"/>
        <pt x="458" y="659" on="1"/>
        <pt x="458" y="619" on="1"/>
        <pt x="143" y="619" on="1"/>
        <pt x="143" y="370" on="1"/>
        <pt x="407" y="370" on="1"/>
        <pt x="407" y="330" on="1"/>
        <pt x="143" y="330" on="1"/>
        <pt x="143" y="40" on="1"/>
        <pt x="468" y="40" on="1"/>
        <pt x="468" y="0" on="1"/>
      </contour>
    </TTGlyph>
    <TTGlyph name="Eacute" xMin="97" yMin="0" xMax="468" yMax="852">
      <contour>
        <pt x="97" y="0" on="1"/>
        <pt x="97" y="659" on="1"/>
        <pt x="458" y="659" on="1"/>
        <pt x="458" y="619" on="1"/>
        <pt x="143" y="619" on="1"/>
        <pt x="143" y="370" on="1"/>
        <pt x="407" y="370" on="1"/>
        <pt x="407" y="330" on="1"/>
        <pt x="143" y="330" on="1"/>
        <pt x="143" y="40" on="1"/>
        <pt x="468" y="40" on="1"/>
        <pt x="468" y="0" on="1"/>
      </contour>
      <contour>
        <pt x="261" y="706" on="1"/>
        <pt x="241" y="729" on="1"/>
        <pt x="366" y="852" on="1"/>
        <pt x="394" y="819" on="1"/>
      </contour>
    </TTGlyph>
    <TTGlyph name="Ecircumflex" xMin="97" yMin="0" xMax="468" yMax="839">
      <contour>
        <pt x="97" y="0" on="1"/>
        <pt x="97" y="659" on="1"/>
        <pt x="458" y="659" on="1"/>
        <pt x="458" y="619" on="1"/>
        <pt x="143" y="619" on="1"/>
        <pt x="143" y="370" on="1"/>
        <pt x="407" y="370" on="1"/>
        <pt x="407" y="330" on="1"/>
        <pt x="143" y="330" on="1"/>
        <pt x="143" y="40" on="1"/>
        <pt x="468" y="40" on="1"/>
        <pt x="468" y="0" on="1"/>
      </contour>
      <contour>
        <pt x="147" y="726" on="1"/>
        <pt x="260" y="839" on="1"/>
        <pt x="304" y="839" on="1"/>
        <pt x="417" y="726" on="1"/>
        <pt x="397" y="707" on="1"/>
        <pt x="284" y="805" on="1"/>
        <pt x="280" y="805" on="1"/>
        <pt x="167" y="707" on="1"/>
      </contour>
    </TTGlyph>
    <TTGlyph name="Edieresis" xMin="97" yMin="0" xMax="468" yMax="798">
      <contour>
        <pt x="97" y="0" on="1"/>
        <pt x="97" y="659" on="1"/>
        <pt x="458" y="659" on="1"/>
        <pt x="458" y="619" on="1"/>
        <pt x="143" y="619" on="1"/>
        <pt x="143" y="370" on="1"/>
        <pt x="407" y="370" on="1"/>
        <pt x="407" y="330" on="1"/>
        <pt x="143" y="330" on="1"/>
        <pt x="143" y="40" on="1"/>
        <pt x="468" y="40" on="1"/>
        <pt x="468" y="0" on="1"/>
      </contour>
      <contour>
        <pt x="200" y="725" on="0"/>
        <pt x="168" y="725" on="0"/>
        <pt x="148" y="745" on="0"/>
        <pt x="148" y="761" on="1"/>
        <pt x="148" y="778" on="0"/>
        <pt x="168" y="798" on="0"/>
        <pt x="200" y="798" on="0"/>
        <pt x="221" y="778" on="0"/>
        <pt x="221" y="761" on="1"/>
        <pt x="221" y="745" on="0"/>
      </contour>
      <contour>
        <pt x="396" y="725" on="0"/>
        <pt x="364" y="725" on="0"/>
        <pt x="343" y="745" on="0"/>
        <pt x="343" y="761" on="1"/>
        <pt x="343" y="778" on="0"/>
        <pt x="364" y="798" on="0"/>
        <pt x="396" y="798" on="0"/>
        <pt x="416" y="778" on="0"/>
        <pt x="416" y="761" on="1"/>
        <pt x="416" y="745" on="0"/>
      </contour>
    </TTGlyph>
    <TTGlyph name="Egrave" xMin="97" yMin="0" xMax="468" yMax="852">
      <contour>
        <pt x="97" y="0" on="1"/>
        <pt x="97" y="659" on="1"/>
        <pt x="458" y="659" on="1"/>
        <pt x="458" y="619" on="1"/>
        <pt x="143" y="619" on="1"/>
        <pt x="143" y="370" on="1"/>
        <pt x="407" y="370" on="1"/>
        <pt x="407" y="330" on="1"/>
        <pt x="143" y="330" on="1"/>
        <pt x="143" y="40" on="1"/>
        <pt x="468" y="40" on="1"/>
        <pt x="468" y="0" on="1"/>
      </contour>
      <contour>
        <pt x="303" y="706" on="1"/>
        <pt x="170" y="819" on="1"/>
        <pt x="198" y="852" on="1"/>
        <pt x="323" y="729" on="1"/>
      </contour>
    </TTGlyph>
    <TTGlyph name="Eth" xMin="37" yMin="0" xMax="570" yMax="659">
      <contour>
        <pt x="37" y="332" on="1"/>
        <pt x="37" y="363" on="1"/>
        <pt x="120" y="365" on="1"/>
        <pt x="327" y="365" on="1"/>
        <pt x="327" y="332" on="1"/>
      </contour>
      <contour>
        <pt x="118" y="0" on="1"/>
        <pt x="118" y="659" on="1"/>
        <pt x="271" y="659" on="1"/>
        <pt x="419" y="659" on="0"/>
        <pt x="570" y="486" on="0"/>
        <pt x="570" y="332" on="1"/>
        <pt x="570" y="177" on="0"/>
        <pt x="419" y="0" on="0"/>
        <pt x="272" y="0" on="1"/>
      </contour>
      <contour>
        <pt x="164" y="39" on="1"/>
        <pt x="266" y="39" on="1"/>
        <pt x="395" y="39" on="0"/>
        <pt x="522" y="197" on="0"/>
        <pt x="522" y="332" on="1"/>
        <pt x="522" y="466" on="0"/>
        <pt x="395" y="620" on="0"/>
        <pt x="266" y="620" on="1"/>
        <pt x="164" y="620" on="1"/>
      </contour>
    </TTGlyph>
    <TTGlyph name="Euro" xMin="24" yMin="-12" xMax="474" yMax="651">
      <contour>
        <pt x="308" y="-12" on="1"/>
        <pt x="207" y="-12" on="0"/>
        <pt x="85" y="169" on="0"/>
        <pt x="85" y="473" on="0"/>
        <pt x="213" y="651" on="0"/>
        <pt x="323" y="651" on="1"/>
        <pt x="366" y="651" on="0"/>
        <pt x="441" y="607" on="0"/>
        <pt x="464" y="573" on="1"/>
        <pt x="435" y="546" on="1"/>
        <pt x="386" y="613" on="0"/>
        <pt x="323" y="613" on="1"/>
        <pt x="232" y="613" on="0"/>
        <pt x="132" y="457" on="0"/>
        <pt x="132" y="322" on="1"/>
        <pt x="132" y="186" on="0"/>
        <pt x="227" y="26" on="0"/>
        <pt x="311" y="26" on="1"/>
        <pt x="387" y="26" on="0"/>
        <pt x="445" y="107" on="1"/>
        <pt x="474" y="82" on="1"/>
        <pt x="406" y="-12" on="0"/>
      </contour>
      <contour>
        <pt x="24" y="246" on="1"/>
        <pt x="24" y="275" on="1"/>
        <pt x="89" y="279" on="1"/>
        <pt x="374" y="279" on="1"/>
        <pt x="374" y="246" on="1"/>
      </contour>
      <contour>
        <pt x="24" y="356" on="1"/>
        <pt x="24" y="385" on="1"/>
        <pt x="91" y="389" on="1"/>
        <pt x="414" y="389" on="1"/>
        <pt x="414" y="356" on="1"/>
      </contour>
    </TTGlyph>
    <TTGlyph name="F" xMin="97" yMin="0" xMax="456" yMax="659">
      <contour>
        <pt x="97" y="0" on="1"/>
        <pt x="97" y="659" on="1"/>
        <pt x="456" y="659" on="1"/>
        <pt x="456" y="619" on="1"/>
        <pt x="143" y="619" on="1"/>
        <pt x="143" y="357" on="1"/>
        <pt x="408" y="357" on="1"/>
        <pt x="408" y="317" on="1"/>
        <pt x="143" y="317" on="1"/>
        <pt x="143" y="0" on="1"/>
      </contour>
    </TTGlyph>
    <TTGlyph name="G" xMin="55" yMin="-12" xMax="533" yMax="671">
      <contour>
        <pt x="338" y="-12" on="1"/>
        <pt x="210" y="-12" on="0"/>
        <pt x="55" y="174" on="0"/>
        <pt x="55" y="331" on="1"/>
        <pt x="55" y="487" on="0"/>
        <pt x="215" y="671" on="0"/>
        <pt x="346" y="671" on="1"/>
        <pt x="451" y="671" on="0"/>
        <pt x="526" y="592" on="1"/>
        <pt x="499" y="561" on="1"/>
        <pt x="437" y="629" on="0"/>
        <pt x="347" y="629" on="1"/>
        <pt x="234" y="629" on="0"/>
        <pt x="103" y="469" on="0"/>
        <pt x="103" y="193" on="0"/>
        <pt x="229" y="30" on="0"/>
        <pt x="341" y="30" on="1"/>
        <pt x="439" y="30" on="0"/>
        <pt x="489" y="80" on="1"/>
        <pt x="489" y="285" on="1"/>
        <pt x="331" y="285" on="1"/>
        <pt x="331" y="324" on="1"/>
        <pt x="533" y="324" on="1"/>
        <pt x="533" y="63" on="1"/>
        <pt x="463" y="-12" on="0"/>
      </contour>
    </TTGlyph>
    <TTGlyph name="H" xMin="97" yMin="0" xMax="542" yMax="659">
      <contour>
        <pt x="97" y="0" on="1"/>
        <pt x="97" y="659" on="1"/>
        <pt x="143" y="659" on="1"/>
        <pt x="143" y="370" on="1"/>
        <pt x="496" y="370" on="1"/>
        <pt x="496" y="659" on="1"/>
        <pt x="542" y="659" on="1"/>
        <pt x="542" y="0" on="1"/>
        <pt x="496" y="0" on="1"/>
        <pt x="496" y="330" on="1"/>
        <pt x="143" y="330" on="1"/>
        <pt x="143" y="0" on="1"/>
      </contour>
    </TTGlyph>
    <TTGlyph name="I" xMin="97" yMin="0" xMax="143" yMax="659">
      <contour>
        <pt x="97" y="0" on="1"/>
        <pt x="97" y="659" on="1"/>
        <pt x="143" y="659" on="1"/>
        <pt x="143" y="0" on="1"/>
      </contour>
    </TTGlyph>
    <TTGlyph name="Iacute" xMin="79" yMin="0" xMax="232" yMax="852">
      <contour>
        <pt x="97" y="0" on="1"/>
        <pt x="97" y="659" on="1"/>
        <pt x="143" y="659" on="1"/>
        <pt x="143" y="0" on="1"/>
      </contour>
      <contour>
        <pt x="99" y="706" on="1"/>
        <pt x="79" y="729" on="1"/>
        <pt x="204" y="852" on="1"/>
        <pt x="232" y="819" on="1"/>
      </contour>
    </TTGlyph>
    <TTGlyph name="Icircumflex" xMin="-15" yMin="0" xMax="255" yMax="839">
      <contour>
        <pt x="97" y="0" on="1"/>
        <pt x="97" y="659" on="1"/>
        <pt x="143" y="659" on="1"/>
        <pt x="143" y="0" on="1"/>
      </contour>
      <contour>
        <pt x="-15" y="726" on="1"/>
        <pt x="98" y="839" on="1"/>
        <pt x="142" y="839" on="1"/>
        <pt x="255" y="726" on="1"/>
        <pt x="235" y="707" on="1"/>
        <pt x="122" y="805" on="1"/>
        <pt x="118" y="805" on="1"/>
        <pt x="5" y="707" on="1"/>
      </contour>
    </TTGlyph>
    <TTGlyph name="Idieresis" xMin="-14" yMin="0" xMax="254" yMax="798">
      <contour>
        <pt x="97" y="0" on="1"/>
        <pt x="97" y="659" on="1"/>
        <pt x="143" y="659" on="1"/>
        <pt x="143" y="0" on="1"/>
      </contour>
      <contour>
        <pt x="38" y="725" on="0"/>
        <pt x="6" y="725" on="0"/>
        <pt x="-14" y="745" on="0"/>
        <pt x="-14" y="761" on="1"/>
        <pt x="-14" y="778" on="0"/>
        <pt x="6" y="798" on="0"/>
        <pt x="38" y="798" on="0"/>
        <pt x="59" y="778" on="0"/>
        <pt x="59" y="761" on="1"/>
        <pt x="59" y="745" on="0"/>
      </contour>
      <contour>
        <pt x="234" y="725" on="0"/>
        <pt x="202" y="725" on="0"/>
        <pt x="181" y="745" on="0"/>
        <pt x="181" y="761" on="1"/>
        <pt x="181" y="778" on="0"/>
        <pt x="202" y="798" on="0"/>
        <pt x="234" y="798" on="0"/>
        <pt x="254" y="778" on="0"/>
        <pt x="254" y="761" on="1"/>
        <pt x="254" y="745" on="0"/>
      </contour>
    </TTGlyph>
    <TTGlyph name="Igrave" xMin="8" yMin="0" xMax="161" yMax="852">
      <contour>
        <pt x="97" y="0" on="1"/>
        <pt x="97" y="659" on="1"/>
        <pt x="143" y="659" on="1"/>
        <pt x="143" y="0" on="1"/>
      </contour>
      <contour>
        <pt x="141" y="706" on="1"/>
        <pt x="8" y="819" on="1"/>
        <pt x="36" y="852" on="1"/>
        <pt x="161" y="729" on="1"/>
      </contour>
    </TTGlyph>
    <TTGlyph name="J" xMin="41" yMin="-12" xMax="367" yMax="659">
      <contour>
        <pt x="203" y="-12" on="1"/>
        <pt x="93" y="-12" on="0"/>
        <pt x="41" y="85" on="1"/>
        <pt x="76" y="108" on="1"/>
        <pt x="121" y="30" on="0"/>
        <pt x="203" y="30" on="1"/>
        <pt x="263" y="30" on="0"/>
        <pt x="321" y="104" on="0"/>
        <pt x="321" y="184" on="1"/>
        <pt x="321" y="659" on="1"/>
        <pt x="367" y="659" on="1"/>
        <pt x="367" y="179" on="1"/>
        <pt x="367" y="93" on="0"/>
        <pt x="288" y="-12" on="0"/>
      </contour>
    </TTGlyph>
    <TTGlyph name="K" xMin="97" yMin="0" xMax="548" yMax="659">
      <contour>
        <pt x="97" y="0" on="1"/>
        <pt x="97" y="659" on="1"/>
        <pt x="143" y="659" on="1"/>
        <pt x="143" y="293" on="1"/>
        <pt x="145" y="293" on="1"/>
        <pt x="464" y="659" on="1"/>
        <pt x="519" y="659" on="1"/>
        <pt x="309" y="415" on="1"/>
        <pt x="548" y="0" on="1"/>
        <pt x="495" y="0" on="1"/>
        <pt x="277" y="380" on="1"/>
        <pt x="143" y="227" on="1"/>
        <pt x="143" y="0" on="1"/>
      </contour>
    </TTGlyph>
    <TTGlyph name="L" xMin="97" yMin="0" xMax="447" yMax="659">
      <contour>
        <pt x="97" y="0" on="1"/>
        <pt x="97" y="659" on="1"/>
        <pt x="143" y="659" on="1"/>
        <pt x="143" y="40" on="1"/>
        <pt x="447" y="40" on="1"/>
        <pt x="447" y="0" on="1"/>
      </contour>
    </TTGlyph>
    <TTGlyph name="M" xMin="97" yMin="0" xMax="609" yMax="659">
      <contour>
        <pt x="97" y="0" on="1"/>
        <pt x="97" y="659" on="1"/>
        <pt x="162" y="659" on="1"/>
        <pt x="300" y="272" on="1"/>
        <pt x="305" y="257" on="0"/>
        <pt x="342" y="154" on="0"/>
        <pt x="352" y="126" on="1"/>
        <pt x="356" y="126" on="1"/>
        <pt x="363" y="146" on="0"/>
        <pt x="397" y="245" on="0"/>
        <pt x="406" y="272" on="1"/>
        <pt x="543" y="659" on="1"/>
        <pt x="609" y="659" on="1"/>
        <pt x="609" y="0" on="1"/>
        <pt x="564" y="0" on="1"/>
        <pt x="564" y="433" on="1"/>
        <pt x="564" y="501" on="0"/>
        <pt x="570" y="611" on="1"/>
        <pt x="566" y="611" on="1"/>
        <pt x="515" y="464" on="1"/>
        <pt x="373" y="72" on="1"/>
        <pt x="333" y="72" on="1"/>
        <pt x="190" y="464" on="1"/>
        <pt x="138" y="611" on="1"/>
        <pt x="134" y="611" on="1"/>
        <pt x="140" y="446" on="0"/>
        <pt x="140" y="433" on="1"/>
        <pt x="140" y="0" on="1"/>
      </contour>
    </TTGlyph>
    <TTGlyph name="N" xMin="97" yMin="0" xMax="539" yMax="659">
      <contour>
        <pt x="97" y="0" on="1"/>
        <pt x="97" y="659" on="1"/>
        <pt x="145" y="659" on="1"/>
        <pt x="423" y="194" on="1"/>
        <pt x="497" y="63" on="1"/>
        <pt x="501" y="63" on="1"/>
        <pt x="495" y="255" on="1"/>
        <pt x="495" y="659" on="1"/>
        <pt x="539" y="659" on="1"/>
        <pt x="539" y="0" on="1"/>
        <pt x="491" y="0" on="1"/>
        <pt x="213" y="465" on="1"/>
        <pt x="139" y="596" on="1"/>
        <pt x="135" y="596" on="1"/>
        <pt x="136" y="575" on="0"/>
        <pt x="139" y="500" on="0"/>
        <pt x="141" y="437" on="0"/>
        <pt x="141" y="409" on="1"/>
        <pt x="141" y="0" on="1"/>
      </contour>
    </TTGlyph>
    <TTGlyph name="Ntilde" xMin="97" yMin="0" xMax="539" yMax="834">
      <contour>
        <pt x="97" y="0" on="1"/>
        <pt x="97" y="659" on="1"/>
        <pt x="145" y="659" on="1"/>
        <pt x="423" y="194" on="1"/>
        <pt x="497" y="63" on="1"/>
        <pt x="501" y="63" on="1"/>
        <pt x="495" y="255" on="1"/>
        <pt x="495" y="659" on="1"/>
        <pt x="539" y="659" on="1"/>
        <pt x="539" y="0" on="1"/>
        <pt x="491" y="0" on="1"/>
        <pt x="213" y="465" on="1"/>
        <pt x="139" y="596" on="1"/>
        <pt x="135" y="596" on="1"/>
        <pt x="136" y="575" on="0"/>
        <pt x="139" y="500" on="0"/>
        <pt x="141" y="437" on="0"/>
        <pt x="141" y="409" on="1"/>
        <pt x="141" y="0" on="1"/>
      </contour>
      <contour>
        <pt x="400" y="718" on="1"/>
        <pt x="374" y="718" on="0"/>
        <pt x="328" y="743" on="0"/>
        <pt x="301" y="772" on="0"/>
        <pt x="264" y="797" on="0"/>
        <pt x="246" y="797" on="1"/>
        <pt x="224" y="797" on="0"/>
        <pt x="194" y="756" on="0"/>
        <pt x="191" y="721" on="1"/>
        <pt x="158" y="724" on="1"/>
        <pt x="160" y="772" on="0"/>
        <pt x="207" y="834" on="0"/>
        <pt x="246" y="834" on="1"/>
        <pt x="272" y="834" on="0"/>
        <pt x="318" y="809" on="0"/>
        <pt x="345" y="780" on="0"/>
        <pt x="382" y="755" on="0"/>
        <pt x="400" y="755" on="1"/>
        <pt x="421" y="755" on="0"/>
        <pt x="450" y="796" on="0"/>
        <pt x="455" y="832" on="1"/>
        <pt x="488" y="829" on="1"/>
        <pt x="486" y="781" on="0"/>
        <pt x="439" y="718" on="0"/>
      </contour>
    </TTGlyph>
    <TTGlyph name="O" xMin="55" yMin="-12" xMax="598" yMax="671">
      <contour>
        <pt x="446" y="-12" on="0"/>
        <pt x="206" y="-12" on="0"/>
        <pt x="55" y="177" on="0"/>
        <pt x="55" y="332" on="1"/>
        <pt x="55" y="486" on="0"/>
        <pt x="206" y="671" on="0"/>
        <pt x="326" y="671" on="1"/>
        <pt x="447" y="671" on="0"/>
        <pt x="598" y="486" on="0"/>
        <pt x="598" y="332" on="1"/>
        <pt x="598" y="177" on="0"/>
      </contour>
      <contour>
        <pt x="225" y="30" on="0"/>
        <pt x="427" y="30" on="0"/>
        <pt x="549" y="195" on="0"/>
        <pt x="549" y="332" on="1"/>
        <pt x="549" y="468" on="0"/>
        <pt x="427" y="629" on="0"/>
        <pt x="225" y="629" on="0"/>
        <pt x="103" y="468" on="0"/>
        <pt x="103" y="332" on="1"/>
        <pt x="103" y="195" on="0"/>
      </contour>
    </TTGlyph>
    <TTGlyph name="OE" xMin="55" yMin="0" xMax="786" yMax="659">
      <contour>
        <pt x="367" y="0" on="1"/>
        <pt x="215" y="0" on="0"/>
        <pt x="55" y="178" on="0"/>
        <pt x="55" y="332" on="1"/>
        <pt x="55" y="485" on="0"/>
        <pt x="215" y="659" on="0"/>
        <pt x="368" y="659" on="1"/>
        <pt x="776" y="659" on="1"/>
        <pt x="776" y="619" on="1"/>
        <pt x="481" y="619" on="1"/>
        <pt x="481" y="370" on="1"/>
        <pt x="726" y="370" on="1"/>
        <pt x="726" y="330" on="1"/>
        <pt x="481" y="330" on="1"/>
        <pt x="481" y="40" on="1"/>
        <pt x="786" y="40" on="1"/>
        <pt x="786" y="0" on="1"/>
      </contour>
      <contour>
        <pt x="372" y="39" on="1"/>
        <pt x="435" y="39" on="1"/>
        <pt x="435" y="620" on="1"/>
        <pt x="372" y="620" on="1"/>
        <pt x="238" y="620" on="0"/>
        <pt x="103" y="466" on="0"/>
        <pt x="103" y="198" on="0"/>
        <pt x="239" y="39" on="0"/>
      </contour>
    </TTGlyph>
    <TTGlyph name="Oacute" xMin="55" yMin="-12" xMax="598" yMax="852">
      <contour>
        <pt x="446" y="-12" on="0"/>
        <pt x="206" y="-12" on="0"/>
        <pt x="55" y="177" on="0"/>
        <pt x="55" y="332" on="1"/>
        <pt x="55" y="486" on="0"/>
        <pt x="206" y="671" on="0"/>
        <pt x="326" y="671" on="1"/>
        <pt x="447" y="671" on="0"/>
        <pt x="598" y="486" on="0"/>
        <pt x="598" y="332" on="1"/>
        <pt x="598" y="177" on="0"/>
      </contour>
      <contour>
        <pt x="225" y="30" on="0"/>
        <pt x="427" y="30" on="0"/>
        <pt x="549" y="195" on="0"/>
        <pt x="549" y="332" on="1"/>
        <pt x="549" y="468" on="0"/>
        <pt x="427" y="629" on="0"/>
        <pt x="225" y="629" on="0"/>
        <pt x="103" y="468" on="0"/>
        <pt x="103" y="332" on="1"/>
        <pt x="103" y="195" on="0"/>
      </contour>
      <contour>
        <pt x="305" y="706" on="1"/>
        <pt x="285" y="729" on="1"/>
        <pt x="410" y="852" on="1"/>
        <pt x="438" y="819" on="1"/>
      </contour>
    </TTGlyph>
    <TTGlyph name="Ocircumflex" xMin="55" yMin="-12" xMax="598" yMax="839">
      <contour>
        <pt x="446" y="-12" on="0"/>
        <pt x="206" y="-12" on="0"/>
        <pt x="55" y="177" on="0"/>
        <pt x="55" y="332" on="1"/>
        <pt x="55" y="486" on="0"/>
        <pt x="206" y="671" on="0"/>
        <pt x="326" y="671" on="1"/>
        <pt x="447" y="671" on="0"/>
        <pt x="598" y="486" on="0"/>
        <pt x="598" y="332" on="1"/>
        <pt x="598" y="177" on="0"/>
      </contour>
      <contour>
        <pt x="225" y="30" on="0"/>
        <pt x="427" y="30" on="0"/>
        <pt x="549" y="195" on="0"/>
        <pt x="549" y="332" on="1"/>
        <pt x="549" y="468" on="0"/>
        <pt x="427" y="629" on="0"/>
        <pt x="225" y="629" on="0"/>
        <pt x="103" y="468" on="0"/>
        <pt x="103" y="332" on="1"/>
        <pt x="103" y="195" on="0"/>
      </contour>
      <contour>
        <pt x="191" y="726" on="1"/>
        <pt x="304" y="839" on="1"/>
        <pt x="348" y="839" on="1"/>
        <pt x="461" y="726" on="1"/>
        <pt x="441" y="707" on="1"/>
        <pt x="328" y="805" on="1"/>
        <pt x="324" y="805" on="1"/>
        <pt x="211" y="707" on="1"/>
      </contour>
    </TTGlyph>
    <TTGlyph name="Odieresis" xMin="55" yMin="-12" xMax="598" yMax="798">
      <contour>
        <pt x="446" y="-12" on="0"/>
        <pt x="206" y="-12" on="0"/>
        <pt x="55" y="177" on="0"/>
        <pt x="55" y="332" on="1"/>
        <pt x="55" y="486" on="0"/>
        <pt x="206" y="671" on="0"/>
        <pt x="326" y="671" on="1"/>
        <pt x="447" y="671" on="0"/>
        <pt x="598" y="486" on="0"/>
        <pt x="598" y="332" on="1"/>
        <pt x="598" y="177" on="0"/>
      </contour>
      <contour>
        <pt x="225" y="30" on="0"/>
        <pt x="427" y="30" on="0"/>
        <pt x="549" y="195" on="0"/>
        <pt x="549" y="332" on="1"/>
        <pt x="549" y="468" on="0"/>
        <pt x="427" y="629" on="0"/>
        <pt x="225" y="629" on="0"/>
        <pt x="103" y="468" on="0"/>
        <pt x="103" y="332" on="1"/>
        <pt x="103" y="195" on="0"/>
      </contour>
      <contour>
        <pt x="244" y="725" on="0"/>
        <pt x="212" y="725" on="0"/>
        <pt x="192" y="745" on="0"/>
        <pt x="192" y="761" on="1"/>
        <pt x="192" y="778" on="0"/>
        <pt x="212" y="798" on="0"/>
        <pt x="244" y="798" on="0"/>
        <pt x="265" y="778" on="0"/>
        <pt x="265" y="761" on="1"/>
        <pt x="265" y="745" on="0"/>
      </contour>
      <contour>
        <pt x="440" y="725" on="0"/>
        <pt x="408" y="725" on="0"/>
        <pt x="387" y="745" on="0"/>
        <pt x="387" y="761" on="1"/>
        <pt x="387" y="778" on="0"/>
        <pt x="408" y="798" on="0"/>
        <pt x="440" y="798" on="0"/>
        <pt x="460" y="778" on="0"/>
        <pt x="460" y="761" on="1"/>
        <pt x="460" y="745" on="0"/>
      </contour>
    </TTGlyph>
    <TTGlyph name="Ograve" xMin="55" yMin="-12" xMax="598" yMax="852">
      <contour>
        <pt x="446" y="-12" on="0"/>
        <pt x="206" y="-12" on="0"/>
        <pt x="55" y="177" on="0"/>
        <pt x="55" y="332" on="1"/>
        <pt x="55" y="486" on="0"/>
        <pt x="206" y="671" on="0"/>
        <pt x="326" y="671" on="1"/>
        <pt x="447" y="671" on="0"/>
        <pt x="598" y="486" on="0"/>
        <pt x="598" y="332" on="1"/>
        <pt x="598" y="177" on="0"/>
      </contour>
      <contour>
        <pt x="225" y="30" on="0"/>
        <pt x="427" y="30" on="0"/>
        <pt x="549" y="195" on="0"/>
        <pt x="549" y="332" on="1"/>
        <pt x="549" y="468" on="0"/>
        <pt x="427" y="629" on="0"/>
        <pt x="225" y="629" on="0"/>
        <pt x="103" y="468" on="0"/>
        <pt x="103" y="332" on="1"/>
        <pt x="103" y="195" on="0"/>
      </contour>
      <contour>
        <pt x="347" y="706" on="1"/>
        <pt x="214" y="819" on="1"/>
        <pt x="242" y="852" on="1"/>
        <pt x="367" y="729" on="1"/>
      </contour>
    </TTGlyph>
    <TTGlyph name="Oslash" xMin="56" yMin="-23" xMax="602" yMax="682">
      <contour>
        <pt x="84" y="-23" on="1"/>
        <pt x="56" y="-1" on="1"/>
        <pt x="566" y="682" on="1"/>
        <pt x="595" y="660" on="1"/>
      </contour>
      <contour>
        <pt x="450" y="-12" on="0"/>
        <pt x="210" y="-12" on="0"/>
        <pt x="59" y="177" on="0"/>
        <pt x="59" y="332" on="1"/>
        <pt x="59" y="486" on="0"/>
        <pt x="210" y="671" on="0"/>
        <pt x="330" y="671" on="1"/>
        <pt x="451" y="671" on="0"/>
        <pt x="602" y="486" on="0"/>
        <pt x="602" y="332" on="1"/>
        <pt x="602" y="177" on="0"/>
      </contour>
      <contour>
        <pt x="229" y="30" on="0"/>
        <pt x="431" y="30" on="0"/>
        <pt x="553" y="195" on="0"/>
        <pt x="553" y="332" on="1"/>
        <pt x="553" y="468" on="0"/>
        <pt x="431" y="629" on="0"/>
        <pt x="229" y="629" on="0"/>
        <pt x="107" y="468" on="0"/>
        <pt x="107" y="332" on="1"/>
        <pt x="107" y="195" on="0"/>
      </contour>
    </TTGlyph>
    <TTGlyph name="Otilde" xMin="55" yMin="-12" xMax="598" yMax="834">
      <contour>
        <pt x="446" y="-12" on="0"/>
        <pt x="206" y="-12" on="0"/>
        <pt x="55" y="177" on="0"/>
        <pt x="55" y="332" on="1"/>
        <pt x="55" y="486" on="0"/>
        <pt x="206" y="671" on="0"/>
        <pt x="326" y="671" on="1"/>
        <pt x="447" y="671" on="0"/>
        <pt x="598" y="486" on="0"/>
        <pt x="598" y="332" on="1"/>
        <pt x="598" y="177" on="0"/>
      </contour>
      <contour>
        <pt x="225" y="30" on="0"/>
        <pt x="427" y="30" on="0"/>
        <pt x="549" y="195" on="0"/>
        <pt x="549" y="332" on="1"/>
        <pt x="549" y="468" on="0"/>
        <pt x="427" y="629" on="0"/>
        <pt x="225" y="629" on="0"/>
        <pt x="103" y="468" on="0"/>
        <pt x="103" y="332" on="1"/>
        <pt x="103" y="195" on="0"/>
      </contour>
      <contour>
        <pt x="403" y="718" on="1"/>
        <pt x="377" y="718" on="0"/>
        <pt x="331" y="743" on="0"/>
        <pt x="304" y="772" on="0"/>
        <pt x="267" y="797" on="0"/>
        <pt x="249" y="797" on="1"/>
        <pt x="227" y="797" on="0"/>
        <pt x="197" y="756" on="0"/>
        <pt x="194" y="721" on="1"/>
        <pt x="161" y="724" on="1"/>
        <pt x="163" y="772" on="0"/>
        <pt x="210" y="834" on="0"/>
        <pt x="249" y="834" on="1"/>
        <pt x="275" y="834" on="0"/>
        <pt x="321" y="809" on="0"/>
        <pt x="348" y="780" on="0"/>
        <pt x="385" y="755" on="0"/>
        <pt x="403" y="755" on="1"/>
        <pt x="424" y="755" on="0"/>
        <pt x="453" y="796" on="0"/>
        <pt x="458" y="832" on="1"/>
        <pt x="491" y="829" on="1"/>
        <pt x="489" y="781" on="0"/>
        <pt x="442" y="718" on="0"/>
      </contour>
    </TTGlyph>
    <TTGlyph name="P" xMin="97" yMin="0" xMax="502" yMax="659">
      <contour>
        <pt x="97" y="0" on="1"/>
        <pt x="97" y="659" on="1"/>
        <pt x="263" y="659" on="1"/>
        <pt x="380" y="659" on="0"/>
        <pt x="502" y="573" on="0"/>
        <pt x="502" y="475" on="1"/>
        <pt x="502" y="380" on="0"/>
        <pt x="379" y="283" on="0"/>
        <pt x="267" y="283" on="1"/>
        <pt x="143" y="283" on="1"/>
        <pt x="143" y="0" on="1"/>
      </contour>
      <contour>
        <pt x="143" y="322" on="1"/>
        <pt x="256" y="322" on="1"/>
        <pt x="358" y="322" on="0"/>
        <pt x="455" y="395" on="0"/>
        <pt x="455" y="475" on="1"/>
        <pt x="455" y="556" on="0"/>
        <pt x="358" y="620" on="0"/>
        <pt x="252" y="620" on="1"/>
        <pt x="143" y="620" on="1"/>
      </contour>
    </TTGlyph>
    <TTGlyph name="Q" xMin="55" yMin="-156" xMax="600" yMax="671">
      <contour>
        <pt x="446" y="-12" on="0"/>
        <pt x="206" y="-12" on="0"/>
        <pt x="55" y="177" on="0"/>
        <pt x="55" y="332" on="1"/>
        <pt x="55" y="486" on="0"/>
        <pt x="206" y="671" on="0"/>
        <pt x="326" y="671" on="1"/>
        <pt x="447" y="671" on="0"/>
        <pt x="598" y="486" on="0"/>
        <pt x="598" y="332" on="1"/>
        <pt x="598" y="177" on="0"/>
      </contour>
      <contour>
        <pt x="225" y="27" on="0"/>
        <pt x="427" y="27" on="0"/>
        <pt x="549" y="194" on="0"/>
        <pt x="549" y="332" on="1"/>
        <pt x="549" y="468" on="0"/>
        <pt x="427" y="629" on="0"/>
        <pt x="225" y="629" on="0"/>
        <pt x="103" y="468" on="0"/>
        <pt x="103" y="332" on="1"/>
        <pt x="103" y="194" on="0"/>
      </contour>
      <contour>
        <pt x="519" y="-156" on="1"/>
        <pt x="435" y="-156" on="0"/>
        <pt x="320" y="-69" on="0"/>
        <pt x="296" y="1" on="1"/>
        <pt x="346" y="2" on="1"/>
        <pt x="390" y="-113" on="0"/>
        <pt x="523" y="-113" on="1"/>
        <pt x="556" y="-113" on="0"/>
        <pt x="590" y="-105" on="1"/>
        <pt x="600" y="-144" on="1"/>
        <pt x="559" y="-156" on="0"/>
      </contour>
    </TTGlyph>
    <TTGlyph name="R" xMin="97" yMin="0" xMax="515" yMax="659">
      <contour>
        <pt x="97" y="0" on="1"/>
        <pt x="97" y="659" on="1"/>
        <pt x="286" y="659" on="1"/>
        <pt x="502" y="659" on="0"/>
        <pt x="502" y="485" on="1"/>
        <pt x="502" y="397" on="0"/>
        <pt x="386" y="303" on="0"/>
        <pt x="286" y="303" on="1"/>
        <pt x="143" y="303" on="1"/>
        <pt x="143" y="0" on="1"/>
      </contour>
      <contour>
        <pt x="143" y="341" on="1"/>
        <pt x="274" y="341" on="1"/>
        <pt x="455" y="341" on="0"/>
        <pt x="455" y="485" on="1"/>
        <pt x="455" y="557" on="0"/>
        <pt x="364" y="620" on="0"/>
        <pt x="274" y="620" on="1"/>
        <pt x="143" y="620" on="1"/>
      </contour>
      <contour>
        <pt x="462" y="0" on="1"/>
        <pt x="275" y="316" on="1"/>
        <pt x="319" y="329" on="1"/>
        <pt x="515" y="0" on="1"/>
      </contour>
    </TTGlyph>
    <TTGlyph name="S" xMin="46" yMin="-12" xMax="480" yMax="671">
      <contour>
        <pt x="269" y="-12" on="1"/>
        <pt x="135" y="-12" on="0"/>
        <pt x="46" y="87" on="1"/>
        <pt x="76" y="119" on="1"/>
        <pt x="155" y="30" on="0"/>
        <pt x="269" y="30" on="1"/>
        <pt x="344" y="30" on="0"/>
        <pt x="433" y="103" on="0"/>
        <pt x="433" y="162" on="1"/>
        <pt x="433" y="192" on="0"/>
        <pt x="416" y="236" on="0"/>
        <pt x="378" y="268" on="0"/>
        <pt x="345" y="286" on="0"/>
        <pt x="315" y="300" on="1"/>
        <pt x="215" y="345" on="1"/>
        <pt x="188" y="357" on="0"/>
        <pt x="150" y="380" on="0"/>
        <pt x="105" y="418" on="0"/>
        <pt x="81" y="474" on="0"/>
        <pt x="81" y="509" on="1"/>
        <pt x="81" y="580" on="0"/>
        <pt x="190" y="671" on="0"/>
        <pt x="273" y="671" on="1"/>
        <pt x="383" y="671" on="0"/>
        <pt x="456" y="592" on="1"/>
        <pt x="430" y="562" on="1"/>
        <pt x="365" y="629" on="0"/>
        <pt x="273" y="629" on="1"/>
        <pt x="207" y="629" on="0"/>
        <pt x="127" y="565" on="0"/>
        <pt x="127" y="511" on="1"/>
        <pt x="127" y="484" on="0"/>
        <pt x="146" y="442" on="0"/>
        <pt x="188" y="411" on="0"/>
        <pt x="215" y="396" on="0"/>
        <pt x="241" y="384" on="1"/>
        <pt x="341" y="340" on="1"/>
        <pt x="408" y="310" on="0"/>
        <pt x="480" y="234" on="0"/>
        <pt x="480" y="165" on="1"/>
        <pt x="480" y="88" on="0"/>
        <pt x="364" y="-12" on="0"/>
      </contour>
    </TTGlyph>
    <TTGlyph name="T" xMin="29" yMin="0" xMax="495" yMax="659">
      <contour>
        <pt x="239" y="0" on="1"/>
        <pt x="239" y="619" on="1"/>
        <pt x="29" y="619" on="1"/>
        <pt x="29" y="659" on="1"/>
        <pt x="495" y="659" on="1"/>
        <pt x="495" y="619" on="1"/>
        <pt x="285" y="619" on="1"/>
        <pt x="285" y="0" on="1"/>
      </contour>
    </TTGlyph>
    <TTGlyph name="Thorn" xMin="97" yMin="0" xMax="512" yMax="659">
      <contour>
        <pt x="97" y="0" on="1"/>
        <pt x="97" y="659" on="1"/>
        <pt x="143" y="659" on="1"/>
        <pt x="143" y="542" on="1"/>
        <pt x="277" y="542" on="1"/>
        <pt x="392" y="542" on="0"/>
        <pt x="512" y="456" on="0"/>
        <pt x="512" y="358" on="1"/>
        <pt x="512" y="263" on="0"/>
        <pt x="389" y="166" on="0"/>
        <pt x="277" y="166" on="1"/>
        <pt x="143" y="166" on="1"/>
        <pt x="143" y="0" on="1"/>
      </contour>
      <contour>
        <pt x="143" y="205" on="1"/>
        <pt x="266" y="205" on="1"/>
        <pt x="368" y="205" on="0"/>
        <pt x="465" y="278" on="0"/>
        <pt x="465" y="438" on="0"/>
        <pt x="370" y="503" on="0"/>
        <pt x="266" y="503" on="1"/>
        <pt x="143" y="503" on="1"/>
      </contour>
    </TTGlyph>
    <TTGlyph name="U" xMin="95" yMin="-12" xMax="539" yMax="659">
      <contour>
        <pt x="316" y="-12" on="1"/>
        <pt x="271" y="-12" on="0"/>
        <pt x="196" y="14" on="0"/>
        <pt x="131" y="72" on="0"/>
        <pt x="95" y="179" on="0"/>
        <pt x="95" y="253" on="1"/>
        <pt x="95" y="659" on="1"/>
        <pt x="141" y="659" on="1"/>
        <pt x="141" y="258" on="1"/>
        <pt x="141" y="136" on="0"/>
        <pt x="238" y="30" on="0"/>
        <pt x="316" y="30" on="1"/>
        <pt x="396" y="30" on="0"/>
        <pt x="496" y="136" on="0"/>
        <pt x="496" y="258" on="1"/>
        <pt x="496" y="659" on="1"/>
        <pt x="539" y="659" on="1"/>
        <pt x="539" y="253" on="1"/>
        <pt x="539" y="179" on="0"/>
        <pt x="502" y="72" on="0"/>
        <pt x="437" y="14" on="0"/>
        <pt x="362" y="-12" on="0"/>
      </contour>
    </TTGlyph>
    <TTGlyph name="Uacute" xMin="95" yMin="-12" xMax="539" yMax="852">
      <contour>
        <pt x="316" y="-12" on="1"/>
        <pt x="271" y="-12" on="0"/>
        <pt x="196" y="14" on="0"/>
        <pt x="131" y="72" on="0"/>
        <pt x="95" y="179" on="0"/>
        <pt x="95" y="253" on="1"/>
        <pt x="95" y="659" on="1"/>
        <pt x="141" y="659" on="1"/>
        <pt x="141" y="258" on="1"/>
        <pt x="141" y="136" on="0"/>
        <pt x="238" y="30" on="0"/>
        <pt x="316" y="30" on="1"/>
        <pt x="396" y="30" on="0"/>
        <pt x="496" y="136" on="0"/>
        <pt x="496" y="258" on="1"/>
        <pt x="496" y="659" on="1"/>
        <pt x="539" y="659" on="1"/>
        <pt x="539" y="253" on="1"/>
        <pt x="539" y="179" on="0"/>
        <pt x="502" y="72" on="0"/>
        <pt x="437" y="14" on="0"/>
        <pt x="362" y="-12" on="0"/>
      </contour>
      <contour>
        <pt x="296" y="706" on="1"/>
        <pt x="276" y="729" on="1"/>
        <pt x="401" y="852" on="1"/>
        <pt x="429" y="819" on="1"/>
      </contour>
    </TTGlyph>
    <TTGlyph name="Ucircumflex" xMin="95" yMin="-12" xMax="539" yMax="839">
      <contour>
        <pt x="316" y="-12" on="1"/>
        <pt x="271" y="-12" on="0"/>
        <pt x="196" y="14" on="0"/>
        <pt x="131" y="72" on="0"/>
        <pt x="95" y="179" on="0"/>
        <pt x="95" y="253" on="1"/>
        <pt x="95" y="659" on="1"/>
        <pt x="141" y="659" on="1"/>
        <pt x="141" y="258" on="1"/>
        <pt x="141" y="136" on="0"/>
        <pt x="238" y="30" on="0"/>
        <pt x="316" y="30" on="1"/>
        <pt x="396" y="30" on="0"/>
        <pt x="496" y="136" on="0"/>
        <pt x="496" y="258" on="1"/>
        <pt x="496" y="659" on="1"/>
        <pt x="539" y="659" on="1"/>
        <pt x="539" y="253" on="1"/>
        <pt x="539" y="179" on="0"/>
        <pt x="502" y="72" on="0"/>
        <pt x="437" y="14" on="0"/>
        <pt x="362" y="-12" on="0"/>
      </contour>
      <contour>
        <pt x="182" y="726" on="1"/>
        <pt x="295" y="839" on="1"/>
        <pt x="339" y="839" on="1"/>
        <pt x="452" y="726" on="1"/>
        <pt x="432" y="707" on="1"/>
        <pt x="319" y="805" on="1"/>
        <pt x="315" y="805" on="1"/>
        <pt x="202" y="707" on="1"/>
      </contour>
    </TTGlyph>
    <TTGlyph name="Udieresis" xMin="95" yMin="-12" xMax="539" yMax="798">
      <contour>
        <pt x="316" y="-12" on="1"/>
        <pt x="271" y="-12" on="0"/>
        <pt x="196" y="14" on="0"/>
        <pt x="131" y="72" on="0"/>
        <pt x="95" y="179" on="0"/>
        <pt x="95" y="253" on="1"/>
        <pt x="95" y="659" on="1"/>
        <pt x="141" y="659" on="1"/>
        <pt x="141" y="258" on="1"/>
        <pt x="141" y="136" on="0"/>
        <pt x="238" y="30" on="0"/>
        <pt x="316" y="30" on="1"/>
        <pt x="396" y="30" on="0"/>
        <pt x="496" y="136" on="0"/>
        <pt x="496" y="258" on="1"/>
        <pt x="496" y="659" on="1"/>
        <pt x="539" y="659" on="1"/>
        <pt x="539" y="253" on="1"/>
        <pt x="539" y="179" on="0"/>
        <pt x="502" y="72" on="0"/>
        <pt x="437" y="14" on="0"/>
        <pt x="362" y="-12" on="0"/>
      </contour>
      <contour>
        <pt x="235" y="725" on="0"/>
        <pt x="203" y="725" on="0"/>
        <pt x="183" y="745" on="0"/>
        <pt x="183" y="761" on="1"/>
        <pt x="183" y="778" on="0"/>
        <pt x="203" y="798" on="0"/>
        <pt x="235" y="798" on="0"/>
        <pt x="256" y="778" on="0"/>
        <pt x="256" y="761" on="1"/>
        <pt x="256" y="745" on="0"/>
      </contour>
      <contour>
        <pt x="431" y="725" on="0"/>
        <pt x="399" y="725" on="0"/>
        <pt x="378" y="745" on="0"/>
        <pt x="378" y="761" on="1"/>
        <pt x="378" y="778" on="0"/>
        <pt x="399" y="798" on="0"/>
        <pt x="431" y="798" on="0"/>
        <pt x="451" y="778" on="0"/>
        <pt x="451" y="761" on="1"/>
        <pt x="451" y="745" on="0"/>
      </contour>
    </TTGlyph>
    <TTGlyph name="Ugrave" xMin="95" yMin="-12" xMax="539" yMax="852">
      <contour>
        <pt x="316" y="-12" on="1"/>
        <pt x="271" y="-12" on="0"/>
        <pt x="196" y="14" on="0"/>
        <pt x="131" y="72" on="0"/>
        <pt x="95" y="179" on="0"/>
        <pt x="95" y="253" on="1"/>
        <pt x="95" y="659" on="1"/>
        <pt x="141" y="659" on="1"/>
        <pt x="141" y="258" on="1"/>
        <pt x="141" y="136" on="0"/>
        <pt x="238" y="30" on="0"/>
        <pt x="316" y="30" on="1"/>
        <pt x="396" y="30" on="0"/>
        <pt x="496" y="136" on="0"/>
        <pt x="496" y="258" on="1"/>
        <pt x="496" y="659" on="1"/>
        <pt x="539" y="659" on="1"/>
        <pt x="539" y="253" on="1"/>
        <pt x="539" y="179" on="0"/>
        <pt x="502" y="72" on="0"/>
        <pt x="437" y="14" on="0"/>
        <pt x="362" y="-12" on="0"/>
      </contour>
      <contour>
        <pt x="338" y="706" on="1"/>
        <pt x="205" y="819" on="1"/>
        <pt x="233" y="852" on="1"/>
        <pt x="358" y="729" on="1"/>
      </contour>
    </TTGlyph>
    <TTGlyph name="V" xMin="4" yMin="0" xMax="487" yMax="659">
      <contour>
        <pt x="222" y="0" on="1"/>
        <pt x="4" y="659" on="1"/>
        <pt x="53" y="659" on="1"/>
        <pt x="175" y="274" on="1"/>
        <pt x="232" y="91" on="0"/>
        <pt x="245" y="53" on="1"/>
        <pt x="249" y="53" on="1"/>
        <pt x="261" y="89" on="0"/>
        <pt x="283" y="160" on="0"/>
        <pt x="309" y="246" on="0"/>
        <pt x="318" y="274" on="1"/>
        <pt x="440" y="659" on="1"/>
        <pt x="487" y="659" on="1"/>
        <pt x="271" y="0" on="1"/>
      </contour>
    </TTGlyph>
    <TTGlyph name="W" xMin="28" yMin="0" xMax="740" yMax="659">
      <contour>
        <pt x="178" y="0" on="1"/>
        <pt x="28" y="659" on="1"/>
        <pt x="76" y="659" on="1"/>
        <pt x="159" y="271" on="1"/>
        <pt x="189" y="127" on="0"/>
        <pt x="204" y="56" on="1"/>
        <pt x="208" y="56" on="1"/>
        <pt x="233" y="168" on="0"/>
        <pt x="259" y="271" on="1"/>
        <pt x="362" y="659" on="1"/>
        <pt x="409" y="659" on="1"/>
        <pt x="512" y="271" on="1"/>
        <pt x="521" y="235" on="0"/>
        <pt x="556" y="92" on="0"/>
        <pt x="565" y="56" on="1"/>
        <pt x="569" y="56" on="1"/>
        <pt x="577" y="92" on="0"/>
        <pt x="604" y="235" on="0"/>
        <pt x="612" y="271" on="1"/>
        <pt x="695" y="659" on="1"/>
        <pt x="740" y="659" on="1"/>
        <pt x="593" y="0" on="1"/>
        <pt x="542" y="0" on="1"/>
        <pt x="422" y="452" on="1"/>
        <pt x="419" y="467" on="0"/>
        <pt x="393" y="571" on="0"/>
        <pt x="387" y="601" on="1"/>
        <pt x="383" y="601" on="1"/>
        <pt x="377" y="573" on="0"/>
        <pt x="351" y="474" on="0"/>
        <pt x="346" y="452" on="1"/>
        <pt x="228" y="0" on="1"/>
      </contour>
    </TTGlyph>
    <TTGlyph name="X" xMin="17" yMin="0" xMax="465" yMax="659">
      <contour>
        <pt x="17" y="0" on="1"/>
        <pt x="215" y="341" on="1"/>
        <pt x="31" y="659" on="1"/>
        <pt x="81" y="659" on="1"/>
        <pt x="189" y="465" on="1"/>
        <pt x="243" y="375" on="1"/>
        <pt x="247" y="375" on="1"/>
        <pt x="284" y="444" on="0"/>
        <pt x="296" y="465" on="1"/>
        <pt x="404" y="659" on="1"/>
        <pt x="451" y="659" on="1"/>
        <pt x="267" y="339" on="1"/>
        <pt x="465" y="0" on="1"/>
        <pt x="415" y="0" on="1"/>
        <pt x="300" y="202" on="1"/>
        <pt x="280" y="239" on="0"/>
        <pt x="239" y="307" on="1"/>
        <pt x="235" y="307" on="1"/>
        <pt x="202" y="245" on="0"/>
        <pt x="179" y="202" on="1"/>
        <pt x="64" y="0" on="1"/>
      </contour>
    </TTGlyph>
    <TTGlyph name="Y" xMin="3" yMin="0" xMax="444" yMax="659">
      <contour>
        <pt x="200" y="0" on="1"/>
        <pt x="200" y="267" on="1"/>
        <pt x="3" y="659" on="1"/>
        <pt x="52" y="659" on="1"/>
        <pt x="152" y="453" on="1"/>
        <pt x="205" y="342" on="0"/>
        <pt x="222" y="311" on="1"/>
        <pt x="226" y="311" on="1"/>
        <pt x="281" y="418" on="0"/>
        <pt x="297" y="453" on="1"/>
        <pt x="397" y="659" on="1"/>
        <pt x="444" y="659" on="1"/>
        <pt x="246" y="267" on="1"/>
        <pt x="246" y="0" on="1"/>
      </contour>
    </TTGlyph>
    <TTGlyph name="Yacute" xMin="3" yMin="0" xMax="444" yMax="852">
      <contour>
        <pt x="200" y="0" on="1"/>
        <pt x="200" y="267" on="1"/>
        <pt x="3" y="659" on="1"/>
        <pt x="52" y="659" on="1"/>
        <pt x="152" y="453" on="1"/>
        <pt x="205" y="342" on="0"/>
        <pt x="222" y="311" on="1"/>
        <pt x="226" y="311" on="1"/>
        <pt x="281" y="418" on="0"/>
        <pt x="297" y="453" on="1"/>
        <pt x="397" y="659" on="1"/>
        <pt x="444" y="659" on="1"/>
        <pt x="246" y="267" on="1"/>
        <pt x="246" y="0" on="1"/>
      </contour>
      <contour>
        <pt x="202" y="706" on="1"/>
        <pt x="182" y="729" on="1"/>
        <pt x="307" y="852" on="1"/>
        <pt x="335" y="819" on="1"/>
      </contour>
    </TTGlyph>
    <TTGlyph name="Z" xMin="50" yMin="0" xMax="490" yMax="659">
      <contour>
        <pt x="50" y="0" on="1"/>
        <pt x="50" y="27" on="1"/>
        <pt x="429" y="619" on="1"/>
        <pt x="83" y="619" on="1"/>
        <pt x="83" y="659" on="1"/>
        <pt x="487" y="659" on="1"/>
        <pt x="487" y="632" on="1"/>
        <pt x="107" y="40" on="1"/>
        <pt x="490" y="40" on="1"/>
        <pt x="490" y="0" on="1"/>
      </contour>
    </TTGlyph>
    <TTGlyph name="a" xMin="58" yMin="-12" xMax="412" yMax="492">
      <contour>
        <pt x="197" y="-12" on="1"/>
        <pt x="136" y="-12" on="0"/>
        <pt x="58" y="55" on="0"/>
        <pt x="58" y="120" on="1"/>
        <pt x="58" y="199" on="0"/>
        <pt x="205" y="283" on="0"/>
        <pt x="368" y="301" on="1"/>
        <pt x="370" y="453" on="0"/>
        <pt x="254" y="453" on="1"/>
        <pt x="178" y="453" on="0"/>
        <pt x="101" y="397" on="1"/>
        <pt x="81" y="430" on="1"/>
        <pt x="169" y="492" on="0"/>
        <pt x="260" y="492" on="1"/>
        <pt x="340" y="492" on="0"/>
        <pt x="412" y="391" on="0"/>
        <pt x="412" y="307" on="1"/>
        <pt x="412" y="0" on="1"/>
        <pt x="374" y="0" on="1"/>
        <pt x="370" y="62" on="1"/>
        <pt x="367" y="62" on="1"/>
        <pt x="274" y="-12" on="0"/>
      </contour>
      <contour>
        <pt x="205" y="26" on="1"/>
        <pt x="276" y="26" on="0"/>
        <pt x="368" y="104" on="1"/>
        <pt x="368" y="267" on="1"/>
        <pt x="224" y="250" on="0"/>
        <pt x="103" y="181" on="0"/>
        <pt x="103" y="122" on="1"/>
        <pt x="103" y="73" on="0"/>
        <pt x="160" y="26" on="0"/>
      </contour>
    </TTGlyph>
    <TTGlyph name="aacute" xMin="58" yMin="-12" xMax="412" yMax="754">
      <contour>
        <pt x="197" y="-12" on="1"/>
        <pt x="136" y="-12" on="0"/>
        <pt x="58" y="55" on="0"/>
        <pt x="58" y="120" on="1"/>
        <pt x="58" y="199" on="0"/>
        <pt x="205" y="283" on="0"/>
        <pt x="368" y="301" on="1"/>
        <pt x="370" y="453" on="0"/>
        <pt x="254" y="453" on="1"/>
        <pt x="178" y="453" on="0"/>
        <pt x="101" y="397" on="1"/>
        <pt x="81" y="430" on="1"/>
        <pt x="169" y="492" on="0"/>
        <pt x="260" y="492" on="1"/>
        <pt x="340" y="492" on="0"/>
        <pt x="412" y="391" on="0"/>
        <pt x="412" y="307" on="1"/>
        <pt x="412" y="0" on="1"/>
        <pt x="374" y="0" on="1"/>
        <pt x="370" y="62" on="1"/>
        <pt x="367" y="62" on="1"/>
        <pt x="274" y="-12" on="0"/>
      </contour>
      <contour>
        <pt x="205" y="26" on="1"/>
        <pt x="276" y="26" on="0"/>
        <pt x="368" y="104" on="1"/>
        <pt x="368" y="267" on="1"/>
        <pt x="224" y="250" on="0"/>
        <pt x="103" y="181" on="0"/>
        <pt x="103" y="122" on="1"/>
        <pt x="103" y="73" on="0"/>
        <pt x="160" y="26" on="0"/>
      </contour>
      <contour>
        <pt x="226" y="574" on="1"/>
        <pt x="202" y="597" on="1"/>
        <pt x="336" y="754" on="1"/>
        <pt x="370" y="725" on="1"/>
      </contour>
    </TTGlyph>
    <TTGlyph name="acircumflex" xMin="58" yMin="-12" xMax="412" yMax="737">
      <contour>
        <pt x="197" y="-12" on="1"/>
        <pt x="136" y="-12" on="0"/>
        <pt x="58" y="55" on="0"/>
        <pt x="58" y="120" on="1"/>
        <pt x="58" y="199" on="0"/>
        <pt x="205" y="283" on="0"/>
        <pt x="368" y="301" on="1"/>
        <pt x="370" y="453" on="0"/>
        <pt x="254" y="453" on="1"/>
        <pt x="178" y="453" on="0"/>
        <pt x="101" y="397" on="1"/>
        <pt x="81" y="430" on="1"/>
        <pt x="169" y="492" on="0"/>
        <pt x="260" y="492" on="1"/>
        <pt x="340" y="492" on="0"/>
        <pt x="412" y="391" on="0"/>
        <pt x="412" y="307" on="1"/>
        <pt x="412" y="0" on="1"/>
        <pt x="374" y="0" on="1"/>
        <pt x="370" y="62" on="1"/>
        <pt x="367" y="62" on="1"/>
        <pt x="274" y="-12" on="0"/>
      </contour>
      <contour>
        <pt x="205" y="26" on="1"/>
        <pt x="276" y="26" on="0"/>
        <pt x="368" y="104" on="1"/>
        <pt x="368" y="267" on="1"/>
        <pt x="224" y="250" on="0"/>
        <pt x="103" y="181" on="0"/>
        <pt x="103" y="122" on="1"/>
        <pt x="103" y="73" on="0"/>
        <pt x="160" y="26" on="0"/>
      </contour>
      <contour>
        <pt x="117" y="593" on="1"/>
        <pt x="234" y="737" on="1"/>
        <pt x="276" y="737" on="1"/>
        <pt x="393" y="593" on="1"/>
        <pt x="371" y="572" on="1"/>
        <pt x="257" y="698" on="1"/>
        <pt x="253" y="698" on="1"/>
        <pt x="139" y="572" on="1"/>
      </contour>
    </TTGlyph>
    <TTGlyph name="acute" xMin="214" yMin="574" xMax="382" yMax="754">
      <contour>
        <pt x="238" y="574" on="1"/>
        <pt x="214" y="597" on="1"/>
        <pt x="348" y="754" on="1"/>
        <pt x="382" y="725" on="1"/>
      </contour>
    </TTGlyph>
    <TTGlyph name="adieresis" xMin="58" yMin="-12" xMax="412" yMax="672">
      <contour>
        <pt x="197" y="-12" on="1"/>
        <pt x="136" y="-12" on="0"/>
        <pt x="58" y="55" on="0"/>
        <pt x="58" y="120" on="1"/>
        <pt x="58" y="199" on="0"/>
        <pt x="205" y="283" on="0"/>
        <pt x="368" y="301" on="1"/>
        <pt x="370" y="453" on="0"/>
        <pt x="254" y="453" on="1"/>
        <pt x="178" y="453" on="0"/>
        <pt x="101" y="397" on="1"/>
        <pt x="81" y="430" on="1"/>
        <pt x="169" y="492" on="0"/>
        <pt x="260" y="492" on="1"/>
        <pt x="340" y="492" on="0"/>
        <pt x="412" y="391" on="0"/>
        <pt x="412" y="307" on="1"/>
        <pt x="412" y="0" on="1"/>
        <pt x="374" y="0" on="1"/>
        <pt x="370" y="62" on="1"/>
        <pt x="367" y="62" on="1"/>
        <pt x="274" y="-12" on="0"/>
      </contour>
      <contour>
        <pt x="205" y="26" on="1"/>
        <pt x="276" y="26" on="0"/>
        <pt x="368" y="104" on="1"/>
        <pt x="368" y="267" on="1"/>
        <pt x="224" y="250" on="0"/>
        <pt x="103" y="181" on="0"/>
        <pt x="103" y="122" on="1"/>
        <pt x="103" y="73" on="0"/>
        <pt x="160" y="26" on="0"/>
      </contour>
      <contour>
        <pt x="182" y="598" on="0"/>
        <pt x="150" y="598" on="0"/>
        <pt x="129" y="619" on="0"/>
        <pt x="129" y="651" on="0"/>
        <pt x="150" y="672" on="0"/>
        <pt x="182" y="672" on="0"/>
        <pt x="203" y="651" on="0"/>
        <pt x="203" y="619" on="0"/>
      </contour>
      <contour>
        <pt x="360" y="598" on="0"/>
        <pt x="328" y="598" on="0"/>
        <pt x="307" y="619" on="0"/>
        <pt x="307" y="651" on="0"/>
        <pt x="328" y="672" on="0"/>
        <pt x="360" y="672" on="0"/>
        <pt x="381" y="651" on="0"/>
        <pt x="381" y="619" on="0"/>
      </contour>
    </TTGlyph>
    <TTGlyph name="ae" xMin="65" yMin="-12" xMax="746" yMax="492">
      <contour>
        <pt x="205" y="-12" on="1"/>
        <pt x="144" y="-12" on="0"/>
        <pt x="65" y="55" on="0"/>
        <pt x="65" y="119" on="1"/>
        <pt x="65" y="198" on="0"/>
        <pt x="212" y="283" on="0"/>
        <pt x="370" y="301" on="1"/>
        <pt x="372" y="453" on="0"/>
        <pt x="257" y="453" on="1"/>
        <pt x="184" y="453" on="0"/>
        <pt x="109" y="397" on="1"/>
        <pt x="89" y="430" on="1"/>
        <pt x="177" y="492" on="0"/>
        <pt x="261" y="492" on="1"/>
        <pt x="318" y="492" on="0"/>
        <pt x="389" y="429" on="0"/>
        <pt x="401" y="372" on="1"/>
        <pt x="428" y="428" on="0"/>
        <pt x="516" y="492" on="0"/>
        <pt x="568" y="492" on="1"/>
        <pt x="652" y="492" on="0"/>
        <pt x="746" y="376" on="0"/>
        <pt x="746" y="270" on="1"/>
        <pt x="746" y="246" on="0"/>
        <pt x="744" y="234" on="1"/>
        <pt x="412" y="234" on="1"/>
        <pt x="412" y="144" on="0"/>
        <pt x="510" y="27" on="0"/>
        <pt x="583" y="27" on="1"/>
        <pt x="648" y="27" on="0"/>
        <pt x="708" y="70" on="1"/>
        <pt x="727" y="35" on="1"/>
        <pt x="702" y="20" on="0"/>
        <pt x="671" y="4" on="0"/>
        <pt x="612" y="-12" on="0"/>
        <pt x="579" y="-12" on="1"/>
        <pt x="478" y="-12" on="0"/>
        <pt x="407" y="87" on="1"/>
        <pt x="360" y="42" on="0"/>
        <pt x="250" y="-12" on="0"/>
      </contour>
      <contour>
        <pt x="212" y="26" on="1"/>
        <pt x="252" y="26" on="0"/>
        <pt x="351" y="76" on="0"/>
        <pt x="391" y="119" on="1"/>
        <pt x="370" y="162" on="0"/>
        <pt x="370" y="240" on="1"/>
        <pt x="369" y="267" on="1"/>
        <pt x="231" y="250" on="0"/>
        <pt x="111" y="181" on="0"/>
        <pt x="111" y="122" on="1"/>
        <pt x="111" y="73" on="0"/>
        <pt x="167" y="26" on="0"/>
      </contour>
      <contour>
        <pt x="412" y="268" on="1"/>
        <pt x="705" y="268" on="1"/>
        <pt x="705" y="359" on="0"/>
        <pt x="632" y="454" on="0"/>
        <pt x="567" y="454" on="1"/>
        <pt x="507" y="454" on="0"/>
        <pt x="419" y="350" on="0"/>
      </contour>
    </TTGlyph>
    <TTGlyph name="agrave" xMin="58" yMin="-12" xMax="412" yMax="754">
      <contour>
        <pt x="197" y="-12" on="1"/>
        <pt x="136" y="-12" on="0"/>
        <pt x="58" y="55" on="0"/>
        <pt x="58" y="120" on="1"/>
        <pt x="58" y="199" on="0"/>
        <pt x="205" y="283" on="0"/>
        <pt x="368" y="301" on="1"/>
        <pt x="370" y="453" on="0"/>
        <pt x="254" y="453" on="1"/>
        <pt x="178" y="453" on="0"/>
        <pt x="101" y="397" on="1"/>
        <pt x="81" y="430" on="1"/>
        <pt x="169" y="492" on="0"/>
        <pt x="260" y="492" on="1"/>
        <pt x="340" y="492" on="0"/>
        <pt x="412" y="391" on="0"/>
        <pt x="412" y="307" on="1"/>
        <pt x="412" y="0" on="1"/>
        <pt x="374" y="0" on="1"/>
        <pt x="370" y="62" on="1"/>
        <pt x="367" y="62" on="1"/>
        <pt x="274" y="-12" on="0"/>
      </contour>
      <contour>
        <pt x="205" y="26" on="1"/>
        <pt x="276" y="26" on="0"/>
        <pt x="368" y="104" on="1"/>
        <pt x="368" y="267" on="1"/>
        <pt x="224" y="250" on="0"/>
        <pt x="103" y="181" on="0"/>
        <pt x="103" y="122" on="1"/>
        <pt x="103" y="73" on="0"/>
        <pt x="160" y="26" on="0"/>
      </contour>
      <contour>
        <pt x="284" y="574" on="1"/>
        <pt x="140" y="725" on="1"/>
        <pt x="174" y="754" on="1"/>
        <pt x="308" y="597" on="1"/>
      </contour>
    </TTGlyph>
    <TTGlyph name="ampersand" xMin="36" yMin="-12" xMax="562" yMax="671">
      <contour>
        <pt x="226" y="-12" on="1"/>
        <pt x="145" y="-12" on="0"/>
        <pt x="36" y="87" on="0"/>
        <pt x="36" y="167" on="1"/>
        <pt x="36" y="210" on="0"/>
        <pt x="80" y="288" on="0"/>
        <pt x="146" y="342" on="0"/>
        <pt x="223" y="400" on="0"/>
        <pt x="289" y="449" on="0"/>
        <pt x="333" y="514" on="0"/>
        <pt x="333" y="549" on="1"/>
        <pt x="333" y="585" on="0"/>
        <pt x="298" y="635" on="0"/>
        <pt x="261" y="635" on="1"/>
        <pt x="219" y="635" on="0"/>
        <pt x="168" y="572" on="0"/>
        <pt x="168" y="526" on="1"/>
        <pt x="168" y="431" on="0"/>
        <pt x="321" y="197" on="0"/>
        <pt x="421" y="114" on="1"/>
        <pt x="494" y="51" on="0"/>
        <pt x="562" y="27" on="1"/>
        <pt x="547" y="-12" on="1"/>
        <pt x="474" y="14" on="0"/>
        <pt x="394" y="81" on="1"/>
        <pt x="286" y="175" on="0"/>
        <pt x="127" y="422" on="0"/>
        <pt x="127" y="524" on="1"/>
        <pt x="127" y="588" on="0"/>
        <pt x="203" y="671" on="0"/>
        <pt x="263" y="671" on="1"/>
        <pt x="315" y="671" on="0"/>
        <pt x="373" y="604" on="0"/>
        <pt x="373" y="551" on="1"/>
        <pt x="373" y="506" on="0"/>
        <pt x="313" y="423" on="0"/>
        <pt x="227" y="358" on="0"/>
        <pt x="141" y="294" on="0"/>
        <pt x="81" y="213" on="0"/>
        <pt x="81" y="170" on="1"/>
        <pt x="81" y="106" on="0"/>
        <pt x="168" y="26" on="0"/>
        <pt x="230" y="26" on="1"/>
        <pt x="314" y="26" on="0"/>
        <pt x="389" y="110" on="1"/>
        <pt x="469" y="200" on="0"/>
        <pt x="508" y="345" on="1"/>
        <pt x="551" y="345" on="1"/>
        <pt x="506" y="187" on="0"/>
        <pt x="421" y="86" on="1"/>
        <pt x="332" y="-12" on="0"/>
      </contour>
    </TTGlyph>
    <TTGlyph name="ar1Dot.above" xMin="-25" yMin="-25" xMax="25" yMax="25">
      <contour>
        <pt x="-25" y="10" on="0"/>
        <pt x="-25" y="-10" on="0"/>
        <pt x="-10" y="-25" on="0"/>
        <pt x="10" y="-25" on="0"/>
        <pt x="25" y="-10" on="0"/>
        <pt x="25" y="10" on="0"/>
        <pt x="10" y="25" on="0"/>
        <pt x="-10" y="25" on="0"/>
      </contour>
    </TTGlyph>
    <TTGlyph name="ar1Dot.below" xMin="-25" yMin="-25" xMax="25" yMax="25">
      <contour>
        <pt x="-25" y="10" on="0"/>
        <pt x="-25" y="-10" on="0"/>
        <pt x="-10" y="-25" on="0"/>
        <pt x="10" y="-25" on="0"/>
        <pt x="25" y="-10" on="0"/>
        <pt x="25" y="10" on="0"/>
        <pt x="10" y="25" on="0"/>
        <pt x="-10" y="25" on="0"/>
      </contour>
    </TTGlyph>
    <TTGlyph name="ar2Dot.above" xMin="-103" yMin="-25" xMax="103" yMax="25">
      <contour>
        <pt x="-103" y="10" on="0"/>
        <pt x="-103" y="-10" on="0"/>
        <pt x="-88" y="-25" on="0"/>
        <pt x="-68" y="-25" on="0"/>
        <pt x="-53" y="-10" on="0"/>
        <pt x="-53" y="10" on="0"/>
        <pt x="-68" y="25" on="0"/>
        <pt x="-88" y="25" on="0"/>
      </contour>
      <contour>
        <pt x="53" y="10" on="0"/>
        <pt x="53" y="-10" on="0"/>
        <pt x="68" y="-25" on="0"/>
        <pt x="88" y="-25" on="0"/>
        <pt x="103" y="-10" on="0"/>
        <pt x="103" y="10" on="0"/>
        <pt x="88" y="25" on="0"/>
        <pt x="68" y="25" on="0"/>
      </contour>
    </TTGlyph>
    <TTGlyph name="ar2Dot.below" xMin="-103" yMin="-25" xMax="103" yMax="25">
      <contour>
        <pt x="-103" y="10" on="0"/>
        <pt x="-103" y="-10" on="0"/>
        <pt x="-88" y="-25" on="0"/>
        <pt x="-68" y="-25" on="0"/>
        <pt x="-53" y="-10" on="0"/>
        <pt x="-53" y="10" on="0"/>
        <pt x="-68" y="25" on="0"/>
        <pt x="-88" y="25" on="0"/>
      </contour>
      <contour>
        <pt x="53" y="10" on="0"/>
        <pt x="53" y="-10" on="0"/>
        <pt x="68" y="-25" on="0"/>
        <pt x="88" y="-25" on="0"/>
        <pt x="103" y="-10" on="0"/>
        <pt x="103" y="10" on="0"/>
        <pt x="88" y="25" on="0"/>
        <pt x="68" y="25" on="0"/>
      </contour>
    </TTGlyph>
    <TTGlyph name="ar3Dot.above" xMin="-103" yMin="-25" xMax="103" yMax="135">
      <contour>
        <pt x="-103" y="10" on="0"/>
        <pt x="-103" y="-10" on="0"/>
        <pt x="-88" y="-25" on="0"/>
        <pt x="-68" y="-25" on="0"/>
        <pt x="-53" y="-10" on="0"/>
        <pt x="-53" y="10" on="0"/>
        <pt x="-68" y="25" on="0"/>
        <pt x="-88" y="25" on="0"/>
      </contour>
      <contour>
        <pt x="53" y="10" on="0"/>
        <pt x="53" y="-10" on="0"/>
        <pt x="68" y="-25" on="0"/>
        <pt x="88" y="-25" on="0"/>
        <pt x="103" y="-10" on="0"/>
        <pt x="103" y="10" on="0"/>
        <pt x="88" y="25" on="0"/>
        <pt x="68" y="25" on="0"/>
      </contour>
      <contour>
        <pt x="-25" y="120" on="0"/>
        <pt x="-25" y="100" on="0"/>
        <pt x="-10" y="85" on="0"/>
        <pt x="10" y="85" on="0"/>
        <pt x="25" y="100" on="0"/>
        <pt x="25" y="120" on="0"/>
        <pt x="10" y="135" on="0"/>
        <pt x="-10" y="135" on="0"/>
      </contour>
    </TTGlyph>
    <TTGlyph name="ar3IDot.below" xMin="-103" yMin="-135" xMax="103" yMax="25">
      <contour>
        <pt x="-25" y="-100" on="0"/>
        <pt x="-25" y="-120" on="0"/>
        <pt x="-10" y="-135" on="0"/>
        <pt x="10" y="-135" on="0"/>
        <pt x="25" y="-120" on="0"/>
        <pt x="25" y="-100" on="0"/>
        <pt x="10" y="-85" on="0"/>
        <pt x="-10" y="-85" on="0"/>
      </contour>
      <contour>
        <pt x="-103" y="10" on="0"/>
        <pt x="-103" y="-10" on="0"/>
        <pt x="-88" y="-25" on="0"/>
        <pt x="-68" y="-25" on="0"/>
        <pt x="-53" y="-10" on="0"/>
        <pt x="-53" y="10" on="0"/>
        <pt x="-68" y="25" on="0"/>
        <pt x="-88" y="25" on="0"/>
      </contour>
      <contour>
        <pt x="53" y="10" on="0"/>
        <pt x="53" y="-10" on="0"/>
        <pt x="68" y="-25" on="0"/>
        <pt x="88" y="-25" on="0"/>
        <pt x="103" y="-10" on="0"/>
        <pt x="103" y="10" on="0"/>
        <pt x="88" y="25" on="0"/>
        <pt x="68" y="25" on="0"/>
      </contour>
    </TTGlyph>
    <TTGlyph name="arAin.fina" xMin="40" yMin="-272" xMax="386" yMax="282">
      <contour>
        <pt x="386" y="-240" on="1"/>
        <pt x="98" y="-240" on="1"/>
        <pt x="87" y="-240" on="0"/>
        <pt x="72" y="-223" on="0"/>
        <pt x="72" y="-209" on="1"/>
        <pt x="72" y="-32" on="1"/>
        <pt x="73" y="0" on="0"/>
        <pt x="100" y="0" on="1"/>
        <pt x="386" y="0" on="1"/>
        <pt x="386" y="32" on="1"/>
        <pt x="100" y="32" on="1"/>
        <pt x="71" y="32" on="0"/>
        <pt x="41" y="-6" on="0"/>
        <pt x="40" y="-32" on="1"/>
        <pt x="40" y="-209" on="1"/>
        <pt x="40" y="-235" on="0"/>
        <pt x="73" y="-272" on="0"/>
        <pt x="98" y="-272" on="1"/>
        <pt x="386" y="-272" on="1"/>
      </contour>
      <contour>
        <pt x="353" y="234" on="1"/>
        <pt x="325" y="245" on="0"/>
        <pt x="303" y="251" on="1"/>
        <pt x="197" y="282" on="0"/>
        <pt x="147" y="235" on="1"/>
        <pt x="109" y="201" on="0"/>
        <pt x="140" y="78" on="0"/>
        <pt x="206" y="6" on="1"/>
        <pt x="230" y="28" on="1"/>
        <pt x="188" y="73" on="0"/>
        <pt x="150" y="152" on="0"/>
        <pt x="153" y="198" on="0"/>
        <pt x="168" y="212" on="1"/>
        <pt x="204" y="246" on="0"/>
        <pt x="295" y="221" on="1"/>
        <pt x="310" y="217" on="0"/>
        <pt x="341" y="204" on="1"/>
      </contour>
    </TTGlyph>
    <TTGlyph name="arAin.init" xMin="0" yMin="0" xMax="468" yMax="347">
      <contour>
        <pt x="0" y="0" on="1"/>
        <pt x="468" y="0" on="1"/>
        <pt x="468" y="32" on="1"/>
        <pt x="0" y="32" on="1"/>
      </contour>
      <contour>
        <pt x="423" y="285" on="1"/>
        <pt x="217" y="347" on="0"/>
        <pt x="145" y="272" on="1"/>
        <pt x="105" y="229" on="0"/>
        <pt x="150" y="93" on="0"/>
        <pt x="230" y="16" on="1"/>
        <pt x="252" y="38" on="1"/>
        <pt x="214" y="75" on="0"/>
        <pt x="166" y="143" on="0"/>
        <pt x="150" y="196" on="0"/>
        <pt x="155" y="237" on="0"/>
        <pt x="168" y="250" on="1"/>
        <pt x="193" y="276" on="0"/>
        <pt x="313" y="282" on="0"/>
        <pt x="413" y="255" on="1"/>
      </contour>
    </TTGlyph>
    <TTGlyph name="arAin.isol" xMin="40" yMin="-272" xMax="386" yMax="282">
      <contour>
        <pt x="386" y="-240" on="1"/>
        <pt x="98" y="-240" on="1"/>
        <pt x="87" y="-240" on="0"/>
        <pt x="72" y="-223" on="0"/>
        <pt x="72" y="-209" on="1"/>
        <pt x="72" y="-32" on="1"/>
        <pt x="73" y="0" on="0"/>
        <pt x="100" y="0" on="1"/>
        <pt x="386" y="0" on="1"/>
        <pt x="386" y="32" on="1"/>
        <pt x="100" y="32" on="1"/>
        <pt x="71" y="32" on="0"/>
        <pt x="41" y="-6" on="0"/>
        <pt x="40" y="-32" on="1"/>
        <pt x="40" y="-209" on="1"/>
        <pt x="40" y="-235" on="0"/>
        <pt x="73" y="-272" on="0"/>
        <pt x="98" y="-272" on="1"/>
        <pt x="386" y="-272" on="1"/>
      </contour>
      <contour>
        <pt x="353" y="234" on="1"/>
        <pt x="325" y="245" on="0"/>
        <pt x="303" y="251" on="1"/>
        <pt x="197" y="282" on="0"/>
        <pt x="147" y="235" on="1"/>
        <pt x="109" y="201" on="0"/>
        <pt x="140" y="78" on="0"/>
        <pt x="206" y="6" on="1"/>
        <pt x="230" y="28" on="1"/>
        <pt x="188" y="73" on="0"/>
        <pt x="150" y="152" on="0"/>
        <pt x="153" y="198" on="0"/>
        <pt x="168" y="212" on="1"/>
        <pt x="204" y="246" on="0"/>
        <pt x="295" y="221" on="1"/>
        <pt x="310" y="217" on="0"/>
        <pt x="341" y="204" on="1"/>
      </contour>
    </TTGlyph>
    <TTGlyph name="arAin.medi" xMin="0" yMin="0" xMax="468" yMax="347">
      <contour>
        <pt x="0" y="0" on="1"/>
        <pt x="468" y="0" on="1"/>
        <pt x="468" y="32" on="1"/>
        <pt x="0" y="32" on="1"/>
      </contour>
      <contour>
        <pt x="423" y="285" on="1"/>
        <pt x="217" y="347" on="0"/>
        <pt x="145" y="272" on="1"/>
        <pt x="105" y="229" on="0"/>
        <pt x="150" y="93" on="0"/>
        <pt x="230" y="16" on="1"/>
        <pt x="252" y="38" on="1"/>
        <pt x="214" y="75" on="0"/>
        <pt x="166" y="143" on="0"/>
        <pt x="150" y="196" on="0"/>
        <pt x="155" y="237" on="0"/>
        <pt x="168" y="250" on="1"/>
        <pt x="193" y="276" on="0"/>
        <pt x="313" y="282" on="0"/>
        <pt x="413" y="255" on="1"/>
      </contour>
    </TTGlyph>
    <TTGlyph name="arAlef.fina" xMin="40" yMin="0" xMax="196" yMax="624">
      <contour>
        <pt x="72" y="624" on="1"/>
        <pt x="72" y="70" on="1"/>
        <pt x="72" y="54" on="0"/>
        <pt x="92" y="32" on="0"/>
        <pt x="109" y="32" on="1"/>
        <pt x="196" y="32" on="1"/>
        <pt x="196" y="0" on="1"/>
        <pt x="109" y="0" on="1"/>
        <pt x="78" y="0" on="0"/>
        <pt x="40" y="43" on="0"/>
        <pt x="40" y="70" on="1"/>
        <pt x="40" y="624" on="1"/>
      </contour>
    </TTGlyph>
    <TTGlyph name="arAlef.fina.1" xMin="106" yMin="25" xMax="267" yMax="647">
      <contour>
        <pt x="106" y="639" on="1"/>
        <pt x="237" y="190" on="1"/>
        <pt x="267" y="198" on="1"/>
        <pt x="136" y="647" on="1"/>
      </contour>
      <contour>
        <pt x="235" y="198" on="1"/>
        <pt x="237" y="98" on="0"/>
        <pt x="107" y="25" on="1"/>
        <pt x="129" y="25" on="1"/>
        <pt x="248" y="92" on="0"/>
        <pt x="267" y="198" on="1"/>
      </contour>
    </TTGlyph>
    <TTGlyph name="arAlef.isol" xMin="80" yMin="1" xMax="112" yMax="624">
      <contour>
        <pt x="80" y="624" on="1"/>
        <pt x="80" y="1" on="1"/>
        <pt x="95" y="1" on="0"/>
        <pt x="112" y="21" on="0"/>
        <pt x="112" y="33" on="1"/>
        <pt x="112" y="624" on="1"/>
      </contour>
    </TTGlyph>
    <TTGlyph name="arBeh.fina" xMin="40" yMin="0" xMax="634" yMax="263">
      <contour>
        <pt x="602" y="263" on="1"/>
        <pt x="602" y="68" on="1"/>
        <pt x="602" y="56" on="0"/>
        <pt x="578" y="32" on="0"/>
        <pt x="566" y="32" on="1"/>
        <pt x="174" y="32" on="1"/>
        <pt x="132" y="32" on="0"/>
        <pt x="72" y="86" on="0"/>
        <pt x="72" y="123" on="1"/>
        <pt x="72" y="263" on="1"/>
        <pt x="40" y="263" on="1"/>
        <pt x="40" y="123" on="1"/>
        <pt x="40" y="71" on="0"/>
        <pt x="120" y="0" on="0"/>
        <pt x="174" y="0" on="1"/>
        <pt x="566" y="0" on="1"/>
        <pt x="592" y="0" on="0"/>
        <pt x="634" y="41" on="0"/>
        <pt x="634" y="68" on="1"/>
        <pt x="634" y="263" on="1"/>
      </contour>
    </TTGlyph>
    <TTGlyph name="arBeh.init" xMin="0" yMin="0" xMax="358" yMax="340">
      <contour>
        <pt x="326" y="340" on="1"/>
        <pt x="326" y="67" on="1"/>
        <pt x="326" y="52" on="0"/>
        <pt x="306" y="32" on="0"/>
        <pt x="289" y="32" on="1"/>
        <pt x="0" y="32" on="1"/>
        <pt x="0" y="0" on="1"/>
        <pt x="289" y="0" on="1"/>
        <pt x="318" y="0" on="0"/>
        <pt x="358" y="39" on="0"/>
        <pt x="358" y="67" on="1"/>
        <pt x="358" y="340" on="1"/>
      </contour>
    </TTGlyph>
    <TTGlyph name="arBeh.isol" xMin="40" yMin="0" xMax="634" yMax="263">
      <contour>
        <pt x="602" y="263" on="1"/>
        <pt x="602" y="68" on="1"/>
        <pt x="602" y="56" on="0"/>
        <pt x="578" y="32" on="0"/>
        <pt x="566" y="32" on="1"/>
        <pt x="174" y="32" on="1"/>
        <pt x="132" y="32" on="0"/>
        <pt x="72" y="86" on="0"/>
        <pt x="72" y="123" on="1"/>
        <pt x="72" y="263" on="1"/>
        <pt x="40" y="263" on="1"/>
        <pt x="40" y="123" on="1"/>
        <pt x="40" y="71" on="0"/>
        <pt x="120" y="0" on="0"/>
        <pt x="174" y="0" on="1"/>
        <pt x="566" y="0" on="1"/>
        <pt x="592" y="0" on="0"/>
        <pt x="634" y="41" on="0"/>
        <pt x="634" y="68" on="1"/>
        <pt x="634" y="263" on="1"/>
      </contour>
    </TTGlyph>
    <TTGlyph name="arBeh.medi" xMin="0" yMin="0" xMax="358" yMax="340">
      <contour>
        <pt x="326" y="340" on="1"/>
        <pt x="326" y="67" on="1"/>
        <pt x="326" y="52" on="0"/>
        <pt x="306" y="32" on="0"/>
        <pt x="289" y="32" on="1"/>
        <pt x="0" y="32" on="1"/>
        <pt x="0" y="0" on="1"/>
        <pt x="289" y="0" on="1"/>
        <pt x="318" y="0" on="0"/>
        <pt x="358" y="39" on="0"/>
        <pt x="358" y="67" on="1"/>
        <pt x="358" y="340" on="1"/>
      </contour>
    </TTGlyph>
    <TTGlyph name="arDal.fina" xMin="40" yMin="0" xMax="373" yMax="308">
      <contour>
        <pt x="163" y="280" on="1"/>
        <pt x="197" y="263" on="0"/>
        <pt x="247" y="231" on="0"/>
        <pt x="304" y="180" on="0"/>
        <pt x="338" y="110" on="0"/>
        <pt x="340" y="68" on="1"/>
        <pt x="340" y="32" on="0"/>
        <pt x="304" y="32" on="1"/>
        <pt x="40" y="32" on="1"/>
        <pt x="40" y="0" on="1"/>
        <pt x="304" y="0" on="1"/>
        <pt x="338" y="0" on="0"/>
        <pt x="373" y="43" on="0"/>
        <pt x="372" y="68" on="1"/>
        <pt x="371" y="116" on="0"/>
        <pt x="332" y="198" on="0"/>
        <pt x="263" y="257" on="0"/>
        <pt x="211" y="291" on="0"/>
        <pt x="177" y="308" on="1"/>
      </contour>
    </TTGlyph>
    <TTGlyph name="arDal.isol" xMin="40" yMin="0" xMax="373" yMax="308">
      <contour>
        <pt x="163" y="280" on="1"/>
        <pt x="197" y="263" on="0"/>
        <pt x="247" y="231" on="0"/>
        <pt x="304" y="180" on="0"/>
        <pt x="338" y="110" on="0"/>
        <pt x="340" y="68" on="1"/>
        <pt x="340" y="32" on="0"/>
        <pt x="304" y="32" on="1"/>
        <pt x="40" y="32" on="1"/>
        <pt x="40" y="0" on="1"/>
        <pt x="304" y="0" on="1"/>
        <pt x="338" y="0" on="0"/>
        <pt x="373" y="43" on="0"/>
        <pt x="372" y="68" on="1"/>
        <pt x="371" y="116" on="0"/>
        <pt x="332" y="198" on="0"/>
        <pt x="263" y="257" on="0"/>
        <pt x="211" y="291" on="0"/>
        <pt x="177" y="308" on="1"/>
      </contour>
    </TTGlyph>
    <TTGlyph name="arFeh.fina" xMin="40" yMin="-199" xMax="830" yMax="307">
      <contour>
        <pt x="686" y="155" on="1"/>
        <pt x="686" y="-129" on="1"/>
        <pt x="686" y="-144" on="0"/>
        <pt x="665" y="-167" on="0"/>
        <pt x="647" y="-167" on="1"/>
        <pt x="155" y="-167" on="1"/>
        <pt x="117" y="-167" on="0"/>
        <pt x="72" y="-125" on="0"/>
        <pt x="72" y="-89" on="1"/>
        <pt x="72" y="63" on="1"/>
        <pt x="40" y="63" on="1"/>
        <pt x="40" y="-89" on="1"/>
        <pt x="40" y="-138" on="0"/>
        <pt x="106" y="-199" on="0"/>
        <pt x="155" y="-199" on="1"/>
        <pt x="647" y="-199" on="1"/>
        <pt x="678" y="-199" on="0"/>
        <pt x="718" y="-157" on="0"/>
        <pt x="718" y="-129" on="1"/>
        <pt x="718" y="155" on="1"/>
        <pt x="718" y="200" on="0"/>
        <pt x="697" y="234" on="1"/>
        <pt x="663" y="287" on="0"/>
        <pt x="524" y="307" on="0"/>
        <pt x="479" y="275" on="1"/>
        <pt x="434" y="246" on="0"/>
        <pt x="400" y="132" on="0"/>
        <pt x="430" y="73" on="1"/>
        <pt x="462" y="19" on="0"/>
        <pt x="563" y="-3" on="0"/>
        <pt x="698" y="0" on="1"/>
        <pt x="830" y="0" on="1"/>
        <pt x="830" y="32" on="1"/>
        <pt x="693" y="32" on="1"/>
        <pt x="567" y="30" on="0"/>
        <pt x="483" y="47" on="0"/>
        <pt x="458" y="89" on="1"/>
        <pt x="434" y="133" on="0"/>
        <pt x="462" y="226" on="0"/>
        <pt x="497" y="249" on="1"/>
        <pt x="534" y="275" on="0"/>
        <pt x="645" y="257" on="0"/>
        <pt x="670" y="217" on="1"/>
        <pt x="686" y="191" on="0"/>
      </contour>
    </TTGlyph>
    <TTGlyph name="arFeh.init" xMin="0" yMin="0" xMax="423" yMax="447">
      <contour>
        <pt x="0" y="32" on="1"/>
        <pt x="0" y="0" on="1"/>
        <pt x="352" y="0" on="1"/>
        <pt x="383" y="0" on="0"/>
        <pt x="423" y="42" on="0"/>
        <pt x="423" y="70" on="1"/>
        <pt x="423" y="295" on="1"/>
        <pt x="423" y="340" on="0"/>
        <pt x="402" y="374" on="1"/>
        <pt x="368" y="427" on="0"/>
        <pt x="229" y="447" on="0"/>
        <pt x="184" y="415" on="1"/>
        <pt x="139" y="386" on="0"/>
        <pt x="105" y="272" on="0"/>
        <pt x="135" y="213" on="1"/>
        <pt x="155" y="180" on="0"/>
        <pt x="216" y="143" on="0"/>
        <pt x="301" y="137" on="0"/>
        <pt x="357" y="140" on="0"/>
        <pt x="405" y="146" on="1"/>
        <pt x="405" y="178" on="1"/>
        <pt x="365" y="174" on="0"/>
        <pt x="333" y="171" on="0"/>
        <pt x="271" y="168" on="0"/>
        <pt x="241" y="175" on="0"/>
        <pt x="200" y="187" on="0"/>
        <pt x="174" y="211" on="0"/>
        <pt x="163" y="229" on="1"/>
        <pt x="139" y="273" on="0"/>
        <pt x="167" y="366" on="0"/>
        <pt x="202" y="389" on="1"/>
        <pt x="239" y="415" on="0"/>
        <pt x="350" y="397" on="0"/>
        <pt x="375" y="357" on="1"/>
        <pt x="391" y="331" on="0"/>
        <pt x="391" y="295" on="1"/>
        <pt x="391" y="70" on="1"/>
        <pt x="391" y="55" on="0"/>
        <pt x="370" y="32" on="0"/>
        <pt x="352" y="32" on="1"/>
      </contour>
    </TTGlyph>
    <TTGlyph name="arFeh.isol" xMin="40" yMin="-199" xMax="718" yMax="307">
      <contour>
        <pt x="686" y="155" on="1"/>
        <pt x="686" y="-129" on="1"/>
        <pt x="686" y="-144" on="0"/>
        <pt x="665" y="-167" on="0"/>
        <pt x="647" y="-167" on="1"/>
        <pt x="155" y="-167" on="1"/>
        <pt x="117" y="-167" on="0"/>
        <pt x="72" y="-125" on="0"/>
        <pt x="72" y="-89" on="1"/>
        <pt x="72" y="63" on="1"/>
        <pt x="40" y="63" on="1"/>
        <pt x="40" y="-89" on="1"/>
        <pt x="40" y="-138" on="0"/>
        <pt x="106" y="-199" on="0"/>
        <pt x="155" y="-199" on="1"/>
        <pt x="647" y="-199" on="1"/>
        <pt x="678" y="-199" on="0"/>
        <pt x="718" y="-157" on="0"/>
        <pt x="718" y="-129" on="1"/>
        <pt x="718" y="155" on="1"/>
        <pt x="718" y="200" on="0"/>
        <pt x="697" y="234" on="1"/>
        <pt x="663" y="287" on="0"/>
        <pt x="524" y="307" on="0"/>
        <pt x="479" y="275" on="1"/>
        <pt x="434" y="246" on="0"/>
        <pt x="400" y="132" on="0"/>
        <pt x="430" y="73" on="1"/>
        <pt x="450" y="40" on="0"/>
        <pt x="511" y="3" on="0"/>
        <pt x="596" y="-3" on="0"/>
        <pt x="652" y="0" on="0"/>
        <pt x="700" y="6" on="1"/>
        <pt x="700" y="38" on="1"/>
        <pt x="660" y="34" on="0"/>
        <pt x="628" y="31" on="0"/>
        <pt x="566" y="28" on="0"/>
        <pt x="536" y="35" on="0"/>
        <pt x="495" y="47" on="0"/>
        <pt x="469" y="71" on="0"/>
        <pt x="458" y="89" on="1"/>
        <pt x="434" y="133" on="0"/>
        <pt x="462" y="226" on="0"/>
        <pt x="497" y="249" on="1"/>
        <pt x="534" y="275" on="0"/>
        <pt x="645" y="257" on="0"/>
        <pt x="670" y="217" on="1"/>
        <pt x="686" y="191" on="0"/>
      </contour>
    </TTGlyph>
    <TTGlyph name="arFeh.medi" xMin="0" yMin="0" xMax="423" yMax="447">
      <contour>
        <pt x="0" y="32" on="1"/>
        <pt x="0" y="0" on="1"/>
        <pt x="352" y="0" on="1"/>
        <pt x="383" y="0" on="0"/>
        <pt x="423" y="42" on="0"/>
        <pt x="423" y="70" on="1"/>
        <pt x="423" y="295" on="1"/>
        <pt x="423" y="340" on="0"/>
        <pt x="402" y="374" on="1"/>
        <pt x="368" y="427" on="0"/>
        <pt x="229" y="447" on="0"/>
        <pt x="184" y="415" on="1"/>
        <pt x="139" y="386" on="0"/>
        <pt x="105" y="272" on="0"/>
        <pt x="135" y="213" on="1"/>
        <pt x="155" y="180" on="0"/>
        <pt x="216" y="143" on="0"/>
        <pt x="301" y="137" on="0"/>
        <pt x="357" y="140" on="0"/>
        <pt x="405" y="146" on="1"/>
        <pt x="405" y="178" on="1"/>
        <pt x="365" y="174" on="0"/>
        <pt x="333" y="171" on="0"/>
        <pt x="271" y="168" on="0"/>
        <pt x="241" y="175" on="0"/>
        <pt x="200" y="187" on="0"/>
        <pt x="174" y="211" on="0"/>
        <pt x="163" y="229" on="1"/>
        <pt x="139" y="273" on="0"/>
        <pt x="167" y="366" on="0"/>
        <pt x="202" y="389" on="1"/>
        <pt x="239" y="415" on="0"/>
        <pt x="350" y="397" on="0"/>
        <pt x="375" y="357" on="1"/>
        <pt x="391" y="331" on="0"/>
        <pt x="391" y="295" on="1"/>
        <pt x="391" y="70" on="1"/>
        <pt x="391" y="55" on="0"/>
        <pt x="370" y="32" on="0"/>
        <pt x="352" y="32" on="1"/>
      </contour>
    </TTGlyph>
    <TTGlyph name="arGaf.above" xMin="-176" yMin="-35" xMax="176" yMax="103">
      <contour>
        <pt x="-160" y="-35" on="1"/>
        <pt x="-98" y="3" on="0"/>
        <pt x="140" y="70" on="0"/>
        <pt x="176" y="71" on="1"/>
        <pt x="176" y="103" on="1"/>
        <pt x="133" y="102" on="0"/>
        <pt x="-107" y="34" on="0"/>
        <pt x="-176" y="-8" on="1"/>
      </contour>
    </TTGlyph>
    <TTGlyph name="arGaf.fina" xMin="40" yMin="0" xMax="502" yMax="599">
      <contour>
        <pt x="82" y="32" on="1"/>
        <pt x="40" y="32" on="1"/>
        <pt x="64" y="0" on="1"/>
        <pt x="106" y="0" on="1"/>
      </contour>
      <contour>
        <pt x="64" y="0" on="1"/>
        <pt x="406" y="0" on="1"/>
        <pt x="450" y="0" on="0"/>
        <pt x="480" y="81" on="0"/>
        <pt x="452" y="109" on="1"/>
        <pt x="172" y="395" on="1"/>
        <pt x="157" y="410" on="0"/>
        <pt x="151" y="450" on="0"/>
        <pt x="166" y="460" on="1"/>
        <pt x="228" y="498" on="0"/>
        <pt x="467" y="566" on="0"/>
        <pt x="502" y="567" on="1"/>
        <pt x="502" y="599" on="1"/>
        <pt x="459" y="598" on="0"/>
        <pt x="218" y="530" on="0"/>
        <pt x="150" y="488" on="1"/>
        <pt x="120" y="467" on="0"/>
        <pt x="126" y="397" on="0"/>
        <pt x="150" y="373" on="1"/>
        <pt x="430" y="87" on="1"/>
        <pt x="445" y="73" on="0"/>
        <pt x="428" y="32" on="0"/>
        <pt x="406" y="32" on="1"/>
        <pt x="64" y="32" on="1"/>
      </contour>
    </TTGlyph>
    <TTGlyph name="arGaf.isol" xMin="40" yMin="0" xMax="502" yMax="599">
      <contour>
        <pt x="82" y="32" on="1"/>
        <pt x="40" y="32" on="1"/>
        <pt x="64" y="0" on="1"/>
        <pt x="106" y="0" on="1"/>
      </contour>
      <contour>
        <pt x="64" y="0" on="1"/>
        <pt x="406" y="0" on="1"/>
        <pt x="450" y="0" on="0"/>
        <pt x="480" y="81" on="0"/>
        <pt x="452" y="109" on="1"/>
        <pt x="172" y="395" on="1"/>
        <pt x="157" y="410" on="0"/>
        <pt x="151" y="450" on="0"/>
        <pt x="166" y="460" on="1"/>
        <pt x="228" y="498" on="0"/>
        <pt x="467" y="566" on="0"/>
        <pt x="502" y="567" on="1"/>
        <pt x="502" y="599" on="1"/>
        <pt x="459" y="598" on="0"/>
        <pt x="218" y="530" on="0"/>
        <pt x="150" y="488" on="1"/>
        <pt x="120" y="467" on="0"/>
        <pt x="126" y="397" on="0"/>
        <pt x="150" y="373" on="1"/>
        <pt x="430" y="87" on="1"/>
        <pt x="445" y="73" on="0"/>
        <pt x="428" y="32" on="0"/>
        <pt x="406" y="32" on="1"/>
        <pt x="64" y="32" on="1"/>
      </contour>
    </TTGlyph>
    <TTGlyph name="arHah.fina" xMin="40" yMin="-292" xMax="436" yMax="288">
      <contour>
        <pt x="381" y="-259" on="1"/>
        <pt x="140" y="-259" on="1"/>
        <pt x="110" y="-260" on="0"/>
        <pt x="72" y="-223" on="0"/>
        <pt x="72" y="-195" on="1"/>
        <pt x="72" y="-80" on="1"/>
        <pt x="72" y="-51" on="0"/>
        <pt x="118" y="0" on="0"/>
        <pt x="148" y="0" on="1"/>
        <pt x="393" y="0" on="1"/>
        <pt x="414" y="0" on="0"/>
        <pt x="436" y="32" on="0"/>
        <pt x="436" y="46" on="1"/>
        <pt x="436" y="62" on="1"/>
        <pt x="402" y="62" on="0"/>
        <pt x="355" y="89" on="0"/>
        <pt x="325" y="122" on="1"/>
        <pt x="321" y="127" on="0"/>
        <pt x="270" y="188" on="0"/>
        <pt x="237" y="223" on="0"/>
        <pt x="165" y="273" on="0"/>
        <pt x="125" y="288" on="1"/>
        <pt x="113" y="258" on="1"/>
        <pt x="150" y="244" on="0"/>
        <pt x="215" y="199" on="0"/>
        <pt x="246" y="166" on="0"/>
        <pt x="294" y="107" on="0"/>
        <pt x="301" y="100" on="1"/>
        <pt x="355" y="42" on="0"/>
        <pt x="401" y="32" on="1"/>
        <pt x="148" y="32" on="1"/>
        <pt x="104" y="32" on="0"/>
        <pt x="40" y="-38" on="0"/>
        <pt x="40" y="-80" on="1"/>
        <pt x="40" y="-195" on="1"/>
        <pt x="40" y="-236" on="0"/>
        <pt x="97" y="-292" on="0"/>
        <pt x="140" y="-291" on="1"/>
        <pt x="381" y="-291" on="1"/>
      </contour>
    </TTGlyph>
    <TTGlyph name="arHah.fina2" xMin="40" yMin="-291" xMax="436" yMax="288">
      <contour>
        <pt x="72" y="-80" on="1"/>
        <pt x="72" y="-291" on="1"/>
        <pt x="57" y="-291" on="0"/>
        <pt x="40" y="-271" on="0"/>
        <pt x="40" y="-259" on="1"/>
        <pt x="40" y="-80" on="1"/>
        <pt x="40" y="-38" on="0"/>
        <pt x="104" y="32" on="0"/>
        <pt x="148" y="32" on="1"/>
        <pt x="401" y="32" on="1"/>
        <pt x="355" y="42" on="0"/>
        <pt x="301" y="100" on="1"/>
        <pt x="294" y="107" on="0"/>
        <pt x="246" y="166" on="0"/>
        <pt x="215" y="199" on="0"/>
        <pt x="150" y="244" on="0"/>
        <pt x="113" y="258" on="1"/>
        <pt x="125" y="288" on="1"/>
        <pt x="165" y="273" on="0"/>
        <pt x="237" y="223" on="0"/>
        <pt x="270" y="188" on="0"/>
        <pt x="321" y="127" on="0"/>
        <pt x="325" y="122" on="1"/>
        <pt x="355" y="89" on="0"/>
        <pt x="402" y="62" on="0"/>
        <pt x="436" y="62" on="1"/>
        <pt x="436" y="46" on="1"/>
        <pt x="436" y="32" on="0"/>
        <pt x="414" y="0" on="0"/>
        <pt x="393" y="0" on="1"/>
        <pt x="148" y="0" on="1"/>
        <pt x="118" y="0" on="0"/>
        <pt x="72" y="-51" on="0"/>
      </contour>
    </TTGlyph>
    <TTGlyph name="arHah.init" xMin="0" yMin="0" xMax="528" yMax="318">
      <contour>
        <pt x="0" y="0" on="1"/>
        <pt x="483" y="0" on="1"/>
        <pt x="505" y="0" on="0"/>
        <pt x="528" y="35" on="0"/>
        <pt x="526" y="55" on="1"/>
        <pt x="525" y="70" on="1"/>
        <pt x="490" y="70" on="0"/>
        <pt x="442" y="94" on="0"/>
        <pt x="410" y="123" on="1"/>
        <pt x="403" y="129" on="0"/>
        <pt x="299" y="230" on="0"/>
        <pt x="267" y="253" on="1"/>
        <pt x="209" y="294" on="0"/>
        <pt x="111" y="318" on="1"/>
        <pt x="103" y="286" on="1"/>
        <pt x="199" y="263" on="0"/>
        <pt x="249" y="227" on="1"/>
        <pt x="278" y="206" on="0"/>
        <pt x="378" y="108" on="0"/>
        <pt x="388" y="99" on="1"/>
        <pt x="445" y="48" on="0"/>
        <pt x="492" y="40" on="1"/>
        <pt x="488" y="32" on="0"/>
        <pt x="483" y="32" on="1"/>
        <pt x="0" y="32" on="1"/>
      </contour>
    </TTGlyph>
    <TTGlyph name="arHah.isol" xMin="40" yMin="-292" xMax="436" yMax="288">
      <contour>
        <pt x="381" y="-259" on="1"/>
        <pt x="140" y="-259" on="1"/>
        <pt x="110" y="-260" on="0"/>
        <pt x="72" y="-223" on="0"/>
        <pt x="72" y="-195" on="1"/>
        <pt x="72" y="-80" on="1"/>
        <pt x="72" y="-51" on="0"/>
        <pt x="118" y="0" on="0"/>
        <pt x="148" y="0" on="1"/>
        <pt x="393" y="0" on="1"/>
        <pt x="414" y="0" on="0"/>
        <pt x="436" y="32" on="0"/>
        <pt x="436" y="46" on="1"/>
        <pt x="436" y="62" on="1"/>
        <pt x="402" y="62" on="0"/>
        <pt x="355" y="89" on="0"/>
        <pt x="325" y="122" on="1"/>
        <pt x="321" y="127" on="0"/>
        <pt x="270" y="188" on="0"/>
        <pt x="237" y="223" on="0"/>
        <pt x="165" y="273" on="0"/>
        <pt x="125" y="288" on="1"/>
        <pt x="113" y="258" on="1"/>
        <pt x="150" y="244" on="0"/>
        <pt x="215" y="199" on="0"/>
        <pt x="246" y="166" on="0"/>
        <pt x="294" y="107" on="0"/>
        <pt x="301" y="100" on="1"/>
        <pt x="355" y="42" on="0"/>
        <pt x="401" y="32" on="1"/>
        <pt x="148" y="32" on="1"/>
        <pt x="104" y="32" on="0"/>
        <pt x="40" y="-38" on="0"/>
        <pt x="40" y="-80" on="1"/>
        <pt x="40" y="-195" on="1"/>
        <pt x="40" y="-236" on="0"/>
        <pt x="97" y="-292" on="0"/>
        <pt x="140" y="-291" on="1"/>
        <pt x="381" y="-291" on="1"/>
      </contour>
    </TTGlyph>
    <TTGlyph name="arHah.isol2" xMin="40" yMin="-291" xMax="436" yMax="288">
      <contour>
        <pt x="72" y="-80" on="1"/>
        <pt x="72" y="-291" on="1"/>
        <pt x="57" y="-291" on="0"/>
        <pt x="40" y="-271" on="0"/>
        <pt x="40" y="-259" on="1"/>
        <pt x="40" y="-80" on="1"/>
        <pt x="40" y="-38" on="0"/>
        <pt x="104" y="32" on="0"/>
        <pt x="148" y="32" on="1"/>
        <pt x="401" y="32" on="1"/>
        <pt x="355" y="42" on="0"/>
        <pt x="301" y="100" on="1"/>
        <pt x="294" y="107" on="0"/>
        <pt x="246" y="166" on="0"/>
        <pt x="215" y="199" on="0"/>
        <pt x="150" y="244" on="0"/>
        <pt x="113" y="258" on="1"/>
        <pt x="125" y="288" on="1"/>
        <pt x="165" y="273" on="0"/>
        <pt x="237" y="223" on="0"/>
        <pt x="270" y="188" on="0"/>
        <pt x="321" y="127" on="0"/>
        <pt x="325" y="122" on="1"/>
        <pt x="355" y="89" on="0"/>
        <pt x="402" y="62" on="0"/>
        <pt x="436" y="62" on="1"/>
        <pt x="436" y="46" on="1"/>
        <pt x="436" y="32" on="0"/>
        <pt x="414" y="0" on="0"/>
        <pt x="393" y="0" on="1"/>
        <pt x="148" y="0" on="1"/>
        <pt x="118" y="0" on="0"/>
        <pt x="72" y="-51" on="0"/>
      </contour>
    </TTGlyph>
    <TTGlyph name="arHah.medi" xMin="0" yMin="0" xMax="528" yMax="318">
      <contour>
        <pt x="0" y="0" on="1"/>
        <pt x="483" y="0" on="1"/>
        <pt x="505" y="0" on="0"/>
        <pt x="528" y="35" on="0"/>
        <pt x="526" y="55" on="1"/>
        <pt x="525" y="70" on="1"/>
        <pt x="490" y="70" on="0"/>
        <pt x="442" y="94" on="0"/>
        <pt x="410" y="123" on="1"/>
        <pt x="403" y="129" on="0"/>
        <pt x="299" y="230" on="0"/>
        <pt x="267" y="253" on="1"/>
        <pt x="209" y="294" on="0"/>
        <pt x="111" y="318" on="1"/>
        <pt x="103" y="286" on="1"/>
        <pt x="199" y="263" on="0"/>
        <pt x="249" y="227" on="1"/>
        <pt x="278" y="206" on="0"/>
        <pt x="378" y="108" on="0"/>
        <pt x="388" y="99" on="1"/>
        <pt x="445" y="48" on="0"/>
        <pt x="492" y="40" on="1"/>
        <pt x="488" y="32" on="0"/>
        <pt x="483" y="32" on="1"/>
        <pt x="0" y="32" on="1"/>
      </contour>
    </TTGlyph>
    <TTGlyph name="arHeh.fina" xMin="37" yMin="0" xMax="320" yMax="364">
      <contour>
        <pt x="288" y="327" on="1"/>
        <pt x="288" y="68" on="1"/>
        <pt x="288" y="54" on="0"/>
        <pt x="266" y="32" on="0"/>
        <pt x="252" y="32" on="1"/>
        <pt x="142" y="32" on="1"/>
        <pt x="113" y="32" on="0"/>
        <pt x="93" y="50" on="1"/>
        <pt x="74" y="67" on="0"/>
        <pt x="70" y="114" on="0"/>
        <pt x="90" y="138" on="1"/>
        <pt x="102" y="149" on="0"/>
        <pt x="156" y="197" on="0"/>
        <pt x="182" y="223" on="0"/>
        <pt x="222" y="269" on="0"/>
        <pt x="252" y="320" on="0"/>
        <pt x="265" y="352" on="1"/>
        <pt x="235" y="364" on="1"/>
        <pt x="223" y="334" on="0"/>
        <pt x="196" y="287" on="0"/>
        <pt x="158" y="244" on="0"/>
        <pt x="135" y="221" on="0"/>
        <pt x="80" y="172" on="0"/>
        <pt x="68" y="161" on="1"/>
        <pt x="37" y="128" on="0"/>
        <pt x="43" y="52" on="0"/>
        <pt x="71" y="27" on="1"/>
        <pt x="101" y="0" on="0"/>
        <pt x="142" y="0" on="1"/>
        <pt x="252" y="0" on="1"/>
        <pt x="280" y="0" on="0"/>
        <pt x="320" y="40" on="0"/>
        <pt x="320" y="68" on="1"/>
        <pt x="320" y="327" on="1"/>
      </contour>
    </TTGlyph>
    <TTGlyph name="arHeh.fina2" xMin="40" yMin="-88" xMax="218" yMax="32">
      <contour>
        <pt x="72" y="-88" on="1"/>
        <pt x="72" y="-35" on="1"/>
        <pt x="72" y="-20" on="0"/>
        <pt x="92" y="0" on="0"/>
        <pt x="109" y="0" on="1"/>
        <pt x="218" y="0" on="1"/>
        <pt x="218" y="32" on="1"/>
        <pt x="109" y="32" on="1"/>
        <pt x="80" y="32" on="0"/>
        <pt x="40" y="-7" on="0"/>
        <pt x="40" y="-35" on="1"/>
        <pt x="40" y="-88" on="1"/>
      </contour>
    </TTGlyph>
    <TTGlyph name="arHeh.init" xMin="0" yMin="0" xMax="634" yMax="427">
      <contour>
        <pt x="249" y="395" on="1"/>
        <pt x="339" y="394" on="0"/>
        <pt x="480" y="332" on="0"/>
        <pt x="561" y="235" on="0"/>
        <pt x="602" y="124" on="0"/>
        <pt x="600" y="68" on="1"/>
        <pt x="600" y="52" on="0"/>
        <pt x="580" y="32" on="0"/>
        <pt x="564" y="32" on="1"/>
        <pt x="0" y="32" on="1"/>
        <pt x="0" y="0" on="1"/>
        <pt x="564" y="0" on="1"/>
        <pt x="592" y="0" on="0"/>
        <pt x="632" y="40" on="0"/>
        <pt x="632" y="68" on="1"/>
        <pt x="634" y="130" on="0"/>
        <pt x="588" y="253" on="0"/>
        <pt x="498" y="359" on="0"/>
        <pt x="345" y="426" on="0"/>
        <pt x="249" y="427" on="1"/>
      </contour>
      <contour>
        <pt x="188" y="26" on="1"/>
        <pt x="188" y="163" on="1"/>
        <pt x="188" y="206" on="0"/>
        <pt x="218" y="226" on="1"/>
        <pt x="239" y="237" on="0"/>
        <pt x="291" y="238" on="0"/>
        <pt x="354" y="200" on="0"/>
        <pt x="377" y="164" on="1"/>
        <pt x="399" y="130" on="0"/>
        <pt x="399" y="101" on="1"/>
        <pt x="400" y="71" on="0"/>
        <pt x="355" y="33" on="0"/>
        <pt x="322" y="32" on="1"/>
        <pt x="322" y="0" on="1"/>
        <pt x="366" y="1" on="0"/>
        <pt x="432" y="56" on="0"/>
        <pt x="431" y="102" on="1"/>
        <pt x="429" y="139" on="0"/>
        <pt x="403" y="182" on="1"/>
        <pt x="362" y="244" on="0"/>
        <pt x="242" y="282" on="0"/>
        <pt x="200" y="252" on="1"/>
        <pt x="156" y="223" on="0"/>
        <pt x="156" y="163" on="1"/>
        <pt x="156" y="26" on="1"/>
      </contour>
    </TTGlyph>
    <TTGlyph name="arHeh.init2" xMin="0" yMin="-210" xMax="279" yMax="190">
      <contour>
        <pt x="215" y="42" on="1"/>
        <pt x="162" y="-32" on="0"/>
        <pt x="149" y="-103" on="1"/>
        <pt x="139" y="-162" on="0"/>
        <pt x="174" y="-192" on="1"/>
        <pt x="194" y="-210" on="0"/>
        <pt x="259" y="-199" on="0"/>
        <pt x="279" y="-174" on="1"/>
        <pt x="254" y="-154" on="1"/>
        <pt x="224" y="-191" on="0"/>
        <pt x="192" y="-164" on="1"/>
        <pt x="173" y="-148" on="0"/>
        <pt x="180" y="-109" on="1"/>
        <pt x="192" y="-46" on="0"/>
        <pt x="241" y="24" on="1"/>
      </contour>
      <contour>
        <pt x="226" y="190" on="1"/>
        <pt x="226" y="67" on="1"/>
        <pt x="226" y="52" on="0"/>
        <pt x="206" y="32" on="0"/>
        <pt x="189" y="32" on="1"/>
        <pt x="0" y="32" on="1"/>
        <pt x="0" y="0" on="1"/>
        <pt x="189" y="0" on="1"/>
        <pt x="218" y="0" on="0"/>
        <pt x="258" y="39" on="0"/>
        <pt x="258" y="67" on="1"/>
        <pt x="258" y="190" on="1"/>
      </contour>
    </TTGlyph>
    <TTGlyph name="arHeh.isol" xMin="37" yMin="0" xMax="320" yMax="364">
      <contour>
        <pt x="288" y="327" on="1"/>
        <pt x="288" y="68" on="1"/>
        <pt x="288" y="54" on="0"/>
        <pt x="266" y="32" on="0"/>
        <pt x="252" y="32" on="1"/>
        <pt x="142" y="32" on="1"/>
        <pt x="113" y="32" on="0"/>
        <pt x="93" y="50" on="1"/>
        <pt x="74" y="67" on="0"/>
        <pt x="70" y="114" on="0"/>
        <pt x="90" y="138" on="1"/>
        <pt x="102" y="149" on="0"/>
        <pt x="156" y="197" on="0"/>
        <pt x="182" y="223" on="0"/>
        <pt x="222" y="269" on="0"/>
        <pt x="252" y="320" on="0"/>
        <pt x="265" y="352" on="1"/>
        <pt x="235" y="364" on="1"/>
        <pt x="223" y="334" on="0"/>
        <pt x="196" y="287" on="0"/>
        <pt x="158" y="244" on="0"/>
        <pt x="135" y="221" on="0"/>
        <pt x="80" y="172" on="0"/>
        <pt x="68" y="161" on="1"/>
        <pt x="37" y="128" on="0"/>
        <pt x="43" y="52" on="0"/>
        <pt x="71" y="27" on="1"/>
        <pt x="101" y="0" on="0"/>
        <pt x="142" y="0" on="1"/>
        <pt x="252" y="0" on="1"/>
        <pt x="280" y="0" on="0"/>
        <pt x="320" y="40" on="0"/>
        <pt x="320" y="68" on="1"/>
        <pt x="320" y="327" on="1"/>
      </contour>
    </TTGlyph>
    <TTGlyph name="arHeh.medi" xMin="0" yMin="0" xMax="634" yMax="427">
      <contour>
        <pt x="249" y="395" on="1"/>
        <pt x="339" y="394" on="0"/>
        <pt x="480" y="332" on="0"/>
        <pt x="561" y="235" on="0"/>
        <pt x="602" y="124" on="0"/>
        <pt x="600" y="68" on="1"/>
        <pt x="600" y="52" on="0"/>
        <pt x="580" y="32" on="0"/>
        <pt x="564" y="32" on="1"/>
        <pt x="0" y="32" on="1"/>
        <pt x="0" y="0" on="1"/>
        <pt x="564" y="0" on="1"/>
        <pt x="592" y="0" on="0"/>
        <pt x="632" y="40" on="0"/>
        <pt x="632" y="68" on="1"/>
        <pt x="634" y="130" on="0"/>
        <pt x="588" y="253" on="0"/>
        <pt x="498" y="359" on="0"/>
        <pt x="345" y="426" on="0"/>
        <pt x="249" y="427" on="1"/>
      </contour>
      <contour>
        <pt x="188" y="26" on="1"/>
        <pt x="188" y="163" on="1"/>
        <pt x="188" y="206" on="0"/>
        <pt x="218" y="226" on="1"/>
        <pt x="239" y="237" on="0"/>
        <pt x="291" y="238" on="0"/>
        <pt x="354" y="200" on="0"/>
        <pt x="377" y="164" on="1"/>
        <pt x="399" y="130" on="0"/>
        <pt x="399" y="101" on="1"/>
        <pt x="400" y="71" on="0"/>
        <pt x="355" y="33" on="0"/>
        <pt x="322" y="32" on="1"/>
        <pt x="322" y="0" on="1"/>
        <pt x="366" y="1" on="0"/>
        <pt x="432" y="56" on="0"/>
        <pt x="431" y="102" on="1"/>
        <pt x="429" y="139" on="0"/>
        <pt x="403" y="182" on="1"/>
        <pt x="362" y="244" on="0"/>
        <pt x="242" y="282" on="0"/>
        <pt x="200" y="252" on="1"/>
        <pt x="156" y="223" on="0"/>
        <pt x="156" y="163" on="1"/>
        <pt x="156" y="26" on="1"/>
      </contour>
    </TTGlyph>
    <TTGlyph name="arHeh.medi2" xMin="0" yMin="-302" xMax="526" yMax="32">
      <contour>
        <pt x="350" y="-286" on="1"/>
        <pt x="350" y="-36" on="1"/>
        <pt x="350" y="-22" on="0"/>
        <pt x="372" y="0" on="0"/>
        <pt x="386" y="0" on="1"/>
        <pt x="526" y="0" on="1"/>
        <pt x="526" y="32" on="1"/>
        <pt x="386" y="32" on="1"/>
        <pt x="358" y="32" on="0"/>
        <pt x="318" y="-8" on="0"/>
        <pt x="318" y="-36" on="1"/>
        <pt x="318" y="-286" on="1"/>
      </contour>
      <contour>
        <pt x="319" y="-296" on="1"/>
        <pt x="310" y="-248" on="0"/>
        <pt x="277" y="-188" on="0"/>
        <pt x="230" y="-136" on="0"/>
        <pt x="221" y="-121" on="1"/>
        <pt x="213" y="-108" on="0"/>
        <pt x="199" y="-25" on="0"/>
        <pt x="170" y="32" on="0"/>
        <pt x="140" y="32" on="1"/>
        <pt x="0" y="32" on="1"/>
        <pt x="0" y="0" on="1"/>
        <pt x="140" y="0" on="1"/>
        <pt x="153" y="0" on="0"/>
        <pt x="161" y="-36" on="0"/>
        <pt x="175" y="-108" on="0"/>
        <pt x="193" y="-137" on="1"/>
        <pt x="206" y="-158" on="0"/>
        <pt x="252" y="-207" on="0"/>
        <pt x="278" y="-257" on="0"/>
        <pt x="287" y="-302" on="1"/>
      </contour>
    </TTGlyph>
    <TTGlyph name="arKaf.above" xMin="-96" yMin="0" xMax="96" yMax="143">
      <contour>
        <pt x="96" y="143" on="1"/>
        <pt x="-3" y="143" on="1"/>
        <pt x="-21" y="143" on="0"/>
        <pt x="-28" y="134" on="1"/>
        <pt x="-31" y="131" on="0"/>
        <pt x="-34" y="122" on="0"/>
        <pt x="-33" y="114" on="0"/>
        <pt x="-31" y="107" on="0"/>
        <pt x="-30" y="104" on="1"/>
        <pt x="-29" y="102" on="1"/>
        <pt x="5" y="32" on="1"/>
        <pt x="-96" y="32" on="1"/>
        <pt x="-96" y="0" on="1"/>
        <pt x="15" y="0" on="1"/>
        <pt x="32" y="0" on="0"/>
        <pt x="38" y="9" on="1"/>
        <pt x="46" y="21" on="0"/>
        <pt x="37" y="40" on="1"/>
        <pt x="3" y="111" on="1"/>
        <pt x="96" y="111" on="1"/>
      </contour>
    </TTGlyph>
    <TTGlyph name="arKaf.fina" xMin="40" yMin="0" xMax="456" yMax="624">
      <contour>
        <pt x="82" y="32" on="1"/>
        <pt x="40" y="32" on="1"/>
        <pt x="64" y="0" on="1"/>
        <pt x="106" y="0" on="1"/>
      </contour>
      <contour>
        <pt x="424" y="624" on="1"/>
        <pt x="424" y="70" on="1"/>
        <pt x="424" y="55" on="0"/>
        <pt x="403" y="32" on="0"/>
        <pt x="386" y="32" on="1"/>
        <pt x="64" y="32" on="1"/>
        <pt x="64" y="0" on="1"/>
        <pt x="386" y="0" on="1"/>
        <pt x="418" y="0" on="0"/>
        <pt x="456" y="42" on="0"/>
        <pt x="456" y="70" on="1"/>
        <pt x="456" y="624" on="1"/>
      </contour>
    </TTGlyph>
    <TTGlyph name="arKaf.init" xMin="0" yMin="0" xMax="438" yMax="599">
      <contour>
        <pt x="0" y="0" on="1"/>
        <pt x="342" y="0" on="1"/>
        <pt x="386" y="0" on="0"/>
        <pt x="416" y="81" on="0"/>
        <pt x="388" y="109" on="1"/>
        <pt x="108" y="395" on="1"/>
        <pt x="93" y="410" on="0"/>
        <pt x="87" y="450" on="0"/>
        <pt x="102" y="460" on="1"/>
        <pt x="164" y="498" on="0"/>
        <pt x="403" y="566" on="0"/>
        <pt x="438" y="567" on="1"/>
        <pt x="438" y="599" on="1"/>
        <pt x="395" y="598" on="0"/>
        <pt x="154" y="530" on="0"/>
        <pt x="86" y="488" on="1"/>
        <pt x="56" y="467" on="0"/>
        <pt x="62" y="397" on="0"/>
        <pt x="86" y="373" on="1"/>
        <pt x="366" y="87" on="1"/>
        <pt x="381" y="73" on="0"/>
        <pt x="364" y="32" on="0"/>
        <pt x="342" y="32" on="1"/>
        <pt x="0" y="32" on="1"/>
      </contour>
    </TTGlyph>
    <TTGlyph name="arKaf.isol" xMin="40" yMin="0" xMax="456" yMax="624">
      <contour>
        <pt x="82" y="32" on="1"/>
        <pt x="40" y="32" on="1"/>
        <pt x="64" y="0" on="1"/>
        <pt x="106" y="0" on="1"/>
      </contour>
      <contour>
        <pt x="424" y="624" on="1"/>
        <pt x="424" y="70" on="1"/>
        <pt x="424" y="55" on="0"/>
        <pt x="403" y="32" on="0"/>
        <pt x="386" y="32" on="1"/>
        <pt x="64" y="32" on="1"/>
        <pt x="64" y="0" on="1"/>
        <pt x="386" y="0" on="1"/>
        <pt x="418" y="0" on="0"/>
        <pt x="456" y="42" on="0"/>
        <pt x="456" y="70" on="1"/>
        <pt x="456" y="624" on="1"/>
      </contour>
    </TTGlyph>
    <TTGlyph name="arKaf.medi" xMin="0" yMin="0" xMax="438" yMax="599">
      <contour>
        <pt x="0" y="0" on="1"/>
        <pt x="342" y="0" on="1"/>
        <pt x="386" y="0" on="0"/>
        <pt x="416" y="81" on="0"/>
        <pt x="388" y="109" on="1"/>
        <pt x="108" y="395" on="1"/>
        <pt x="93" y="410" on="0"/>
        <pt x="87" y="450" on="0"/>
        <pt x="102" y="460" on="1"/>
        <pt x="164" y="498" on="0"/>
        <pt x="403" y="566" on="0"/>
        <pt x="438" y="567" on="1"/>
        <pt x="438" y="599" on="1"/>
        <pt x="395" y="598" on="0"/>
        <pt x="154" y="530" on="0"/>
        <pt x="86" y="488" on="1"/>
        <pt x="56" y="467" on="0"/>
        <pt x="62" y="397" on="0"/>
        <pt x="86" y="373" on="1"/>
        <pt x="366" y="87" on="1"/>
        <pt x="381" y="73" on="0"/>
        <pt x="364" y="32" on="0"/>
        <pt x="342" y="32" on="1"/>
        <pt x="0" y="32" on="1"/>
      </contour>
    </TTGlyph>
    <TTGlyph name="arLam.fina" xMin="40" yMin="-148" xMax="440" yMax="624">
      <contour>
        <pt x="408" y="624" on="1"/>
        <pt x="408" y="-78" on="1"/>
        <pt x="408" y="-93" on="0"/>
        <pt x="387" y="-116" on="0"/>
        <pt x="370" y="-116" on="1"/>
        <pt x="111" y="-116" on="1"/>
        <pt x="72" y="-116" on="0"/>
        <pt x="72" y="-79" on="1"/>
        <pt x="72" y="110" on="1"/>
        <pt x="40" y="110" on="1"/>
        <pt x="40" y="-79" on="1"/>
        <pt x="40" y="-110" on="0"/>
        <pt x="80" y="-148" on="0"/>
        <pt x="111" y="-148" on="1"/>
        <pt x="370" y="-148" on="1"/>
        <pt x="402" y="-148" on="0"/>
        <pt x="440" y="-106" on="0"/>
        <pt x="440" y="-78" on="1"/>
        <pt x="440" y="624" on="1"/>
      </contour>
    </TTGlyph>
    <TTGlyph name="arLam.init" xMin="0" yMin="0" xMax="156" yMax="624">
      <contour>
        <pt x="124" y="624" on="1"/>
        <pt x="124" y="70" on="1"/>
        <pt x="124" y="54" on="0"/>
        <pt x="104" y="32" on="0"/>
        <pt x="87" y="32" on="1"/>
        <pt x="0" y="32" on="1"/>
        <pt x="0" y="0" on="1"/>
        <pt x="87" y="0" on="1"/>
        <pt x="118" y="0" on="0"/>
        <pt x="156" y="43" on="0"/>
        <pt x="156" y="70" on="1"/>
        <pt x="156" y="624" on="1"/>
      </contour>
    </TTGlyph>
    <TTGlyph name="arLam.init.1" xMin="40" yMin="0" xMax="322" yMax="624">
      <contour>
        <pt x="290" y="624" on="1"/>
        <pt x="290" y="70" on="1"/>
        <pt x="290" y="53" on="0"/>
        <pt x="270" y="32" on="0"/>
        <pt x="255" y="32" on="1"/>
        <pt x="40" y="32" on="1"/>
        <pt x="40" y="0" on="1"/>
        <pt x="255" y="0" on="1"/>
        <pt x="283" y="0" on="0"/>
        <pt x="322" y="40" on="0"/>
        <pt x="322" y="70" on="1"/>
        <pt x="322" y="624" on="1"/>
      </contour>
    </TTGlyph>
    <TTGlyph name="arLam.isol" xMin="40" yMin="-148" xMax="440" yMax="624">
      <contour>
        <pt x="408" y="624" on="1"/>
        <pt x="408" y="-78" on="1"/>
        <pt x="408" y="-93" on="0"/>
        <pt x="387" y="-116" on="0"/>
        <pt x="370" y="-116" on="1"/>
        <pt x="111" y="-116" on="1"/>
        <pt x="72" y="-116" on="0"/>
        <pt x="72" y="-79" on="1"/>
        <pt x="72" y="110" on="1"/>
        <pt x="40" y="110" on="1"/>
        <pt x="40" y="-79" on="1"/>
        <pt x="40" y="-110" on="0"/>
        <pt x="80" y="-148" on="0"/>
        <pt x="111" y="-148" on="1"/>
        <pt x="370" y="-148" on="1"/>
        <pt x="402" y="-148" on="0"/>
        <pt x="440" y="-106" on="0"/>
        <pt x="440" y="-78" on="1"/>
        <pt x="440" y="624" on="1"/>
      </contour>
    </TTGlyph>
    <TTGlyph name="arLam.medi" xMin="0" yMin="0" xMax="156" yMax="624">
      <contour>
        <pt x="124" y="624" on="1"/>
        <pt x="124" y="70" on="1"/>
        <pt x="124" y="54" on="0"/>
        <pt x="104" y="32" on="0"/>
        <pt x="87" y="32" on="1"/>
        <pt x="0" y="32" on="1"/>
        <pt x="0" y="0" on="1"/>
        <pt x="87" y="0" on="1"/>
        <pt x="118" y="0" on="0"/>
        <pt x="156" y="43" on="0"/>
        <pt x="156" y="70" on="1"/>
        <pt x="156" y="624" on="1"/>
      </contour>
    </TTGlyph>
    <TTGlyph name="arLam.medi.1" xMin="40" yMin="0" xMax="322" yMax="624">
      <contour>
        <pt x="290" y="624" on="1"/>
        <pt x="290" y="70" on="1"/>
        <pt x="290" y="53" on="0"/>
        <pt x="270" y="32" on="0"/>
        <pt x="255" y="32" on="1"/>
        <pt x="40" y="32" on="1"/>
        <pt x="40" y="0" on="1"/>
        <pt x="255" y="0" on="1"/>
        <pt x="283" y="0" on="0"/>
        <pt x="322" y="40" on="0"/>
        <pt x="322" y="70" on="1"/>
        <pt x="322" y="624" on="1"/>
      </contour>
    </TTGlyph>
    <TTGlyph name="arMeem.fina" xMin="40" yMin="0" xMax="517" yMax="321">
      <contour>
        <pt x="82" y="32" on="1"/>
        <pt x="40" y="32" on="1"/>
        <pt x="64" y="0" on="1"/>
        <pt x="106" y="0" on="1"/>
      </contour>
      <contour>
        <pt x="82" y="0" on="1"/>
        <pt x="176" y="0" on="1"/>
        <pt x="212" y="0" on="0"/>
        <pt x="249" y="42" on="0"/>
        <pt x="250" y="70" on="1"/>
        <pt x="250" y="201" on="1"/>
        <pt x="250" y="238" on="0"/>
        <pt x="274" y="262" on="1"/>
        <pt x="299" y="288" on="0"/>
        <pt x="386" y="284" on="0"/>
        <pt x="416" y="253" on="1"/>
        <pt x="485" y="180" on="0"/>
        <pt x="485" y="125" on="1"/>
        <pt x="485" y="83" on="0"/>
        <pt x="407" y="32" on="0"/>
        <pt x="346" y="32" on="1"/>
        <pt x="248" y="32" on="1"/>
        <pt x="248" y="0" on="1"/>
        <pt x="346" y="0" on="1"/>
        <pt x="415" y="0" on="0"/>
        <pt x="517" y="66" on="0"/>
        <pt x="517" y="125" on="1"/>
        <pt x="517" y="194" on="0"/>
        <pt x="440" y="275" on="1"/>
        <pt x="401" y="316" on="0"/>
        <pt x="287" y="321" on="0"/>
        <pt x="251" y="285" on="1"/>
        <pt x="218" y="254" on="0"/>
        <pt x="218" y="201" on="1"/>
        <pt x="218" y="70" on="1"/>
        <pt x="216" y="32" on="0"/>
        <pt x="176" y="32" on="1"/>
        <pt x="82" y="32" on="1"/>
      </contour>
    </TTGlyph>
    <TTGlyph name="arMeem.init" xMin="0" yMin="0" xMax="435" yMax="321">
      <contour>
        <pt x="0" y="0" on="1"/>
        <pt x="94" y="0" on="1"/>
        <pt x="130" y="0" on="0"/>
        <pt x="167" y="42" on="0"/>
        <pt x="168" y="70" on="1"/>
        <pt x="168" y="201" on="1"/>
        <pt x="168" y="238" on="0"/>
        <pt x="192" y="262" on="1"/>
        <pt x="217" y="288" on="0"/>
        <pt x="304" y="284" on="0"/>
        <pt x="334" y="253" on="1"/>
        <pt x="403" y="180" on="0"/>
        <pt x="403" y="125" on="1"/>
        <pt x="403" y="83" on="0"/>
        <pt x="325" y="32" on="0"/>
        <pt x="264" y="32" on="1"/>
        <pt x="166" y="32" on="1"/>
        <pt x="166" y="0" on="1"/>
        <pt x="264" y="0" on="1"/>
        <pt x="333" y="0" on="0"/>
        <pt x="435" y="66" on="0"/>
        <pt x="435" y="125" on="1"/>
        <pt x="435" y="194" on="0"/>
        <pt x="358" y="275" on="1"/>
        <pt x="319" y="316" on="0"/>
        <pt x="205" y="321" on="0"/>
        <pt x="169" y="285" on="1"/>
        <pt x="136" y="254" on="0"/>
        <pt x="136" y="201" on="1"/>
        <pt x="136" y="70" on="1"/>
        <pt x="134" y="32" on="0"/>
        <pt x="94" y="32" on="1"/>
        <pt x="0" y="32" on="1"/>
      </contour>
    </TTGlyph>
    <TTGlyph name="arMeem.isol" xMin="40" yMin="0" xMax="517" yMax="321">
      <contour>
        <pt x="82" y="32" on="1"/>
        <pt x="40" y="32" on="1"/>
        <pt x="64" y="0" on="1"/>
        <pt x="106" y="0" on="1"/>
      </contour>
      <contour>
        <pt x="82" y="0" on="1"/>
        <pt x="176" y="0" on="1"/>
        <pt x="212" y="0" on="0"/>
        <pt x="249" y="42" on="0"/>
        <pt x="250" y="70" on="1"/>
        <pt x="250" y="201" on="1"/>
        <pt x="250" y="238" on="0"/>
        <pt x="274" y="262" on="1"/>
        <pt x="299" y="288" on="0"/>
        <pt x="386" y="284" on="0"/>
        <pt x="416" y="253" on="1"/>
        <pt x="485" y="180" on="0"/>
        <pt x="485" y="125" on="1"/>
        <pt x="485" y="83" on="0"/>
        <pt x="407" y="32" on="0"/>
        <pt x="346" y="32" on="1"/>
        <pt x="248" y="32" on="1"/>
        <pt x="248" y="0" on="1"/>
        <pt x="346" y="0" on="1"/>
        <pt x="415" y="0" on="0"/>
        <pt x="517" y="66" on="0"/>
        <pt x="517" y="125" on="1"/>
        <pt x="517" y="194" on="0"/>
        <pt x="440" y="275" on="1"/>
        <pt x="401" y="316" on="0"/>
        <pt x="287" y="321" on="0"/>
        <pt x="251" y="285" on="1"/>
        <pt x="218" y="254" on="0"/>
        <pt x="218" y="201" on="1"/>
        <pt x="218" y="70" on="1"/>
        <pt x="216" y="32" on="0"/>
        <pt x="176" y="32" on="1"/>
        <pt x="82" y="32" on="1"/>
      </contour>
    </TTGlyph>
    <TTGlyph name="arMeem.medi" xMin="0" yMin="0" xMax="435" yMax="321">
      <contour>
        <pt x="0" y="0" on="1"/>
        <pt x="94" y="0" on="1"/>
        <pt x="130" y="0" on="0"/>
        <pt x="167" y="42" on="0"/>
        <pt x="168" y="70" on="1"/>
        <pt x="168" y="201" on="1"/>
        <pt x="168" y="238" on="0"/>
        <pt x="192" y="262" on="1"/>
        <pt x="217" y="288" on="0"/>
        <pt x="304" y="284" on="0"/>
        <pt x="334" y="253" on="1"/>
        <pt x="403" y="180" on="0"/>
        <pt x="403" y="125" on="1"/>
        <pt x="403" y="83" on="0"/>
        <pt x="325" y="32" on="0"/>
        <pt x="264" y="32" on="1"/>
        <pt x="166" y="32" on="1"/>
        <pt x="166" y="0" on="1"/>
        <pt x="264" y="0" on="1"/>
        <pt x="333" y="0" on="0"/>
        <pt x="435" y="66" on="0"/>
        <pt x="435" y="125" on="1"/>
        <pt x="435" y="194" on="0"/>
        <pt x="358" y="275" on="1"/>
        <pt x="319" y="316" on="0"/>
        <pt x="205" y="321" on="0"/>
        <pt x="169" y="285" on="1"/>
        <pt x="136" y="254" on="0"/>
        <pt x="136" y="201" on="1"/>
        <pt x="136" y="70" on="1"/>
        <pt x="134" y="32" on="0"/>
        <pt x="94" y="32" on="1"/>
        <pt x="0" y="32" on="1"/>
      </contour>
    </TTGlyph>
    <TTGlyph name="arNoon.fina" xMin="40" yMin="-187" xMax="574" yMax="152">
      <contour>
        <pt x="574" y="32" on="1"/>
        <pt x="432" y="32" on="1"/>
        <pt x="432" y="0" on="1"/>
        <pt x="574" y="0" on="1"/>
      </contour>
      <contour>
        <pt x="404" y="152" on="1"/>
        <pt x="404" y="-119" on="1"/>
        <pt x="404" y="-133" on="0"/>
        <pt x="383" y="-155" on="0"/>
        <pt x="369" y="-155" on="1"/>
        <pt x="230" y="-155" on="1"/>
        <pt x="159" y="-155" on="0"/>
        <pt x="72" y="-89" on="0"/>
        <pt x="72" y="-39" on="1"/>
        <pt x="72" y="151" on="1"/>
        <pt x="40" y="151" on="1"/>
        <pt x="40" y="-39" on="1"/>
        <pt x="40" y="-108" on="0"/>
        <pt x="148" y="-187" on="0"/>
        <pt x="230" y="-187" on="1"/>
        <pt x="369" y="-187" on="1"/>
        <pt x="397" y="-187" on="0"/>
        <pt x="436" y="-145" on="0"/>
        <pt x="436" y="-119" on="1"/>
        <pt x="436" y="152" on="1"/>
      </contour>
    </TTGlyph>
    <TTGlyph name="arNoon.isol" xMin="40" yMin="-187" xMax="436" yMax="152">
      <contour>
        <pt x="404" y="152" on="1"/>
        <pt x="404" y="-119" on="1"/>
        <pt x="404" y="-133" on="0"/>
        <pt x="383" y="-155" on="0"/>
        <pt x="369" y="-155" on="1"/>
        <pt x="230" y="-155" on="1"/>
        <pt x="159" y="-155" on="0"/>
        <pt x="72" y="-89" on="0"/>
        <pt x="72" y="-39" on="1"/>
        <pt x="72" y="151" on="1"/>
        <pt x="40" y="151" on="1"/>
        <pt x="40" y="-39" on="1"/>
        <pt x="40" y="-108" on="0"/>
        <pt x="148" y="-187" on="0"/>
        <pt x="230" y="-187" on="1"/>
        <pt x="369" y="-187" on="1"/>
        <pt x="397" y="-187" on="0"/>
        <pt x="436" y="-145" on="0"/>
        <pt x="436" y="-119" on="1"/>
        <pt x="436" y="152" on="1"/>
      </contour>
    </TTGlyph>
    <TTGlyph name="arQaf.fina" xMin="40" yMin="-199" xMax="760" yMax="307">
      <contour>
        <pt x="616" y="155" on="1"/>
        <pt x="616" y="-129" on="1"/>
        <pt x="616" y="-144" on="0"/>
        <pt x="595" y="-167" on="0"/>
        <pt x="577" y="-167" on="1"/>
        <pt x="155" y="-167" on="1"/>
        <pt x="117" y="-167" on="0"/>
        <pt x="72" y="-125" on="0"/>
        <pt x="72" y="-89" on="1"/>
        <pt x="72" y="153" on="1"/>
        <pt x="40" y="153" on="1"/>
        <pt x="40" y="-89" on="1"/>
        <pt x="40" y="-138" on="0"/>
        <pt x="106" y="-199" on="0"/>
        <pt x="155" y="-199" on="1"/>
        <pt x="577" y="-199" on="1"/>
        <pt x="608" y="-199" on="0"/>
        <pt x="648" y="-157" on="0"/>
        <pt x="648" y="-129" on="1"/>
        <pt x="648" y="155" on="1"/>
        <pt x="648" y="200" on="0"/>
        <pt x="627" y="234" on="1"/>
        <pt x="593" y="287" on="0"/>
        <pt x="454" y="307" on="0"/>
        <pt x="409" y="275" on="1"/>
        <pt x="364" y="246" on="0"/>
        <pt x="330" y="132" on="0"/>
        <pt x="360" y="73" on="1"/>
        <pt x="392" y="19" on="0"/>
        <pt x="493" y="-3" on="0"/>
        <pt x="628" y="0" on="1"/>
        <pt x="760" y="0" on="1"/>
        <pt x="760" y="32" on="1"/>
        <pt x="623" y="32" on="1"/>
        <pt x="497" y="30" on="0"/>
        <pt x="413" y="47" on="0"/>
        <pt x="388" y="89" on="1"/>
        <pt x="364" y="133" on="0"/>
        <pt x="392" y="226" on="0"/>
        <pt x="427" y="249" on="1"/>
        <pt x="464" y="275" on="0"/>
        <pt x="575" y="257" on="0"/>
        <pt x="600" y="217" on="1"/>
        <pt x="616" y="191" on="0"/>
      </contour>
    </TTGlyph>
    <TTGlyph name="arQaf.isol" xMin="40" yMin="-199" xMax="648" yMax="307">
      <contour>
        <pt x="616" y="155" on="1"/>
        <pt x="616" y="-129" on="1"/>
        <pt x="616" y="-144" on="0"/>
        <pt x="595" y="-167" on="0"/>
        <pt x="577" y="-167" on="1"/>
        <pt x="155" y="-167" on="1"/>
        <pt x="117" y="-167" on="0"/>
        <pt x="72" y="-125" on="0"/>
        <pt x="72" y="-89" on="1"/>
        <pt x="72" y="153" on="1"/>
        <pt x="40" y="153" on="1"/>
        <pt x="40" y="-89" on="1"/>
        <pt x="40" y="-138" on="0"/>
        <pt x="106" y="-199" on="0"/>
        <pt x="155" y="-199" on="1"/>
        <pt x="577" y="-199" on="1"/>
        <pt x="608" y="-199" on="0"/>
        <pt x="648" y="-157" on="0"/>
        <pt x="648" y="-129" on="1"/>
        <pt x="648" y="155" on="1"/>
        <pt x="648" y="200" on="0"/>
        <pt x="627" y="234" on="1"/>
        <pt x="593" y="287" on="0"/>
        <pt x="454" y="307" on="0"/>
        <pt x="409" y="275" on="1"/>
        <pt x="364" y="246" on="0"/>
        <pt x="330" y="132" on="0"/>
        <pt x="360" y="73" on="1"/>
        <pt x="380" y="40" on="0"/>
        <pt x="441" y="3" on="0"/>
        <pt x="526" y="-3" on="0"/>
        <pt x="582" y="0" on="0"/>
        <pt x="630" y="6" on="1"/>
        <pt x="630" y="38" on="1"/>
        <pt x="590" y="34" on="0"/>
        <pt x="558" y="31" on="0"/>
        <pt x="496" y="28" on="0"/>
        <pt x="466" y="35" on="0"/>
        <pt x="425" y="47" on="0"/>
        <pt x="399" y="71" on="0"/>
        <pt x="388" y="89" on="1"/>
        <pt x="364" y="133" on="0"/>
        <pt x="392" y="226" on="0"/>
        <pt x="427" y="249" on="1"/>
        <pt x="464" y="275" on="0"/>
        <pt x="575" y="257" on="0"/>
        <pt x="600" y="217" on="1"/>
        <pt x="616" y="191" on="0"/>
      </contour>
    </TTGlyph>
    <TTGlyph name="arReh.fina" xMin="0" yMin="-201" xMax="300" yMax="150">
      <contour>
        <pt x="300" y="32" on="1"/>
        <pt x="179" y="32" on="1"/>
        <pt x="179" y="0" on="1"/>
        <pt x="300" y="0" on="1"/>
      </contour>
      <contour>
        <pt x="155" y="150" on="1"/>
        <pt x="155" y="-38" on="1"/>
        <pt x="155" y="-104" on="0"/>
        <pt x="120" y="-169" on="0"/>
        <pt x="72" y="-169" on="1"/>
        <pt x="0" y="-169" on="1"/>
        <pt x="0" y="-201" on="1"/>
        <pt x="72" y="-201" on="1"/>
        <pt x="187" y="-201" on="0"/>
        <pt x="187" y="-38" on="1"/>
        <pt x="187" y="150" on="1"/>
      </contour>
    </TTGlyph>
    <TTGlyph name="arReh.isol" xMin="0" yMin="-200" xMax="187" yMax="151">
      <contour>
        <pt x="155" y="151" on="1"/>
        <pt x="155" y="-37" on="1"/>
        <pt x="155" y="-103" on="0"/>
        <pt x="120" y="-168" on="0"/>
        <pt x="72" y="-168" on="1"/>
        <pt x="0" y="-168" on="1"/>
        <pt x="0" y="-200" on="1"/>
        <pt x="72" y="-200" on="1"/>
        <pt x="187" y="-200" on="0"/>
        <pt x="187" y="-37" on="1"/>
        <pt x="187" y="151" on="1"/>
      </contour>
    </TTGlyph>
    <TTGlyph name="arSad.above" xMin="-131" yMin="0" xMax="131" yMax="154">
      <contour>
        <pt x="-90" y="16" on="1"/>
        <pt x="96" y="16" on="1"/>
        <pt x="115" y="16" on="0"/>
        <pt x="115" y="34" on="1"/>
        <pt x="114" y="68" on="1"/>
        <pt x="113" y="121" on="0"/>
        <pt x="81" y="134" on="1"/>
        <pt x="63" y="140" on="0"/>
        <pt x="29" y="129" on="0"/>
        <pt x="-14" y="85" on="0"/>
        <pt x="-38" y="56" on="0"/>
        <pt x="-64" y="20" on="1"/>
        <pt x="-68" y="15" on="0"/>
        <pt x="-70" y="12" on="1"/>
        <pt x="-82" y="21" on="1"/>
        <pt x="-79" y="26" on="0"/>
        <pt x="-72" y="35" on="1"/>
        <pt x="-60" y="52" on="0"/>
        <pt x="-48" y="69" on="0"/>
        <pt x="-25" y="99" on="0"/>
        <pt x="-10" y="114" on="0"/>
        <pt x="12" y="136" on="0"/>
        <pt x="31" y="145" on="0"/>
        <pt x="53" y="154" on="0"/>
        <pt x="75" y="153" on="0"/>
        <pt x="86" y="149" on="1"/>
        <pt x="128" y="131" on="0"/>
        <pt x="130" y="68" on="1"/>
        <pt x="131" y="34" on="1"/>
        <pt x="131" y="20" on="0"/>
        <pt x="111" y="0" on="0"/>
        <pt x="96" y="0" on="1"/>
        <pt x="-90" y="0" on="1"/>
      </contour>
      <contour>
        <pt x="-83" y="0" on="1"/>
        <pt x="-131" y="0" on="1"/>
        <pt x="-131" y="16" on="1"/>
        <pt x="-83" y="16" on="1"/>
      </contour>
    </TTGlyph>
    <TTGlyph name="arSad.fina" xMin="40" yMin="-201" xMax="867" yMax="329">
      <contour>
        <pt x="409" y="241" on="1"/>
        <pt x="441" y="241" on="1"/>
        <pt x="441" y="-133" on="1"/>
        <pt x="441" y="-162" on="0"/>
        <pt x="402" y="-201" on="0"/>
        <pt x="372" y="-201" on="1"/>
        <pt x="105" y="-201" on="1"/>
        <pt x="77" y="-201" on="0"/>
        <pt x="40" y="-157" on="0"/>
        <pt x="40" y="-129" on="1"/>
        <pt x="40" y="149" on="1"/>
        <pt x="72" y="149" on="1"/>
        <pt x="72" y="-129" on="1"/>
        <pt x="72" y="-145" on="0"/>
        <pt x="93" y="-169" on="0"/>
        <pt x="105" y="-169" on="1"/>
        <pt x="372" y="-169" on="1"/>
        <pt x="388" y="-169" on="0"/>
        <pt x="409" y="-148" on="0"/>
        <pt x="409" y="-133" on="1"/>
      </contour>
      <contour>
        <pt x="425" y="32" on="1"/>
        <pt x="797" y="32" on="1"/>
        <pt x="814" y="32" on="0"/>
        <pt x="835" y="52" on="0"/>
        <pt x="834" y="67" on="1"/>
        <pt x="832" y="135" on="1"/>
        <pt x="831" y="193" on="0"/>
        <pt x="799" y="254" on="0"/>
        <pt x="766" y="268" on="1"/>
        <pt x="746" y="277" on="0"/>
        <pt x="703" y="271" on="0"/>
        <pt x="663" y="254" on="0"/>
        <pt x="621" y="219" on="0"/>
        <pt x="582" y="178" on="0"/>
        <pt x="539" y="126" on="0"/>
        <pt x="499" y="72" on="0"/>
        <pt x="477" y="42" on="1"/>
        <pt x="468" y="30" on="0"/>
        <pt x="464" y="24" on="1"/>
        <pt x="439" y="42" on="1"/>
        <pt x="447" y="53" on="0"/>
        <pt x="464" y="77" on="1"/>
        <pt x="556" y="204" on="0"/>
        <pt x="605" y="249" on="1"/>
        <pt x="694" y="329" on="0"/>
        <pt x="777" y="298" on="1"/>
        <pt x="861" y="263" on="0"/>
        <pt x="864" y="135" on="1"/>
        <pt x="866" y="69" on="1"/>
        <pt x="867" y="40" on="0"/>
        <pt x="826" y="0" on="0"/>
        <pt x="797" y="0" on="1"/>
        <pt x="425" y="0" on="1"/>
      </contour>
    </TTGlyph>
    <TTGlyph name="arSad.init" xMin="0" yMin="0" xMax="581" yMax="319">
      <contour>
        <pt x="157" y="0" on="1"/>
        <pt x="0" y="0" on="1"/>
        <pt x="0" y="32" on="1"/>
        <pt x="157" y="32" on="1"/>
      </contour>
      <contour>
        <pt x="123" y="241" on="1"/>
        <pt x="155" y="241" on="1"/>
        <pt x="155" y="22" on="1"/>
        <pt x="123" y="22" on="1"/>
      </contour>
      <contour>
        <pt x="139" y="32" on="1"/>
        <pt x="511" y="32" on="1"/>
        <pt x="528" y="32" on="0"/>
        <pt x="549" y="52" on="0"/>
        <pt x="548" y="67" on="1"/>
        <pt x="546" y="135" on="1"/>
        <pt x="545" y="193" on="0"/>
        <pt x="513" y="254" on="0"/>
        <pt x="480" y="268" on="1"/>
        <pt x="460" y="277" on="0"/>
        <pt x="417" y="271" on="0"/>
        <pt x="377" y="254" on="0"/>
        <pt x="335" y="219" on="0"/>
        <pt x="296" y="178" on="0"/>
        <pt x="253" y="126" on="0"/>
        <pt x="213" y="72" on="0"/>
        <pt x="191" y="42" on="1"/>
        <pt x="182" y="30" on="0"/>
        <pt x="178" y="24" on="1"/>
        <pt x="153" y="42" on="1"/>
        <pt x="245" y="169" on="0"/>
        <pt x="269" y="197" on="1"/>
        <pt x="374" y="319" on="0"/>
        <pt x="463" y="305" on="1"/>
        <pt x="477" y="303" on="0"/>
        <pt x="491" y="298" on="1"/>
        <pt x="575" y="263" on="0"/>
        <pt x="578" y="135" on="1"/>
        <pt x="580" y="69" on="1"/>
        <pt x="581" y="40" on="0"/>
        <pt x="540" y="0" on="0"/>
        <pt x="511" y="0" on="1"/>
        <pt x="139" y="0" on="1"/>
      </contour>
    </TTGlyph>
    <TTGlyph name="arSad.isol" xMin="40" yMin="-201" xMax="867" yMax="329">
      <contour>
        <pt x="409" y="241" on="1"/>
        <pt x="441" y="241" on="1"/>
        <pt x="441" y="-133" on="1"/>
        <pt x="441" y="-162" on="0"/>
        <pt x="402" y="-201" on="0"/>
        <pt x="372" y="-201" on="1"/>
        <pt x="105" y="-201" on="1"/>
        <pt x="77" y="-201" on="0"/>
        <pt x="40" y="-157" on="0"/>
        <pt x="40" y="-129" on="1"/>
        <pt x="40" y="149" on="1"/>
        <pt x="72" y="149" on="1"/>
        <pt x="72" y="-129" on="1"/>
        <pt x="72" y="-145" on="0"/>
        <pt x="93" y="-169" on="0"/>
        <pt x="105" y="-169" on="1"/>
        <pt x="372" y="-169" on="1"/>
        <pt x="388" y="-169" on="0"/>
        <pt x="409" y="-148" on="0"/>
        <pt x="409" y="-133" on="1"/>
      </contour>
      <contour>
        <pt x="425" y="32" on="1"/>
        <pt x="797" y="32" on="1"/>
        <pt x="814" y="32" on="0"/>
        <pt x="835" y="52" on="0"/>
        <pt x="834" y="67" on="1"/>
        <pt x="832" y="135" on="1"/>
        <pt x="831" y="193" on="0"/>
        <pt x="799" y="254" on="0"/>
        <pt x="766" y="268" on="1"/>
        <pt x="746" y="277" on="0"/>
        <pt x="703" y="271" on="0"/>
        <pt x="663" y="254" on="0"/>
        <pt x="621" y="219" on="0"/>
        <pt x="582" y="178" on="0"/>
        <pt x="539" y="126" on="0"/>
        <pt x="499" y="72" on="0"/>
        <pt x="477" y="42" on="1"/>
        <pt x="468" y="30" on="0"/>
        <pt x="464" y="24" on="1"/>
        <pt x="439" y="42" on="1"/>
        <pt x="447" y="53" on="0"/>
        <pt x="464" y="77" on="1"/>
        <pt x="556" y="204" on="0"/>
        <pt x="605" y="249" on="1"/>
        <pt x="694" y="329" on="0"/>
        <pt x="777" y="298" on="1"/>
        <pt x="861" y="263" on="0"/>
        <pt x="864" y="135" on="1"/>
        <pt x="866" y="69" on="1"/>
        <pt x="867" y="40" on="0"/>
        <pt x="826" y="0" on="0"/>
        <pt x="797" y="0" on="1"/>
        <pt x="425" y="0" on="1"/>
      </contour>
    </TTGlyph>
    <TTGlyph name="arSad.medi" xMin="0" yMin="0" xMax="581" yMax="319">
      <contour>
        <pt x="157" y="0" on="1"/>
        <pt x="0" y="0" on="1"/>
        <pt x="0" y="32" on="1"/>
        <pt x="157" y="32" on="1"/>
      </contour>
      <contour>
        <pt x="123" y="241" on="1"/>
        <pt x="155" y="241" on="1"/>
        <pt x="155" y="22" on="1"/>
        <pt x="123" y="22" on="1"/>
      </contour>
      <contour>
        <pt x="139" y="32" on="1"/>
        <pt x="511" y="32" on="1"/>
        <pt x="528" y="32" on="0"/>
        <pt x="549" y="52" on="0"/>
        <pt x="548" y="67" on="1"/>
        <pt x="546" y="135" on="1"/>
        <pt x="545" y="193" on="0"/>
        <pt x="513" y="254" on="0"/>
        <pt x="480" y="268" on="1"/>
        <pt x="460" y="277" on="0"/>
        <pt x="417" y="271" on="0"/>
        <pt x="377" y="254" on="0"/>
        <pt x="335" y="219" on="0"/>
        <pt x="296" y="178" on="0"/>
        <pt x="253" y="126" on="0"/>
        <pt x="213" y="72" on="0"/>
        <pt x="191" y="42" on="1"/>
        <pt x="182" y="30" on="0"/>
        <pt x="178" y="24" on="1"/>
        <pt x="153" y="42" on="1"/>
        <pt x="245" y="169" on="0"/>
        <pt x="269" y="197" on="1"/>
        <pt x="374" y="319" on="0"/>
        <pt x="463" y="305" on="1"/>
        <pt x="477" y="303" on="0"/>
        <pt x="491" y="298" on="1"/>
        <pt x="575" y="263" on="0"/>
        <pt x="578" y="135" on="1"/>
        <pt x="580" y="69" on="1"/>
        <pt x="581" y="40" on="0"/>
        <pt x="540" y="0" on="0"/>
        <pt x="511" y="0" on="1"/>
        <pt x="139" y="0" on="1"/>
      </contour>
    </TTGlyph>
    <TTGlyph name="arSeen.fina" xMin="40" yMin="-201" xMax="788" yMax="342">
      <contour>
        <pt x="756" y="340" on="1"/>
        <pt x="756" y="68" on="1"/>
        <pt x="756" y="53" on="0"/>
        <pt x="735" y="32" on="0"/>
        <pt x="718" y="32" on="1"/>
        <pt x="603" y="32" on="1"/>
        <pt x="603" y="0" on="1"/>
        <pt x="718" y="0" on="1"/>
        <pt x="747" y="0" on="0"/>
        <pt x="788" y="40" on="0"/>
        <pt x="788" y="68" on="1"/>
        <pt x="788" y="340" on="1"/>
      </contour>
      <contour>
        <pt x="582" y="340" on="1"/>
        <pt x="582" y="68" on="1"/>
        <pt x="582" y="53" on="0"/>
        <pt x="561" y="32" on="0"/>
        <pt x="545" y="32" on="1"/>
        <pt x="433" y="32" on="1"/>
        <pt x="433" y="0" on="1"/>
        <pt x="545" y="0" on="1"/>
        <pt x="575" y="0" on="0"/>
        <pt x="614" y="39" on="0"/>
        <pt x="614" y="68" on="1"/>
        <pt x="614" y="340" on="1"/>
      </contour>
      <contour>
        <pt x="409" y="342" on="1"/>
        <pt x="409" y="-133" on="1"/>
        <pt x="409" y="-148" on="0"/>
        <pt x="388" y="-169" on="0"/>
        <pt x="372" y="-169" on="1"/>
        <pt x="105" y="-169" on="1"/>
        <pt x="93" y="-169" on="0"/>
        <pt x="72" y="-145" on="0"/>
        <pt x="72" y="-129" on="1"/>
        <pt x="72" y="149" on="1"/>
        <pt x="40" y="149" on="1"/>
        <pt x="40" y="-129" on="1"/>
        <pt x="40" y="-157" on="0"/>
        <pt x="77" y="-201" on="0"/>
        <pt x="105" y="-201" on="1"/>
        <pt x="372" y="-201" on="1"/>
        <pt x="402" y="-201" on="0"/>
        <pt x="441" y="-162" on="0"/>
        <pt x="441" y="-133" on="1"/>
        <pt x="441" y="342" on="1"/>
      </contour>
    </TTGlyph>
    <TTGlyph name="arSeen.init" xMin="0" yMin="0" xMax="595" yMax="340">
      <contour>
        <pt x="563" y="340" on="1"/>
        <pt x="563" y="68" on="1"/>
        <pt x="563" y="53" on="0"/>
        <pt x="542" y="32" on="0"/>
        <pt x="526" y="32" on="1"/>
        <pt x="410" y="32" on="1"/>
        <pt x="410" y="0" on="1"/>
        <pt x="526" y="0" on="1"/>
        <pt x="556" y="0" on="0"/>
        <pt x="595" y="39" on="0"/>
        <pt x="595" y="68" on="1"/>
        <pt x="595" y="340" on="1"/>
      </contour>
      <contour>
        <pt x="389" y="340" on="1"/>
        <pt x="389" y="67" on="1"/>
        <pt x="389" y="52" on="0"/>
        <pt x="369" y="32" on="0"/>
        <pt x="352" y="32" on="1"/>
        <pt x="240" y="32" on="1"/>
        <pt x="240" y="0" on="1"/>
        <pt x="352" y="0" on="1"/>
        <pt x="381" y="0" on="0"/>
        <pt x="421" y="39" on="0"/>
        <pt x="421" y="67" on="1"/>
        <pt x="421" y="340" on="1"/>
      </contour>
      <contour>
        <pt x="216" y="340" on="1"/>
        <pt x="216" y="68" on="1"/>
        <pt x="216" y="53" on="0"/>
        <pt x="195" y="32" on="0"/>
        <pt x="179" y="32" on="1"/>
        <pt x="0" y="32" on="1"/>
        <pt x="0" y="0" on="1"/>
        <pt x="179" y="0" on="1"/>
        <pt x="209" y="0" on="0"/>
        <pt x="248" y="39" on="0"/>
        <pt x="248" y="68" on="1"/>
        <pt x="248" y="340" on="1"/>
      </contour>
    </TTGlyph>
    <TTGlyph name="arSeen.isol" xMin="40" yMin="-201" xMax="788" yMax="342">
      <contour>
        <pt x="756" y="340" on="1"/>
        <pt x="756" y="68" on="1"/>
        <pt x="756" y="53" on="0"/>
        <pt x="735" y="32" on="0"/>
        <pt x="718" y="32" on="1"/>
        <pt x="603" y="32" on="1"/>
        <pt x="603" y="0" on="1"/>
        <pt x="718" y="0" on="1"/>
        <pt x="747" y="0" on="0"/>
        <pt x="788" y="40" on="0"/>
        <pt x="788" y="68" on="1"/>
        <pt x="788" y="340" on="1"/>
      </contour>
      <contour>
        <pt x="582" y="340" on="1"/>
        <pt x="582" y="68" on="1"/>
        <pt x="582" y="53" on="0"/>
        <pt x="561" y="32" on="0"/>
        <pt x="545" y="32" on="1"/>
        <pt x="433" y="32" on="1"/>
        <pt x="433" y="0" on="1"/>
        <pt x="545" y="0" on="1"/>
        <pt x="575" y="0" on="0"/>
        <pt x="614" y="39" on="0"/>
        <pt x="614" y="68" on="1"/>
        <pt x="614" y="340" on="1"/>
      </contour>
      <contour>
        <pt x="409" y="342" on="1"/>
        <pt x="409" y="-133" on="1"/>
        <pt x="409" y="-148" on="0"/>
        <pt x="388" y="-169" on="0"/>
        <pt x="372" y="-169" on="1"/>
        <pt x="105" y="-169" on="1"/>
        <pt x="93" y="-169" on="0"/>
        <pt x="72" y="-145" on="0"/>
        <pt x="72" y="-129" on="1"/>
        <pt x="72" y="149" on="1"/>
        <pt x="40" y="149" on="1"/>
        <pt x="40" y="-129" on="1"/>
        <pt x="40" y="-157" on="0"/>
        <pt x="77" y="-201" on="0"/>
        <pt x="105" y="-201" on="1"/>
        <pt x="372" y="-201" on="1"/>
        <pt x="402" y="-201" on="0"/>
        <pt x="441" y="-162" on="0"/>
        <pt x="441" y="-133" on="1"/>
        <pt x="441" y="342" on="1"/>
      </contour>
    </TTGlyph>
    <TTGlyph name="arSeen.medi" xMin="0" yMin="0" xMax="595" yMax="340">
      <contour>
        <pt x="563" y="340" on="1"/>
        <pt x="563" y="68" on="1"/>
        <pt x="563" y="53" on="0"/>
        <pt x="542" y="32" on="0"/>
        <pt x="526" y="32" on="1"/>
        <pt x="410" y="32" on="1"/>
        <pt x="410" y="0" on="1"/>
        <pt x="526" y="0" on="1"/>
        <pt x="556" y="0" on="0"/>
        <pt x="595" y="39" on="0"/>
        <pt x="595" y="68" on="1"/>
        <pt x="595" y="340" on="1"/>
      </contour>
      <contour>
        <pt x="389" y="340" on="1"/>
        <pt x="389" y="67" on="1"/>
        <pt x="389" y="52" on="0"/>
        <pt x="369" y="32" on="0"/>
        <pt x="352" y="32" on="1"/>
        <pt x="240" y="32" on="1"/>
        <pt x="240" y="0" on="1"/>
        <pt x="352" y="0" on="1"/>
        <pt x="381" y="0" on="0"/>
        <pt x="421" y="39" on="0"/>
        <pt x="421" y="67" on="1"/>
        <pt x="421" y="340" on="1"/>
      </contour>
      <contour>
        <pt x="216" y="340" on="1"/>
        <pt x="216" y="68" on="1"/>
        <pt x="216" y="53" on="0"/>
        <pt x="195" y="32" on="0"/>
        <pt x="179" y="32" on="1"/>
        <pt x="0" y="32" on="1"/>
        <pt x="0" y="0" on="1"/>
        <pt x="179" y="0" on="1"/>
        <pt x="209" y="0" on="0"/>
        <pt x="248" y="39" on="0"/>
        <pt x="248" y="68" on="1"/>
        <pt x="248" y="340" on="1"/>
      </contour>
    </TTGlyph>
    <TTGlyph name="arTah.above" xMin="-133" yMin="0" xMax="134" yMax="312">
      <contour>
        <pt x="-78" y="0" on="1"/>
        <pt x="-133" y="0" on="1"/>
        <pt x="-133" y="16" on="1"/>
        <pt x="-78" y="16" on="1"/>
      </contour>
      <contour>
        <pt x="-81" y="312" on="1"/>
        <pt x="-65" y="312" on="1"/>
        <pt x="-65" y="11" on="1"/>
        <pt x="-81" y="11" on="1"/>
      </contour>
      <contour>
        <pt x="-87" y="16" on="1"/>
        <pt x="99" y="16" on="1"/>
        <pt x="107" y="16" on="0"/>
        <pt x="118" y="26" on="0"/>
        <pt x="118" y="34" on="1"/>
        <pt x="116" y="68" on="1"/>
        <pt x="116" y="120" on="0"/>
        <pt x="84" y="134" on="1"/>
        <pt x="66" y="140" on="0"/>
        <pt x="31" y="129" on="0"/>
        <pt x="-12" y="85" on="0"/>
        <pt x="-36" y="56" on="0"/>
        <pt x="-62" y="20" on="1"/>
        <pt x="-66" y="15" on="0"/>
        <pt x="-68" y="12" on="1"/>
        <pt x="-80" y="21" on="1"/>
        <pt x="-76" y="27" on="0"/>
        <pt x="-54" y="57" on="0"/>
        <pt x="-45" y="70" on="0"/>
        <pt x="-24" y="97" on="0"/>
        <pt x="-12" y="110" on="0"/>
        <pt x="8" y="130" on="0"/>
        <pt x="22" y="139" on="0"/>
        <pt x="42" y="151" on="0"/>
        <pt x="59" y="153" on="0"/>
        <pt x="79" y="153" on="0"/>
        <pt x="89" y="149" on="1"/>
        <pt x="132" y="131" on="0"/>
        <pt x="132" y="68" on="1"/>
        <pt x="134" y="34" on="1"/>
        <pt x="134" y="20" on="0"/>
        <pt x="113" y="0" on="0"/>
        <pt x="99" y="0" on="1"/>
        <pt x="-87" y="0" on="1"/>
      </contour>
    </TTGlyph>
    <TTGlyph name="arTah.fina" xMin="40" yMin="0" xMax="574" yMax="624">
      <contour>
        <pt x="150" y="0" on="1"/>
        <pt x="40" y="0" on="1"/>
        <pt x="40" y="32" on="1"/>
        <pt x="150" y="32" on="1"/>
      </contour>
      <contour>
        <pt x="144" y="624" on="1"/>
        <pt x="176" y="624" on="1"/>
        <pt x="176" y="22" on="1"/>
        <pt x="144" y="22" on="1"/>
      </contour>
      <contour>
        <pt x="132" y="32" on="1"/>
        <pt x="504" y="32" on="1"/>
        <pt x="521" y="32" on="0"/>
        <pt x="542" y="52" on="0"/>
        <pt x="541" y="67" on="1"/>
        <pt x="539" y="135" on="1"/>
        <pt x="538" y="193" on="0"/>
        <pt x="506" y="254" on="0"/>
        <pt x="473" y="268" on="1"/>
        <pt x="453" y="277" on="0"/>
        <pt x="410" y="271" on="0"/>
        <pt x="370" y="254" on="0"/>
        <pt x="328" y="219" on="0"/>
        <pt x="289" y="178" on="0"/>
        <pt x="246" y="126" on="0"/>
        <pt x="206" y="72" on="0"/>
        <pt x="184" y="42" on="1"/>
        <pt x="175" y="30" on="0"/>
        <pt x="171" y="24" on="1"/>
        <pt x="146" y="42" on="1"/>
        <pt x="238" y="169" on="0"/>
        <pt x="262" y="197" on="1"/>
        <pt x="367" y="319" on="0"/>
        <pt x="456" y="305" on="1"/>
        <pt x="470" y="303" on="0"/>
        <pt x="484" y="298" on="1"/>
        <pt x="568" y="263" on="0"/>
        <pt x="571" y="135" on="1"/>
        <pt x="573" y="69" on="1"/>
        <pt x="574" y="40" on="0"/>
        <pt x="533" y="0" on="0"/>
        <pt x="504" y="0" on="1"/>
        <pt x="132" y="0" on="1"/>
      </contour>
    </TTGlyph>
    <TTGlyph name="arTah.init" xMin="0" yMin="0" xMax="534" yMax="624">
      <contour>
        <pt x="110" y="0" on="1"/>
        <pt x="0" y="0" on="1"/>
        <pt x="0" y="32" on="1"/>
        <pt x="110" y="32" on="1"/>
      </contour>
      <contour>
        <pt x="104" y="624" on="1"/>
        <pt x="136" y="624" on="1"/>
        <pt x="136" y="22" on="1"/>
        <pt x="104" y="22" on="1"/>
      </contour>
      <contour>
        <pt x="92" y="32" on="1"/>
        <pt x="464" y="32" on="1"/>
        <pt x="481" y="32" on="0"/>
        <pt x="502" y="52" on="0"/>
        <pt x="501" y="67" on="1"/>
        <pt x="499" y="135" on="1"/>
        <pt x="498" y="193" on="0"/>
        <pt x="466" y="254" on="0"/>
        <pt x="433" y="268" on="1"/>
        <pt x="413" y="277" on="0"/>
        <pt x="370" y="271" on="0"/>
        <pt x="330" y="254" on="0"/>
        <pt x="288" y="219" on="0"/>
        <pt x="249" y="178" on="0"/>
        <pt x="206" y="126" on="0"/>
        <pt x="166" y="72" on="0"/>
        <pt x="144" y="42" on="1"/>
        <pt x="135" y="30" on="0"/>
        <pt x="131" y="24" on="1"/>
        <pt x="106" y="42" on="1"/>
        <pt x="198" y="169" on="0"/>
        <pt x="222" y="197" on="1"/>
        <pt x="327" y="319" on="0"/>
        <pt x="416" y="305" on="1"/>
        <pt x="430" y="303" on="0"/>
        <pt x="444" y="298" on="1"/>
        <pt x="528" y="263" on="0"/>
        <pt x="531" y="135" on="1"/>
        <pt x="533" y="69" on="1"/>
        <pt x="534" y="40" on="0"/>
        <pt x="493" y="0" on="0"/>
        <pt x="464" y="0" on="1"/>
        <pt x="92" y="0" on="1"/>
      </contour>
    </TTGlyph>
    <TTGlyph name="arTah.isol" xMin="40" yMin="0" xMax="574" yMax="624">
      <contour>
        <pt x="150" y="0" on="1"/>
        <pt x="40" y="0" on="1"/>
        <pt x="40" y="32" on="1"/>
        <pt x="150" y="32" on="1"/>
      </contour>
      <contour>
        <pt x="144" y="624" on="1"/>
        <pt x="176" y="624" on="1"/>
        <pt x="176" y="22" on="1"/>
        <pt x="144" y="22" on="1"/>
      </contour>
      <contour>
        <pt x="132" y="32" on="1"/>
        <pt x="504" y="32" on="1"/>
        <pt x="521" y="32" on="0"/>
        <pt x="542" y="52" on="0"/>
        <pt x="541" y="67" on="1"/>
        <pt x="539" y="135" on="1"/>
        <pt x="538" y="193" on="0"/>
        <pt x="506" y="254" on="0"/>
        <pt x="473" y="268" on="1"/>
        <pt x="453" y="277" on="0"/>
        <pt x="410" y="271" on="0"/>
        <pt x="370" y="254" on="0"/>
        <pt x="328" y="219" on="0"/>
        <pt x="289" y="178" on="0"/>
        <pt x="246" y="126" on="0"/>
        <pt x="206" y="72" on="0"/>
        <pt x="184" y="42" on="1"/>
        <pt x="175" y="30" on="0"/>
        <pt x="171" y="24" on="1"/>
        <pt x="146" y="42" on="1"/>
        <pt x="238" y="169" on="0"/>
        <pt x="262" y="197" on="1"/>
        <pt x="367" y="319" on="0"/>
        <pt x="456" y="305" on="1"/>
        <pt x="470" y="303" on="0"/>
        <pt x="484" y="298" on="1"/>
        <pt x="568" y="263" on="0"/>
        <pt x="571" y="135" on="1"/>
        <pt x="573" y="69" on="1"/>
        <pt x="574" y="40" on="0"/>
        <pt x="533" y="0" on="0"/>
        <pt x="504" y="0" on="1"/>
        <pt x="132" y="0" on="1"/>
      </contour>
    </TTGlyph>
    <TTGlyph name="arTah.medi" xMin="0" yMin="0" xMax="534" yMax="624">
      <contour>
        <pt x="110" y="0" on="1"/>
        <pt x="0" y="0" on="1"/>
        <pt x="0" y="32" on="1"/>
        <pt x="110" y="32" on="1"/>
      </contour>
      <contour>
        <pt x="104" y="624" on="1"/>
        <pt x="136" y="624" on="1"/>
        <pt x="136" y="22" on="1"/>
        <pt x="104" y="22" on="1"/>
      </contour>
      <contour>
        <pt x="92" y="32" on="1"/>
        <pt x="464" y="32" on="1"/>
        <pt x="481" y="32" on="0"/>
        <pt x="502" y="52" on="0"/>
        <pt x="501" y="67" on="1"/>
        <pt x="499" y="135" on="1"/>
        <pt x="498" y="193" on="0"/>
        <pt x="466" y="254" on="0"/>
        <pt x="433" y="268" on="1"/>
        <pt x="413" y="277" on="0"/>
        <pt x="370" y="271" on="0"/>
        <pt x="330" y="254" on="0"/>
        <pt x="288" y="219" on="0"/>
        <pt x="249" y="178" on="0"/>
        <pt x="206" y="126" on="0"/>
        <pt x="166" y="72" on="0"/>
        <pt x="144" y="42" on="1"/>
        <pt x="135" y="30" on="0"/>
        <pt x="131" y="24" on="1"/>
        <pt x="106" y="42" on="1"/>
        <pt x="198" y="169" on="0"/>
        <pt x="222" y="197" on="1"/>
        <pt x="327" y="319" on="0"/>
        <pt x="416" y="305" on="1"/>
        <pt x="430" y="303" on="0"/>
        <pt x="444" y="298" on="1"/>
        <pt x="528" y="263" on="0"/>
        <pt x="531" y="135" on="1"/>
        <pt x="533" y="69" on="1"/>
        <pt x="534" y="40" on="0"/>
        <pt x="493" y="0" on="0"/>
        <pt x="464" y="0" on="1"/>
        <pt x="92" y="0" on="1"/>
      </contour>
    </TTGlyph>
    <TTGlyph name="arWaw.fina" xMin="0" yMin="-199" xMax="460" yMax="304">
      <contour>
        <pt x="460" y="32" on="1"/>
        <pt x="313" y="32" on="1"/>
        <pt x="313" y="0" on="1"/>
        <pt x="460" y="0" on="1"/>
      </contour>
      <contour>
        <pt x="315" y="197" on="1"/>
        <pt x="315" y="-37" on="1"/>
        <pt x="315" y="-89" on="0"/>
        <pt x="246" y="-167" on="0"/>
        <pt x="193" y="-167" on="1"/>
        <pt x="0" y="-167" on="1"/>
        <pt x="0" y="-199" on="1"/>
        <pt x="193" y="-199" on="1"/>
        <pt x="260" y="-199" on="0"/>
        <pt x="347" y="-101" on="0"/>
        <pt x="347" y="-37" on="1"/>
        <pt x="347" y="197" on="1"/>
        <pt x="347" y="248" on="0"/>
        <pt x="285" y="304" on="0"/>
        <pt x="239" y="304" on="1"/>
        <pt x="174" y="303" on="0"/>
        <pt x="58" y="202" on="0"/>
        <pt x="51" y="120" on="1"/>
        <pt x="48" y="73" on="0"/>
        <pt x="119" y="0" on="0"/>
        <pt x="171" y="0" on="1"/>
        <pt x="331" y="0" on="1"/>
        <pt x="331" y="32" on="1"/>
        <pt x="171" y="32" on="1"/>
        <pt x="133" y="32" on="0"/>
        <pt x="81" y="85" on="0"/>
        <pt x="83" y="118" on="1"/>
        <pt x="89" y="187" on="0"/>
        <pt x="187" y="272" on="0"/>
        <pt x="240" y="272" on="1"/>
        <pt x="274" y="272" on="0"/>
        <pt x="315" y="235" on="0"/>
      </contour>
    </TTGlyph>
    <TTGlyph name="arWaw.isol" xMin="0" yMin="-199" xMax="347" yMax="304">
      <contour>
        <pt x="315" y="197" on="1"/>
        <pt x="315" y="-37" on="1"/>
        <pt x="315" y="-89" on="0"/>
        <pt x="246" y="-167" on="0"/>
        <pt x="193" y="-167" on="1"/>
        <pt x="0" y="-167" on="1"/>
        <pt x="0" y="-199" on="1"/>
        <pt x="193" y="-199" on="1"/>
        <pt x="260" y="-199" on="0"/>
        <pt x="347" y="-101" on="0"/>
        <pt x="347" y="-37" on="1"/>
        <pt x="347" y="197" on="1"/>
        <pt x="347" y="248" on="0"/>
        <pt x="285" y="304" on="0"/>
        <pt x="239" y="304" on="1"/>
        <pt x="174" y="303" on="0"/>
        <pt x="58" y="202" on="0"/>
        <pt x="51" y="120" on="1"/>
        <pt x="48" y="73" on="0"/>
        <pt x="119" y="0" on="0"/>
        <pt x="171" y="0" on="1"/>
        <pt x="331" y="0" on="1"/>
        <pt x="331" y="32" on="1"/>
        <pt x="171" y="32" on="1"/>
        <pt x="133" y="32" on="0"/>
        <pt x="81" y="85" on="0"/>
        <pt x="83" y="118" on="1"/>
        <pt x="89" y="187" on="0"/>
        <pt x="187" y="272" on="0"/>
        <pt x="240" y="272" on="1"/>
        <pt x="274" y="272" on="0"/>
        <pt x="315" y="235" on="0"/>
      </contour>
    </TTGlyph>
    <TTGlyph name="arYeh.fina" xMin="40" yMin="-244" xMax="505" yMax="62">
      <contour>
        <pt x="504" y="62" on="1"/>
        <pt x="396" y="62" on="1"/>
        <pt x="353" y="62" on="0"/>
        <pt x="317" y="-3" on="0"/>
        <pt x="347" y="-42" on="1"/>
        <pt x="458" y="-176" on="1"/>
        <pt x="468" y="-187" on="0"/>
        <pt x="450" y="-212" on="0"/>
        <pt x="427" y="-212" on="1"/>
        <pt x="197" y="-212" on="1"/>
        <pt x="146" y="-212" on="0"/>
        <pt x="72" y="-158" on="0"/>
        <pt x="72" y="-103" on="1"/>
        <pt x="72" y="59" on="1"/>
        <pt x="40" y="59" on="1"/>
        <pt x="40" y="-103" on="1"/>
        <pt x="40" y="-174" on="0"/>
        <pt x="137" y="-244" on="0"/>
        <pt x="197" y="-244" on="1"/>
        <pt x="427" y="-244" on="1"/>
        <pt x="468" y="-244" on="0"/>
        <pt x="505" y="-184" on="0"/>
        <pt x="482" y="-156" on="1"/>
        <pt x="371" y="-22" on="1"/>
        <pt x="354" y="2" on="0"/>
        <pt x="371" y="30" on="0"/>
        <pt x="396" y="30" on="1"/>
        <pt x="504" y="30" on="1"/>
      </contour>
    </TTGlyph>
    <TTGlyph name="arYeh.fina2" xMin="31" yMin="-276" xMax="662" yMax="163">
      <contour>
        <pt x="662" y="-244" on="1"/>
        <pt x="224" y="-244" on="1"/>
        <pt x="157" y="-244" on="0"/>
        <pt x="84" y="-199" on="0"/>
        <pt x="75" y="-165" on="1"/>
        <pt x="66" y="-128" on="0"/>
        <pt x="108" y="-58" on="0"/>
        <pt x="151" y="-46" on="1"/>
        <pt x="191" y="-36" on="0"/>
        <pt x="245" y="-1" on="0"/>
        <pt x="262" y="22" on="0"/>
        <pt x="281" y="67" on="0"/>
        <pt x="283" y="70" on="1"/>
        <pt x="320" y="131" on="0"/>
        <pt x="379" y="128" on="1"/>
        <pt x="432" y="126" on="0"/>
        <pt x="458" y="77" on="1"/>
        <pt x="499" y="0" on="0"/>
        <pt x="588" y="0" on="1"/>
        <pt x="661" y="0" on="1"/>
        <pt x="661" y="32" on="1"/>
        <pt x="588" y="32" on="1"/>
        <pt x="550" y="32" on="0"/>
        <pt x="503" y="58" on="0"/>
        <pt x="486" y="91" on="1"/>
        <pt x="450" y="158" on="0"/>
        <pt x="379" y="160" on="1"/>
        <pt x="300" y="163" on="0"/>
        <pt x="255" y="86" on="1"/>
        <pt x="249" y="76" on="0"/>
        <pt x="235" y="38" on="0"/>
        <pt x="223" y="20" on="0"/>
        <pt x="180" y="-6" on="0"/>
        <pt x="143" y="-16" on="1"/>
        <pt x="88" y="-31" on="0"/>
        <pt x="31" y="-123" on="0"/>
        <pt x="44" y="-173" on="1"/>
        <pt x="56" y="-219" on="0"/>
        <pt x="148" y="-276" on="0"/>
        <pt x="224" y="-276" on="1"/>
        <pt x="662" y="-276" on="1"/>
      </contour>
    </TTGlyph>
    <TTGlyph name="arYeh.isol" xMin="40" yMin="-244" xMax="505" yMax="62">
      <contour>
        <pt x="504" y="62" on="1"/>
        <pt x="396" y="62" on="1"/>
        <pt x="353" y="62" on="0"/>
        <pt x="317" y="-3" on="0"/>
        <pt x="347" y="-42" on="1"/>
        <pt x="458" y="-176" on="1"/>
        <pt x="468" y="-187" on="0"/>
        <pt x="450" y="-212" on="0"/>
        <pt x="427" y="-212" on="1"/>
        <pt x="197" y="-212" on="1"/>
        <pt x="146" y="-212" on="0"/>
        <pt x="72" y="-158" on="0"/>
        <pt x="72" y="-103" on="1"/>
        <pt x="72" y="59" on="1"/>
        <pt x="40" y="59" on="1"/>
        <pt x="40" y="-103" on="1"/>
        <pt x="40" y="-174" on="0"/>
        <pt x="137" y="-244" on="0"/>
        <pt x="197" y="-244" on="1"/>
        <pt x="427" y="-244" on="1"/>
        <pt x="468" y="-244" on="0"/>
        <pt x="505" y="-184" on="0"/>
        <pt x="482" y="-156" on="1"/>
        <pt x="371" y="-22" on="1"/>
        <pt x="354" y="2" on="0"/>
        <pt x="371" y="30" on="0"/>
        <pt x="396" y="30" on="1"/>
        <pt x="504" y="30" on="1"/>
      </contour>
    </TTGlyph>
    <TTGlyph name="arYeh.isol2" xMin="31" yMin="-197" xMax="850" yMax="242">
      <contour>
        <pt x="850" y="-165" on="1"/>
        <pt x="224" y="-165" on="1"/>
        <pt x="157" y="-165" on="0"/>
        <pt x="83" y="-120" on="0"/>
        <pt x="75" y="-86" on="1"/>
        <pt x="66" y="-50" on="0"/>
        <pt x="108" y="20" on="0"/>
        <pt x="151" y="32" on="1"/>
        <pt x="191" y="42" on="0"/>
        <pt x="244" y="77" on="0"/>
        <pt x="262" y="105" on="0"/>
        <pt x="279" y="143" on="0"/>
        <pt x="282" y="148" on="1"/>
        <pt x="305" y="181" on="0"/>
        <pt x="365" y="210" on="0"/>
        <pt x="426" y="203" on="0"/>
        <pt x="475" y="185" on="0"/>
        <pt x="498" y="170" on="1"/>
        <pt x="515" y="198" on="1"/>
        <pt x="490" y="214" on="0"/>
        <pt x="433" y="234" on="0"/>
        <pt x="359" y="242" on="0"/>
        <pt x="285" y="206" on="0"/>
        <pt x="256" y="166" on="1"/>
        <pt x="248" y="155" on="0"/>
        <pt x="233" y="119" on="0"/>
        <pt x="222" y="98" on="0"/>
        <pt x="180" y="72" on="0"/>
        <pt x="143" y="62" on="1"/>
        <pt x="88" y="47" on="0"/>
        <pt x="31" y="-44" on="0"/>
        <pt x="44" y="-94" on="1"/>
        <pt x="56" y="-140" on="0"/>
        <pt x="148" y="-197" on="0"/>
        <pt x="224" y="-197" on="1"/>
        <pt x="850" y="-197" on="1"/>
      </contour>
    </TTGlyph>
    <TTGlyph name="aring" xMin="58" yMin="-12" xMax="412" yMax="739">
      <contour>
        <pt x="197" y="-12" on="1"/>
        <pt x="136" y="-12" on="0"/>
        <pt x="58" y="55" on="0"/>
        <pt x="58" y="120" on="1"/>
        <pt x="58" y="199" on="0"/>
        <pt x="205" y="283" on="0"/>
        <pt x="368" y="301" on="1"/>
        <pt x="370" y="453" on="0"/>
        <pt x="254" y="453" on="1"/>
        <pt x="178" y="453" on="0"/>
        <pt x="101" y="397" on="1"/>
        <pt x="81" y="430" on="1"/>
        <pt x="169" y="492" on="0"/>
        <pt x="260" y="492" on="1"/>
        <pt x="340" y="492" on="0"/>
        <pt x="412" y="391" on="0"/>
        <pt x="412" y="307" on="1"/>
        <pt x="412" y="0" on="1"/>
        <pt x="374" y="0" on="1"/>
        <pt x="370" y="62" on="1"/>
        <pt x="367" y="62" on="1"/>
        <pt x="274" y="-12" on="0"/>
      </contour>
      <contour>
        <pt x="205" y="26" on="1"/>
        <pt x="276" y="26" on="0"/>
        <pt x="368" y="104" on="1"/>
        <pt x="368" y="267" on="1"/>
        <pt x="224" y="250" on="0"/>
        <pt x="103" y="181" on="0"/>
        <pt x="103" y="122" on="1"/>
        <pt x="103" y="73" on="0"/>
        <pt x="160" y="26" on="0"/>
      </contour>
      <contour>
        <pt x="297" y="548" on="0"/>
        <pt x="213" y="548" on="0"/>
        <pt x="158" y="601" on="0"/>
        <pt x="158" y="685" on="0"/>
        <pt x="213" y="739" on="0"/>
        <pt x="297" y="739" on="0"/>
        <pt x="352" y="685" on="0"/>
        <pt x="352" y="601" on="0"/>
      </contour>
      <contour>
        <pt x="227" y="574" on="0"/>
        <pt x="283" y="574" on="0"/>
        <pt x="320" y="612" on="0"/>
        <pt x="320" y="643" on="1"/>
        <pt x="320" y="675" on="0"/>
        <pt x="283" y="713" on="0"/>
        <pt x="227" y="713" on="0"/>
        <pt x="190" y="675" on="0"/>
        <pt x="190" y="643" on="1"/>
        <pt x="190" y="612" on="0"/>
      </contour>
    </TTGlyph>
    <TTGlyph name="asciicircum" xMin="66" yMin="290" xMax="413" yMax="670">
      <contour>
        <pt x="66" y="290" on="1"/>
        <pt x="216" y="670" on="1"/>
        <pt x="262" y="670" on="1"/>
        <pt x="413" y="290" on="1"/>
        <pt x="370" y="290" on="1"/>
        <pt x="293" y="493" on="1"/>
        <pt x="241" y="626" on="1"/>
        <pt x="237" y="626" on="1"/>
        <pt x="186" y="493" on="1"/>
        <pt x="109" y="290" on="1"/>
      </contour>
    </TTGlyph>
    <TTGlyph name="asciitilde" xMin="40" yMin="266" xMax="438" yMax="394">
      <contour>
        <pt x="329" y="266" on="1"/>
        <pt x="296" y="266" on="0"/>
        <pt x="230" y="311" on="0"/>
        <pt x="172" y="356" on="0"/>
        <pt x="148" y="356" on="1"/>
        <pt x="101" y="356" on="0"/>
        <pt x="69" y="293" on="1"/>
        <pt x="40" y="311" on="1"/>
        <pt x="83" y="394" on="0"/>
        <pt x="150" y="394" on="1"/>
        <pt x="183" y="394" on="0"/>
        <pt x="249" y="349" on="0"/>
        <pt x="307" y="304" on="0"/>
        <pt x="331" y="304" on="1"/>
        <pt x="378" y="304" on="0"/>
        <pt x="410" y="367" on="1"/>
        <pt x="438" y="347" on="1"/>
        <pt x="418" y="308" on="0"/>
        <pt x="359" y="266" on="0"/>
      </contour>
    </TTGlyph>
    <TTGlyph name="asterisk" xMin="70" yMin="462" xMax="325" yMax="712">
      <contour>
        <pt x="132" y="462" on="1"/>
        <pt x="105" y="482" on="1"/>
        <pt x="160" y="570" on="1"/>
        <pt x="70" y="606" on="1"/>
        <pt x="80" y="636" on="1"/>
        <pt x="174" y="610" on="1"/>
        <pt x="181" y="712" on="1"/>
        <pt x="213" y="712" on="1"/>
        <pt x="220" y="612" on="1"/>
        <pt x="315" y="636" on="1"/>
        <pt x="325" y="606" on="1"/>
        <pt x="235" y="570" on="1"/>
        <pt x="289" y="482" on="1"/>
        <pt x="262" y="462" on="1"/>
        <pt x="198" y="545" on="1"/>
      </contour>
    </TTGlyph>
    <TTGlyph name="at" xMin="52" yMin="-146" xMax="763" yMax="633">
      <contour>
        <pt x="388" y="-146" on="1"/>
        <pt x="240" y="-146" on="0"/>
        <pt x="52" y="41" on="0"/>
        <pt x="52" y="202" on="1"/>
        <pt x="52" y="392" on="0"/>
        <pt x="285" y="633" on="0"/>
        <pt x="449" y="633" on="1"/>
        <pt x="593" y="633" on="0"/>
        <pt x="763" y="459" on="0"/>
        <pt x="763" y="316" on="1"/>
        <pt x="763" y="197" on="0"/>
        <pt x="648" y="56" on="0"/>
        <pt x="579" y="56" on="1"/>
        <pt x="538" y="56" on="0"/>
        <pt x="486" y="94" on="0"/>
        <pt x="482" y="132" on="1"/>
        <pt x="480" y="132" on="1"/>
        <pt x="417" y="62" on="0"/>
        <pt x="358" y="62" on="1"/>
        <pt x="309" y="62" on="0"/>
        <pt x="244" y="133" on="0"/>
        <pt x="244" y="198" on="1"/>
        <pt x="244" y="279" on="0"/>
        <pt x="348" y="423" on="0"/>
        <pt x="430" y="423" on="1"/>
        <pt x="483" y="423" on="0"/>
        <pt x="513" y="375" on="1"/>
        <pt x="515" y="375" on="1"/>
        <pt x="524" y="415" on="1"/>
        <pt x="558" y="415" on="1"/>
        <pt x="522" y="226" on="1"/>
        <pt x="488" y="91" on="0"/>
        <pt x="582" y="91" on="1"/>
        <pt x="635" y="91" on="0"/>
        <pt x="725" y="214" on="0"/>
        <pt x="725" y="313" on="1"/>
        <pt x="725" y="443" on="0"/>
        <pt x="575" y="598" on="0"/>
        <pt x="446" y="598" on="1"/>
        <pt x="303" y="598" on="0"/>
        <pt x="90" y="377" on="0"/>
        <pt x="90" y="205" on="1"/>
        <pt x="90" y="60" on="0"/>
        <pt x="255" y="-110" on="0"/>
        <pt x="391" y="-110" on="1"/>
        <pt x="480" y="-110" on="0"/>
        <pt x="559" y="-62" on="1"/>
        <pt x="575" y="-92" on="1"/>
        <pt x="490" y="-146" on="0"/>
      </contour>
      <contour>
        <pt x="364" y="98" on="1"/>
        <pt x="414" y="98" on="0"/>
        <pt x="472" y="165" on="1"/>
        <pt x="503" y="338" on="1"/>
        <pt x="471" y="387" on="0"/>
        <pt x="429" y="387" on="1"/>
        <pt x="365" y="387" on="0"/>
        <pt x="284" y="270" on="0"/>
        <pt x="284" y="201" on="1"/>
        <pt x="284" y="98" on="0"/>
      </contour>
    </TTGlyph>
    <TTGlyph name="atilde" xMin="58" yMin="-12" xMax="419" yMax="710">
      <contour>
        <pt x="197" y="-12" on="1"/>
        <pt x="136" y="-12" on="0"/>
        <pt x="58" y="55" on="0"/>
        <pt x="58" y="120" on="1"/>
        <pt x="58" y="199" on="0"/>
        <pt x="205" y="283" on="0"/>
        <pt x="368" y="301" on="1"/>
        <pt x="370" y="453" on="0"/>
        <pt x="254" y="453" on="1"/>
        <pt x="178" y="453" on="0"/>
        <pt x="101" y="397" on="1"/>
        <pt x="81" y="430" on="1"/>
        <pt x="169" y="492" on="0"/>
        <pt x="260" y="492" on="1"/>
        <pt x="340" y="492" on="0"/>
        <pt x="412" y="391" on="0"/>
        <pt x="412" y="307" on="1"/>
        <pt x="412" y="0" on="1"/>
        <pt x="374" y="0" on="1"/>
        <pt x="370" y="62" on="1"/>
        <pt x="367" y="62" on="1"/>
        <pt x="274" y="-12" on="0"/>
      </contour>
      <contour>
        <pt x="205" y="26" on="1"/>
        <pt x="276" y="26" on="0"/>
        <pt x="368" y="104" on="1"/>
        <pt x="368" y="267" on="1"/>
        <pt x="224" y="250" on="0"/>
        <pt x="103" y="181" on="0"/>
        <pt x="103" y="122" on="1"/>
        <pt x="103" y="73" on="0"/>
        <pt x="160" y="26" on="0"/>
      </contour>
      <contour>
        <pt x="331" y="579" on="1"/>
        <pt x="305" y="579" on="0"/>
        <pt x="261" y="609" on="0"/>
        <pt x="234" y="645" on="0"/>
        <pt x="197" y="675" on="0"/>
        <pt x="179" y="675" on="1"/>
        <pt x="130" y="675" on="0"/>
        <pt x="125" y="582" on="1"/>
        <pt x="91" y="584" on="1"/>
        <pt x="99" y="710" on="0"/>
        <pt x="180" y="710" on="1"/>
        <pt x="212" y="710" on="0"/>
        <pt x="264" y="662" on="0"/>
        <pt x="309" y="614" on="0"/>
        <pt x="332" y="614" on="1"/>
        <pt x="379" y="614" on="0"/>
        <pt x="385" y="707" on="1"/>
        <pt x="419" y="705" on="1"/>
        <pt x="411" y="579" on="0"/>
      </contour>
    </TTGlyph>
    <TTGlyph name="b" xMin="92" yMin="-12" xMax="492" yMax="719">
      <contour>
        <pt x="280" y="-12" on="1"/>
        <pt x="210" y="-12" on="0"/>
        <pt x="136" y="49" on="1"/>
        <pt x="134" y="49" on="1"/>
        <pt x="129" y="0" on="1"/>
        <pt x="92" y="0" on="1"/>
        <pt x="92" y="719" on="1"/>
        <pt x="136" y="719" on="1"/>
        <pt x="136" y="511" on="1"/>
        <pt x="134" y="417" on="1"/>
        <pt x="224" y="492" on="0"/>
        <pt x="300" y="492" on="1"/>
        <pt x="394" y="492" on="0"/>
        <pt x="492" y="361" on="0"/>
        <pt x="492" y="247" on="1"/>
        <pt x="492" y="129" on="0"/>
        <pt x="368" y="-12" on="0"/>
      </contour>
      <contour>
        <pt x="278" y="27" on="1"/>
        <pt x="351" y="27" on="0"/>
        <pt x="445" y="150" on="0"/>
        <pt x="445" y="247" on="1"/>
        <pt x="445" y="342" on="0"/>
        <pt x="371" y="453" on="0"/>
        <pt x="293" y="453" on="1"/>
        <pt x="224" y="453" on="0"/>
        <pt x="136" y="374" on="1"/>
        <pt x="136" y="89" on="1"/>
        <pt x="209" y="27" on="0"/>
      </contour>
    </TTGlyph>
    <TTGlyph name="backslash" xMin="5" yMin="-160" xMax="349" yMax="710">
      <contour>
        <pt x="311" y="-160" on="1"/>
        <pt x="5" y="710" on="1"/>
        <pt x="43" y="710" on="1"/>
        <pt x="349" y="-160" on="1"/>
      </contour>
    </TTGlyph>
    <TTGlyph name="bar" xMin="95" yMin="-250" xMax="131" yMax="750">
      <contour>
        <pt x="95" y="-250" on="1"/>
        <pt x="95" y="750" on="1"/>
        <pt x="131" y="750" on="1"/>
        <pt x="131" y="-250" on="1"/>
      </contour>
    </TTGlyph>
    <TTGlyph name="braceleft" xMin="35" yMin="-152" xMax="258" yMax="708">
      <contour>
        <pt x="224" y="-152" on="1"/>
        <pt x="166" y="-152" on="0"/>
        <pt x="113" y="-97" on="0"/>
        <pt x="113" y="-24" on="1"/>
        <pt x="113" y="14" on="0"/>
        <pt x="121" y="147" on="0"/>
        <pt x="121" y="181" on="1"/>
        <pt x="121" y="262" on="0"/>
        <pt x="35" y="262" on="1"/>
        <pt x="35" y="294" on="1"/>
        <pt x="121" y="294" on="0"/>
        <pt x="121" y="373" on="1"/>
        <pt x="121" y="408" on="0"/>
        <pt x="113" y="543" on="0"/>
        <pt x="113" y="580" on="1"/>
        <pt x="113" y="653" on="0"/>
        <pt x="166" y="708" on="0"/>
        <pt x="224" y="708" on="1"/>
        <pt x="258" y="708" on="1"/>
        <pt x="258" y="679" on="1"/>
        <pt x="227" y="679" on="1"/>
        <pt x="183" y="679" on="0"/>
        <pt x="150" y="631" on="0"/>
        <pt x="150" y="576" on="1"/>
        <pt x="150" y="544" on="0"/>
        <pt x="156" y="421" on="0"/>
        <pt x="156" y="384" on="1"/>
        <pt x="156" y="338" on="0"/>
        <pt x="134" y="289" on="0"/>
        <pt x="105" y="280" on="1"/>
        <pt x="105" y="276" on="1"/>
        <pt x="134" y="267" on="0"/>
        <pt x="156" y="217" on="0"/>
        <pt x="156" y="172" on="1"/>
        <pt x="156" y="135" on="0"/>
        <pt x="150" y="12" on="0"/>
        <pt x="150" y="-20" on="1"/>
        <pt x="150" y="-75" on="0"/>
        <pt x="183" y="-123" on="0"/>
        <pt x="227" y="-123" on="1"/>
        <pt x="258" y="-123" on="1"/>
        <pt x="258" y="-152" on="1"/>
      </contour>
    </TTGlyph>
    <TTGlyph name="braceright" xMin="21" yMin="-152" xMax="244" yMax="708">
      <contour>
        <pt x="21" y="-152" on="1"/>
        <pt x="21" y="-123" on="1"/>
        <pt x="52" y="-123" on="1"/>
        <pt x="96" y="-123" on="0"/>
        <pt x="129" y="-75" on="0"/>
        <pt x="129" y="-20" on="1"/>
        <pt x="129" y="12" on="0"/>
        <pt x="123" y="135" on="0"/>
        <pt x="123" y="172" on="1"/>
        <pt x="123" y="260" on="0"/>
        <pt x="174" y="276" on="1"/>
        <pt x="174" y="280" on="1"/>
        <pt x="146" y="289" on="0"/>
        <pt x="123" y="338" on="0"/>
        <pt x="123" y="384" on="1"/>
        <pt x="123" y="421" on="0"/>
        <pt x="129" y="544" on="0"/>
        <pt x="129" y="576" on="1"/>
        <pt x="129" y="631" on="0"/>
        <pt x="96" y="679" on="0"/>
        <pt x="52" y="679" on="1"/>
        <pt x="21" y="679" on="1"/>
        <pt x="21" y="708" on="1"/>
        <pt x="55" y="708" on="1"/>
        <pt x="113" y="708" on="0"/>
        <pt x="166" y="653" on="0"/>
        <pt x="166" y="580" on="1"/>
        <pt x="166" y="543" on="0"/>
        <pt x="158" y="408" on="0"/>
        <pt x="158" y="373" on="1"/>
        <pt x="158" y="294" on="0"/>
        <pt x="244" y="294" on="1"/>
        <pt x="244" y="262" on="1"/>
        <pt x="158" y="262" on="0"/>
        <pt x="158" y="181" on="1"/>
        <pt x="158" y="147" on="0"/>
        <pt x="166" y="14" on="0"/>
        <pt x="166" y="-24" on="1"/>
        <pt x="166" y="-97" on="0"/>
        <pt x="113" y="-152" on="0"/>
        <pt x="55" y="-152" on="1"/>
      </contour>
    </TTGlyph>
    <TTGlyph name="bracketleft" xMin="98" yMin="-152" xMax="258" yMax="708">
      <contour>
        <pt x="98" y="-152" on="1"/>
        <pt x="98" y="708" on="1"/>
        <pt x="258" y="708" on="1"/>
        <pt x="258" y="679" on="1"/>
        <pt x="133" y="679" on="1"/>
        <pt x="133" y="-123" on="1"/>
        <pt x="258" y="-123" on="1"/>
        <pt x="258" y="-152" on="1"/>
      </contour>
    </TTGlyph>
    <TTGlyph name="bracketright" xMin="21" yMin="-152" xMax="181" yMax="708">
      <contour>
        <pt x="21" y="-152" on="1"/>
        <pt x="21" y="-123" on="1"/>
        <pt x="146" y="-123" on="1"/>
        <pt x="146" y="679" on="1"/>
        <pt x="21" y="679" on="1"/>
        <pt x="21" y="708" on="1"/>
        <pt x="181" y="708" on="1"/>
        <pt x="181" y="-152" on="1"/>
      </contour>
    </TTGlyph>
    <TTGlyph name="brokenbar" xMin="95" yMin="-250" xMax="131" yMax="750">
      <contour>
        <pt x="95" y="279" on="1"/>
        <pt x="95" y="750" on="1"/>
        <pt x="131" y="750" on="1"/>
        <pt x="131" y="279" on="1"/>
      </contour>
      <contour>
        <pt x="95" y="-250" on="1"/>
        <pt x="95" y="220" on="1"/>
        <pt x="131" y="220" on="1"/>
        <pt x="131" y="-250" on="1"/>
      </contour>
    </TTGlyph>
    <TTGlyph name="bullet" xMin="40" yMin="154" xMax="241" yMax="374">
      <contour>
        <pt x="140" y="154" on="1"/>
        <pt x="100" y="154" on="0"/>
        <pt x="40" y="215" on="0"/>
        <pt x="40" y="264" on="1"/>
        <pt x="40" y="312" on="0"/>
        <pt x="100" y="374" on="0"/>
        <pt x="140" y="374" on="1"/>
        <pt x="181" y="374" on="0"/>
        <pt x="241" y="313" on="0"/>
        <pt x="241" y="215" on="0"/>
        <pt x="181" y="154" on="0"/>
      </contour>
    </TTGlyph>
    <TTGlyph name="c" xMin="52" yMin="-12" xMax="423" yMax="492">
      <contour>
        <pt x="270" y="-12" on="1"/>
        <pt x="174" y="-12" on="0"/>
        <pt x="52" y="123" on="0"/>
        <pt x="52" y="355" on="0"/>
        <pt x="179" y="492" on="0"/>
        <pt x="271" y="492" on="1"/>
        <pt x="347" y="492" on="0"/>
        <pt x="412" y="433" on="1"/>
        <pt x="386" y="402" on="1"/>
        <pt x="331" y="453" on="0"/>
        <pt x="272" y="453" on="1"/>
        <pt x="198" y="453" on="0"/>
        <pt x="98" y="333" on="0"/>
        <pt x="98" y="239" on="1"/>
        <pt x="98" y="144" on="0"/>
        <pt x="194" y="27" on="0"/>
        <pt x="272" y="27" on="1"/>
        <pt x="340" y="27" on="0"/>
        <pt x="400" y="82" on="1"/>
        <pt x="423" y="51" on="1"/>
        <pt x="351" y="-12" on="0"/>
      </contour>
    </TTGlyph>
    <TTGlyph name="ccedilla" xMin="52" yMin="-219" xMax="423" yMax="492">
      <contour>
        <pt x="270" y="-12" on="1"/>
        <pt x="174" y="-12" on="0"/>
        <pt x="52" y="123" on="0"/>
        <pt x="52" y="355" on="0"/>
        <pt x="179" y="492" on="0"/>
        <pt x="271" y="492" on="1"/>
        <pt x="347" y="492" on="0"/>
        <pt x="412" y="433" on="1"/>
        <pt x="386" y="402" on="1"/>
        <pt x="331" y="453" on="0"/>
        <pt x="272" y="453" on="1"/>
        <pt x="198" y="453" on="0"/>
        <pt x="98" y="333" on="0"/>
        <pt x="98" y="239" on="1"/>
        <pt x="98" y="144" on="0"/>
        <pt x="194" y="27" on="0"/>
        <pt x="272" y="27" on="1"/>
        <pt x="340" y="27" on="0"/>
        <pt x="400" y="82" on="1"/>
        <pt x="423" y="51" on="1"/>
        <pt x="351" y="-12" on="0"/>
      </contour>
      <contour>
        <pt x="188" y="-219" on="1"/>
        <pt x="181" y="-189" on="1"/>
        <pt x="244" y="-185" on="0"/>
        <pt x="294" y="-159" on="0"/>
        <pt x="294" y="-136" on="1"/>
        <pt x="294" y="-114" on="0"/>
        <pt x="258" y="-91" on="0"/>
        <pt x="216" y="-85" on="1"/>
        <pt x="257" y="2" on="1"/>
        <pt x="292" y="2" on="1"/>
        <pt x="262" y="-65" on="1"/>
        <pt x="333" y="-83" on="0"/>
        <pt x="333" y="-134" on="1"/>
        <pt x="333" y="-210" on="0"/>
      </contour>
    </TTGlyph>
    <TTGlyph name="cedilla" xMin="192" yMin="-219" xMax="344" yMax="2">
      <contour>
        <pt x="199" y="-219" on="1"/>
        <pt x="192" y="-189" on="1"/>
        <pt x="255" y="-185" on="0"/>
        <pt x="305" y="-159" on="0"/>
        <pt x="305" y="-136" on="1"/>
        <pt x="305" y="-114" on="0"/>
        <pt x="269" y="-91" on="0"/>
        <pt x="227" y="-85" on="1"/>
        <pt x="268" y="2" on="1"/>
        <pt x="303" y="2" on="1"/>
        <pt x="273" y="-65" on="1"/>
        <pt x="344" y="-83" on="0"/>
        <pt x="344" y="-134" on="1"/>
        <pt x="344" y="-210" on="0"/>
      </contour>
    </TTGlyph>
    <TTGlyph name="cent" xMin="62" yMin="-28" xMax="435" yMax="652">
      <contour>
        <pt x="282" y="80" on="1"/>
        <pt x="184" y="80" on="0"/>
        <pt x="62" y="203" on="0"/>
        <pt x="62" y="419" on="0"/>
        <pt x="189" y="543" on="0"/>
        <pt x="283" y="543" on="1"/>
        <pt x="362" y="543" on="0"/>
        <pt x="424" y="483" on="1"/>
        <pt x="400" y="455" on="1"/>
        <pt x="346" y="504" on="0"/>
        <pt x="284" y="504" on="1"/>
        <pt x="207" y="504" on="0"/>
        <pt x="107" y="397" on="0"/>
        <pt x="107" y="311" on="1"/>
        <pt x="107" y="224" on="0"/>
        <pt x="203" y="119" on="0"/>
        <pt x="284" y="119" on="1"/>
        <pt x="353" y="119" on="0"/>
        <pt x="412" y="173" on="1"/>
        <pt x="435" y="144" on="1"/>
        <pt x="364" y="80" on="0"/>
      </contour>
      <contour>
        <pt x="255" y="-28" on="1"/>
        <pt x="255" y="652" on="1"/>
        <pt x="289" y="652" on="1"/>
        <pt x="289" y="-28" on="1"/>
      </contour>
    </TTGlyph>
    <TTGlyph name="circumflex" xMin="129" yMin="572" xMax="405" yMax="737">
      <contour>
        <pt x="129" y="593" on="1"/>
        <pt x="246" y="737" on="1"/>
        <pt x="288" y="737" on="1"/>
        <pt x="405" y="593" on="1"/>
        <pt x="383" y="572" on="1"/>
        <pt x="269" y="698" on="1"/>
        <pt x="265" y="698" on="1"/>
        <pt x="151" y="572" on="1"/>
      </contour>
    </TTGlyph>
    <TTGlyph name="colon" xMin="67" yMin="-12" xMax="152" yMax="461">
      <contour>
        <pt x="127" y="370" on="0"/>
        <pt x="93" y="370" on="0"/>
        <pt x="67" y="395" on="0"/>
        <pt x="67" y="415" on="1"/>
        <pt x="67" y="436" on="0"/>
        <pt x="93" y="461" on="0"/>
        <pt x="127" y="461" on="0"/>
        <pt x="152" y="436" on="0"/>
        <pt x="152" y="415" on="1"/>
        <pt x="152" y="395" on="0"/>
      </contour>
      <contour>
        <pt x="127" y="-12" on="0"/>
        <pt x="93" y="-12" on="0"/>
        <pt x="67" y="13" on="0"/>
        <pt x="67" y="33" on="1"/>
        <pt x="67" y="54" on="0"/>
        <pt x="93" y="79" on="0"/>
        <pt x="127" y="79" on="0"/>
        <pt x="152" y="54" on="0"/>
        <pt x="152" y="33" on="1"/>
        <pt x="152" y="13" on="0"/>
      </contour>
    </TTGlyph>
    <TTGlyph name="comma" xMin="48" yMin="-155" xMax="165" yMax="79">
      <contour>
        <pt x="62" y="-155" on="1"/>
        <pt x="48" y="-125" on="1"/>
        <pt x="125" y="-85" on="0"/>
        <pt x="125" y="-1" on="1"/>
        <pt x="112" y="59" on="1"/>
        <pt x="148" y="12" on="1"/>
        <pt x="137" y="-5" on="0"/>
        <pt x="113" y="-5" on="1"/>
        <pt x="95" y="-5" on="0"/>
        <pt x="71" y="17" on="0"/>
        <pt x="71" y="37" on="1"/>
        <pt x="71" y="56" on="0"/>
        <pt x="96" y="79" on="0"/>
        <pt x="114" y="79" on="1"/>
        <pt x="137" y="79" on="0"/>
        <pt x="165" y="41" on="0"/>
        <pt x="165" y="8" on="1"/>
        <pt x="165" y="-45" on="0"/>
        <pt x="109" y="-130" on="0"/>
      </contour>
    </TTGlyph>
    <TTGlyph name="copyright" xMin="51" yMin="-12" xMax="690" yMax="652">
      <contour>
        <pt x="504" y="-12" on="0"/>
        <pt x="238" y="-12" on="0"/>
        <pt x="51" y="174" on="0"/>
        <pt x="51" y="322" on="1"/>
        <pt x="51" y="469" on="0"/>
        <pt x="237" y="652" on="0"/>
        <pt x="371" y="652" on="1"/>
        <pt x="504" y="652" on="0"/>
        <pt x="690" y="469" on="0"/>
        <pt x="690" y="322" on="1"/>
        <pt x="690" y="174" on="0"/>
      </contour>
      <contour>
        <pt x="253" y="19" on="0"/>
        <pt x="489" y="19" on="0"/>
        <pt x="655" y="189" on="0"/>
        <pt x="655" y="322" on="1"/>
        <pt x="655" y="454" on="0"/>
        <pt x="489" y="622" on="0"/>
        <pt x="371" y="622" on="1"/>
        <pt x="252" y="622" on="0"/>
        <pt x="86" y="454" on="0"/>
        <pt x="86" y="322" on="1"/>
        <pt x="86" y="189" on="0"/>
      </contour>
      <contour>
        <pt x="376" y="124" on="1"/>
        <pt x="302" y="124" on="0"/>
        <pt x="201" y="231" on="0"/>
        <pt x="201" y="322" on="1"/>
        <pt x="201" y="406" on="0"/>
        <pt x="307" y="509" on="0"/>
        <pt x="381" y="509" on="1"/>
        <pt x="446" y="509" on="0"/>
        <pt x="501" y="454" on="1"/>
        <pt x="478" y="428" on="1"/>
        <pt x="431" y="472" on="0"/>
        <pt x="380" y="472" on="1"/>
        <pt x="320" y="472" on="0"/>
        <pt x="244" y="389" on="0"/>
        <pt x="244" y="322" on="1"/>
        <pt x="244" y="248" on="0"/>
        <pt x="317" y="161" on="0"/>
        <pt x="378" y="161" on="1"/>
        <pt x="438" y="161" on="0"/>
        <pt x="493" y="211" on="1"/>
        <pt x="513" y="183" on="1"/>
        <pt x="480" y="154" on="0"/>
        <pt x="420" y="124" on="0"/>
      </contour>
    </TTGlyph>
    <TTGlyph name="currency" xMin="31" yMin="114" xMax="448" yMax="546">
      <contour>
        <pt x="57" y="114" on="1"/>
        <pt x="31" y="142" on="1"/>
        <pt x="96" y="209" on="1"/>
        <pt x="58" y="260" on="0"/>
        <pt x="58" y="328" on="1"/>
        <pt x="58" y="399" on="0"/>
        <pt x="96" y="450" on="1"/>
        <pt x="31" y="518" on="1"/>
        <pt x="57" y="546" on="1"/>
        <pt x="123" y="477" on="1"/>
        <pt x="172" y="521" on="0"/>
        <pt x="306" y="521" on="0"/>
        <pt x="355" y="477" on="1"/>
        <pt x="422" y="546" on="1"/>
        <pt x="448" y="518" on="1"/>
        <pt x="382" y="450" on="1"/>
        <pt x="420" y="399" on="0"/>
        <pt x="420" y="328" on="1"/>
        <pt x="420" y="260" on="0"/>
        <pt x="383" y="209" on="1"/>
        <pt x="448" y="142" on="1"/>
        <pt x="422" y="114" on="1"/>
        <pt x="355" y="182" on="1"/>
        <pt x="307" y="137" on="0"/>
        <pt x="239" y="137" on="1"/>
        <pt x="173" y="137" on="0"/>
        <pt x="123" y="182" on="1"/>
      </contour>
      <contour>
        <pt x="182" y="174" on="0"/>
        <pt x="296" y="174" on="0"/>
        <pt x="376" y="261" on="0"/>
        <pt x="376" y="328" on="1"/>
        <pt x="376" y="396" on="0"/>
        <pt x="296" y="484" on="0"/>
        <pt x="182" y="484" on="0"/>
        <pt x="102" y="396" on="0"/>
        <pt x="102" y="328" on="1"/>
        <pt x="102" y="261" on="0"/>
      </contour>
    </TTGlyph>
    <TTGlyph name="d" xMin="52" yMin="-12" xMax="452" yMax="719">
      <contour>
        <pt x="251" y="-12" on="1"/>
        <pt x="159" y="-12" on="0"/>
        <pt x="52" y="119" on="0"/>
        <pt x="52" y="239" on="1"/>
        <pt x="52" y="352" on="0"/>
        <pt x="177" y="492" on="0"/>
        <pt x="265" y="492" on="1"/>
        <pt x="306" y="492" on="0"/>
        <pt x="370" y="464" on="0"/>
        <pt x="410" y="433" on="1"/>
        <pt x="408" y="521" on="1"/>
        <pt x="408" y="719" on="1"/>
        <pt x="452" y="719" on="1"/>
        <pt x="452" y="0" on="1"/>
        <pt x="414" y="0" on="1"/>
        <pt x="410" y="62" on="1"/>
        <pt x="407" y="62" on="1"/>
        <pt x="333" y="-12" on="0"/>
      </contour>
      <contour>
        <pt x="257" y="27" on="1"/>
        <pt x="329" y="27" on="0"/>
        <pt x="408" y="106" on="1"/>
        <pt x="408" y="391" on="1"/>
        <pt x="338" y="453" on="0"/>
        <pt x="268" y="453" on="1"/>
        <pt x="196" y="453" on="0"/>
        <pt x="99" y="330" on="0"/>
        <pt x="99" y="239" on="1"/>
        <pt x="99" y="142" on="0"/>
        <pt x="182" y="27" on="0"/>
      </contour>
    </TTGlyph>
    <TTGlyph name="degree" xMin="42" yMin="447" xMax="270" yMax="684">
      <contour>
        <pt x="203" y="447" on="0"/>
        <pt x="109" y="447" on="0"/>
        <pt x="42" y="512" on="0"/>
        <pt x="42" y="565" on="1"/>
        <pt x="42" y="619" on="0"/>
        <pt x="109" y="684" on="0"/>
        <pt x="203" y="684" on="0"/>
        <pt x="270" y="619" on="0"/>
        <pt x="270" y="565" on="1"/>
        <pt x="270" y="512" on="0"/>
      </contour>
      <contour>
        <pt x="121" y="479" on="0"/>
        <pt x="191" y="479" on="0"/>
        <pt x="236" y="528" on="0"/>
        <pt x="236" y="565" on="1"/>
        <pt x="236" y="603" on="0"/>
        <pt x="191" y="653" on="0"/>
        <pt x="121" y="653" on="0"/>
        <pt x="76" y="603" on="0"/>
        <pt x="76" y="565" on="1"/>
        <pt x="76" y="528" on="0"/>
      </contour>
    </TTGlyph>
    <TTGlyph name="dieresis" xMin="141" yMin="598" xMax="393" yMax="672">
      <contour>
        <pt x="194" y="598" on="0"/>
        <pt x="162" y="598" on="0"/>
        <pt x="141" y="619" on="0"/>
        <pt x="141" y="651" on="0"/>
        <pt x="162" y="672" on="0"/>
        <pt x="194" y="672" on="0"/>
        <pt x="215" y="651" on="0"/>
        <pt x="215" y="619" on="0"/>
      </contour>
      <contour>
        <pt x="372" y="598" on="0"/>
        <pt x="340" y="598" on="0"/>
        <pt x="319" y="619" on="0"/>
        <pt x="319" y="651" on="0"/>
        <pt x="340" y="672" on="0"/>
        <pt x="372" y="672" on="0"/>
        <pt x="393" y="651" on="0"/>
        <pt x="393" y="619" on="0"/>
      </contour>
    </TTGlyph>
    <TTGlyph name="divide" xMin="34" yMin="109" xMax="445" yMax="549">
      <contour>
        <pt x="34" y="311" on="1"/>
        <pt x="34" y="349" on="1"/>
        <pt x="445" y="349" on="1"/>
        <pt x="445" y="311" on="1"/>
      </contour>
      <contour>
        <pt x="239" y="109" on="1"/>
        <pt x="223" y="109" on="0"/>
        <pt x="201" y="132" on="0"/>
        <pt x="201" y="150" on="1"/>
        <pt x="201" y="167" on="0"/>
        <pt x="223" y="189" on="0"/>
        <pt x="239" y="189" on="1"/>
        <pt x="256" y="189" on="0"/>
        <pt x="277" y="167" on="0"/>
        <pt x="277" y="150" on="1"/>
        <pt x="277" y="131" on="0"/>
        <pt x="256" y="109" on="0"/>
      </contour>
      <contour>
        <pt x="239" y="469" on="1"/>
        <pt x="223" y="469" on="0"/>
        <pt x="201" y="492" on="0"/>
        <pt x="201" y="510" on="1"/>
        <pt x="201" y="527" on="0"/>
        <pt x="223" y="549" on="0"/>
        <pt x="239" y="549" on="1"/>
        <pt x="256" y="549" on="0"/>
        <pt x="277" y="527" on="0"/>
        <pt x="277" y="510" on="1"/>
        <pt x="277" y="491" on="0"/>
        <pt x="256" y="469" on="0"/>
      </contour>
    </TTGlyph>
    <TTGlyph name="dollar" xMin="59" yMin="-110" xMax="419" yMax="749">
      <contour>
        <pt x="244" y="-12" on="1"/>
        <pt x="141" y="-12" on="0"/>
        <pt x="59" y="66" on="1"/>
        <pt x="83" y="97" on="1"/>
        <pt x="161" y="27" on="0"/>
        <pt x="244" y="27" on="1"/>
        <pt x="306" y="27" on="0"/>
        <pt x="374" y="94" on="0"/>
        <pt x="374" y="150" on="1"/>
        <pt x="374" y="204" on="0"/>
        <pt x="314" y="278" on="0"/>
        <pt x="230" y="320" on="0"/>
        <pt x="145" y="363" on="0"/>
        <pt x="85" y="439" on="0"/>
        <pt x="85" y="495" on="1"/>
        <pt x="85" y="563" on="0"/>
        <pt x="178" y="651" on="0"/>
        <pt x="247" y="651" on="1"/>
        <pt x="335" y="651" on="0"/>
        <pt x="402" y="580" on="1"/>
        <pt x="376" y="552" on="1"/>
        <pt x="343" y="584" on="0"/>
        <pt x="289" y="612" on="0"/>
        <pt x="246" y="612" on="1"/>
        <pt x="195" y="612" on="0"/>
        <pt x="130" y="547" on="0"/>
        <pt x="130" y="497" on="1"/>
        <pt x="130" y="449" on="0"/>
        <pt x="190" y="385" on="0"/>
        <pt x="274" y="345" on="0"/>
        <pt x="359" y="301" on="0"/>
        <pt x="419" y="216" on="0"/>
        <pt x="419" y="153" on="1"/>
        <pt x="419" y="78" on="0"/>
        <pt x="320" y="-12" on="0"/>
      </contour>
      <contour>
        <pt x="226" y="-110" on="1"/>
        <pt x="226" y="-1" on="1"/>
        <pt x="265" y="-1" on="1"/>
        <pt x="265" y="-110" on="1"/>
      </contour>
      <contour>
        <pt x="226" y="630" on="1"/>
        <pt x="226" y="749" on="1"/>
        <pt x="265" y="749" on="1"/>
        <pt x="265" y="630" on="1"/>
      </contour>
    </TTGlyph>
    <TTGlyph name="dotlessi" xMin="92" yMin="0" xMax="136" yMax="480">
      <contour>
        <pt x="92" y="0" on="1"/>
        <pt x="92" y="480" on="1"/>
        <pt x="136" y="480" on="1"/>
        <pt x="136" y="0" on="1"/>
      </contour>
    </TTGlyph>
    <TTGlyph name="e" xMin="52" yMin="-12" xMax="445" yMax="492">
      <contour>
        <pt x="274" y="-12" on="1"/>
        <pt x="179" y="-12" on="0"/>
        <pt x="52" y="124" on="0"/>
        <pt x="52" y="239" on="1"/>
        <pt x="52" y="352" on="0"/>
        <pt x="177" y="492" on="0"/>
        <pt x="261" y="492" on="1"/>
        <pt x="347" y="492" on="0"/>
        <pt x="445" y="375" on="0"/>
        <pt x="445" y="270" on="1"/>
        <pt x="445" y="246" on="0"/>
        <pt x="443" y="234" on="1"/>
        <pt x="97" y="234" on="1"/>
        <pt x="99" y="142" on="0"/>
        <pt x="198" y="26" on="0"/>
        <pt x="278" y="26" on="1"/>
        <pt x="347" y="26" on="0"/>
        <pt x="407" y="69" on="1"/>
        <pt x="425" y="35" on="1"/>
        <pt x="347" y="-12" on="0"/>
      </contour>
      <contour>
        <pt x="97" y="270" on="1"/>
        <pt x="403" y="270" on="1"/>
        <pt x="403" y="360" on="0"/>
        <pt x="328" y="454" on="0"/>
        <pt x="262" y="454" on="1"/>
        <pt x="198" y="454" on="0"/>
        <pt x="104" y="354" on="0"/>
      </contour>
    </TTGlyph>
    <TTGlyph name="eacute" xMin="52" yMin="-12" xMax="445" yMax="754">
      <contour>
        <pt x="274" y="-12" on="1"/>
        <pt x="179" y="-12" on="0"/>
        <pt x="52" y="124" on="0"/>
        <pt x="52" y="239" on="1"/>
        <pt x="52" y="352" on="0"/>
        <pt x="177" y="492" on="0"/>
        <pt x="261" y="492" on="1"/>
        <pt x="347" y="492" on="0"/>
        <pt x="445" y="375" on="0"/>
        <pt x="445" y="270" on="1"/>
        <pt x="445" y="246" on="0"/>
        <pt x="443" y="234" on="1"/>
        <pt x="97" y="234" on="1"/>
        <pt x="99" y="142" on="0"/>
        <pt x="198" y="26" on="0"/>
        <pt x="278" y="26" on="1"/>
        <pt x="347" y="26" on="0"/>
        <pt x="407" y="69" on="1"/>
        <pt x="425" y="35" on="1"/>
        <pt x="347" y="-12" on="0"/>
      </contour>
      <contour>
        <pt x="97" y="270" on="1"/>
        <pt x="403" y="270" on="1"/>
        <pt x="403" y="360" on="0"/>
        <pt x="328" y="454" on="0"/>
        <pt x="262" y="454" on="1"/>
        <pt x="198" y="454" on="0"/>
        <pt x="104" y="354" on="0"/>
      </contour>
      <contour>
        <pt x="232" y="574" on="1"/>
        <pt x="208" y="597" on="1"/>
        <pt x="342" y="754" on="1"/>
        <pt x="376" y="725" on="1"/>
      </contour>
    </TTGlyph>
    <TTGlyph name="ecircumflex" xMin="52" yMin="-12" xMax="445" yMax="737">
      <contour>
        <pt x="274" y="-12" on="1"/>
        <pt x="179" y="-12" on="0"/>
        <pt x="52" y="124" on="0"/>
        <pt x="52" y="239" on="1"/>
        <pt x="52" y="352" on="0"/>
        <pt x="177" y="492" on="0"/>
        <pt x="261" y="492" on="1"/>
        <pt x="347" y="492" on="0"/>
        <pt x="445" y="375" on="0"/>
        <pt x="445" y="270" on="1"/>
        <pt x="445" y="246" on="0"/>
        <pt x="443" y="234" on="1"/>
        <pt x="97" y="234" on="1"/>
        <pt x="99" y="142" on="0"/>
        <pt x="198" y="26" on="0"/>
        <pt x="278" y="26" on="1"/>
        <pt x="347" y="26" on="0"/>
        <pt x="407" y="69" on="1"/>
        <pt x="425" y="35" on="1"/>
        <pt x="347" y="-12" on="0"/>
      </contour>
      <contour>
        <pt x="97" y="270" on="1"/>
        <pt x="403" y="270" on="1"/>
        <pt x="403" y="360" on="0"/>
        <pt x="328" y="454" on="0"/>
        <pt x="262" y="454" on="1"/>
        <pt x="198" y="454" on="0"/>
        <pt x="104" y="354" on="0"/>
      </contour>
      <contour>
        <pt x="123" y="593" on="1"/>
        <pt x="240" y="737" on="1"/>
        <pt x="282" y="737" on="1"/>
        <pt x="399" y="593" on="1"/>
        <pt x="377" y="572" on="1"/>
        <pt x="263" y="698" on="1"/>
        <pt x="259" y="698" on="1"/>
        <pt x="145" y="572" on="1"/>
      </contour>
    </TTGlyph>
</ttFont>
